<?xml version="1.0" encoding="UTF-8" standalone="no"?>
<!-- Created with Inkscape (http://www.inkscape.org/) -->

<svg
   width="69.265442mm"
   height="163.8161mm"
   viewBox="0 0 69.265442 163.8161"
   version="1.1"
   id="svg1"
   xml:space="preserve"
   xmlns="http://www.w3.org/2000/svg"
   xmlns:svg="http://www.w3.org/2000/svg"><defs
     id="defs1"><linearGradient
       id="swatch2"><stop
         style="stop-color:#000000;stop-opacity:1;"
         offset="0"
         id="stop2" /></linearGradient></defs><g
     id="layer1"
     transform="translate(-75.508973,-67.254974)"><path
       style="fill:#22372b;fill-opacity:1"
       d="m 102.49648,231.00121 c -6.45832,-0.48771 -13.77079,-1.59196 -17.59479,-2.65698 -5.4063,-1.50569 -7.92887,-3.33712 -8.87073,-6.44029 -0.50884,-1.67648 -0.52198,-2.64605 -0.52198,-38.49688 0,-39.95627 -0.0175,-39.42655 1.48242,-44.7684 1.36861,-4.87404 4.00291,-9.39677 7.5186,-12.90836 2.28048,-2.27782 4.03304,-3.54855 8.72606,-6.32702 2.77981,-1.64576 3.68778,-2.83825 4.07145,-5.3473 0.17767,-1.16192 0.28825,-6.83399 0.28893,-14.820458 0.001,-12.635237 -0.0112,-12.945848 -0.526,-13.267316 -0.80997,-0.505837 -0.73161,-2.518788 0.1383,-3.552616 l 0.66539,-0.790772 -0.66539,-0.523397 c -0.65905,-0.518411 -0.66534,-0.561646 -0.66007,-4.539089 0.003,-2.208631 0.11646,-4.789598 0.25229,-5.735484 0.47389,-3.300072 1.49116,-3.571875 13.36843,-3.571875 8.25356,0 10.57052,0.171359 13.05634,0.965628 1.37187,0.438342 1.63203,1.384368 1.60571,5.838895 -0.0346,5.865424 -0.25364,7.002517 -1.43288,7.44031 -0.14552,0.05402 0.0331,0.343097 0.39688,0.642383 0.90209,0.742119 0.95356,2.774482 0.0874,3.450294 -0.57257,0.446726 -0.57439,0.482999 -0.69361,13.752622 -0.13857,15.423735 -0.0765,16.132975 1.55987,17.817765 0.56691,0.58368 2.34043,1.84623 3.94116,2.80567 3.99454,2.39421 5.47321,3.51129 7.94367,6.00112 3.73987,3.7692 5.77421,7.48094 7.33568,13.38428 l 0.80481,3.0427 -0.048,37.57084 c -0.0264,20.66396 -0.11077,38.10661 -0.18745,38.76146 -0.25758,2.19974 -0.74315,3.82792 -1.52905,5.12716 -2.02683,3.35071 -8.34128,5.56807 -19.34672,6.79371 -2.575,0.28677 -18.51767,0.55144 -21.16666,0.3514 z m 26.97027,-7.76781 0.67869,-0.25803 v -3.9753 c 0,-3.79891 -0.0235,-3.9753 -0.52917,-3.9753 -0.49898,0 -0.52933,0.17736 -0.53208,3.10886 -0.004,4.08416 -0.16698,5.03364 -0.8893,5.17532 -0.55995,0.10983 -0.55987,0.11062 0.0151,0.14646 0.31795,0.0198 0.8835,-0.0801 1.25677,-0.22201 z m -1.29508,-1.76372 c -0.17734,-2.04428 -0.40748,-2.12279 -0.40748,-0.13901 0,0.92716 0.11591,1.6316 0.26848,1.6316 0.16517,0 0.21866,-0.57439 0.139,-1.49259 z m 3.50835,0.30197 c 0,-0.50933 -0.10716,-0.92605 -0.23813,-0.92605 -0.13097,0 -0.23812,0.41672 -0.23812,0.92605 0,0.50932 0.10715,0.92604 0.23812,0.92604 0.13097,0 0.23813,-0.41672 0.23813,-0.92604 z m 0.0235,-3.175 c 0,-1.09141 -0.11245,-1.98438 -0.24989,-1.98438 -0.13743,0 -0.24988,0.89297 -0.24988,1.98438 0,1.0914 0.11245,1.98437 0.24988,1.98437 0.13744,0 0.24989,-0.89297 0.24989,-1.98437 z m 1.6169,-1.33854 c 0,-1.78946 -0.10078,-2.99604 -0.2429,-2.9082 -0.33881,0.20939 -0.36098,5.96653 -0.023,5.96653 0.16278,0 0.26588,-1.18594 0.26588,-3.05833 z m -12.8323,-4.24329 c 9.0226,-0.8196 12.3567,-1.30158 16.0073,-2.31402 2.41212,-0.66898 4.964,-1.66428 5.47145,-2.13402 0.23404,-0.21665 0.35968,-7.85788 0.50247,-30.55855 l 0.19041,-30.26967 -0.89936,0.15997 c -0.49464,0.088 -1.91138,0.34551 -3.14831,0.5723 -8.54619,1.5669 -24.61887,2.33354 -36.70965,1.75098 -6.63591,-0.31973 -17.75985,-1.16707 -19.67127,-1.49843 l -0.95072,-0.1648 -0.17232,2.87216 c -0.0948,1.57968 -0.17622,15.22489 -0.18097,30.32268 -0.008,24.58706 -0.0513,27.45052 -0.41781,27.45052 -0.36737,0 -0.39755,-2.95293 -0.29538,-28.90573 0.10198,-25.90632 0.19654,-30.78804 0.60929,-31.45588 0.14658,-0.23717 -0.0813,-0.37016 -1.01778,-0.59406 l -0.73056,-0.17465 0.15469,30.7636 0.1547,30.76359 1.67566,0.58879 c 3.68599,1.29516 11.32652,2.46695 19.45212,2.98328 3.3599,0.2135 17.08082,0.10493 19.97604,-0.15806 z M 84.0806,209.13779 c -0.11404,-4.69434 0.0712,-15.16672 0.2844,-16.08085 0.12445,-0.53351 0.22477,2.88048 0.23929,8.14335 0.016,5.7918 -0.0691,9.06198 -0.23568,9.06198 -0.14338,0 -0.27299,-0.50601 -0.28801,-1.12448 z m 1.98417,0.44756 c -0.1798,-0.71636 0.0579,-5.13016 0.28866,-5.36095 0.0747,-0.0747 0.13574,1.25332 0.13574,2.95107 0,3.08617 -0.10501,3.68243 -0.4244,2.40988 z M 82.0915,189.09049 c 0.10184,-11.35343 0.2901,-20.9082 0.41835,-21.23281 0.13743,-0.34785 0.22976,7.98811 0.22486,20.30047 -0.005,11.48987 -0.0674,21.04463 -0.13962,21.23281 -0.0722,0.18818 -0.25672,0.34214 -0.41002,0.34214 -0.19446,0 -0.22275,-6.24143 -0.0936,-20.64261 z m 20.46243,-6.74022 c -1.44234,-0.39666 -2.00187,-0.788 -2.31888,-1.6218 -0.2871,-0.75511 0.16334,-2.3897 0.75047,-2.72337 0.38078,-0.21641 0.40012,-0.34295 0.12187,-0.79748 -0.53522,-0.8743 -0.39162,-1.91013 0.37587,-2.71121 0.70021,-0.73087 0.702,-0.74259 0.19843,-1.29902 -0.40333,-0.44568 -0.50815,-0.95939 -0.50815,-2.49033 0,-2.20919 0.33966,-2.78742 2.11667,-3.60343 1.36195,-0.62541 2.16082,-0.62039 3.41984,0.0215 0.7335,0.37396 1.15115,0.44794 1.49376,0.26458 0.62306,-0.33345 1.8224,-0.32701 1.87296,0.0101 0.11549,0.76996 0.0378,0.91607 -0.56885,1.06983 -0.41766,0.10585 -0.61292,0.30529 -0.52977,0.54109 0.0724,0.2054 0.13197,1.10817 0.1323,2.00616 5e-4,1.37695 -0.10302,1.74353 -0.66087,2.34024 -1.0876,1.16338 -2.08254,1.54247 -3.92107,1.49401 -1.59383,-0.042 -1.66816,-0.0162 -1.5875,0.55178 0.0767,0.53983 0.27118,0.61144 2.06899,0.76166 2.51621,0.21025 4.02673,0.62256 4.5995,1.25547 0.69477,0.7677 0.83205,2.22901 0.29485,3.13842 -0.57406,0.97181 -1.22084,1.37871 -2.90401,1.82698 -1.61957,0.43133 -2.7837,0.42213 -4.44641,-0.0351 z m 4.93116,-1.98005 c 0.52674,-0.50754 0.42084,-1.44078 -0.1901,-1.67522 -0.18738,-0.0719 -1.11514,-0.21367 -2.06168,-0.31504 -1.42181,-0.15226 -1.79779,-0.1075 -2.16277,0.25749 -0.86816,0.86815 -0.28205,2.06199 1.14571,2.3337 1.09049,0.20753 2.74558,-0.0967 3.26884,-0.60093 z m -1.46083,-7.34805 c 0.51918,-0.44213 0.66805,-1.19702 0.60005,-3.04271 -0.0293,-0.79466 -0.85187,-1.78594 -1.48202,-1.78594 -1.69712,0 -2.23516,4.14779 -0.64301,4.95704 0.83274,0.42326 0.88205,0.41911 1.52498,-0.12839 z m -10.16684,4.42201 c -0.50219,-0.50218 -0.59185,-0.51131 -1.31557,-0.13392 -1.88039,0.98057 -4.02185,0.15567 -4.93092,-1.89941 -0.45944,-1.03865 -0.52122,-1.56166 -0.38822,-3.28635 0.19467,-2.52447 0.60846,-3.55818 1.86646,-4.66272 0.83513,-0.73325 1.17442,-0.85576 2.37009,-0.85576 0.8164,0 1.60855,0.16101 1.90902,0.38803 0.33789,0.25528 0.81769,0.33387 1.40246,0.22971 0.60955,-0.10858 0.96164,-0.0434 1.12043,0.20728 0.12736,0.20108 0.23338,2.22626 0.23561,4.5004 0.003,3.34903 0.0795,4.19738 0.40093,4.46416 0.51977,0.43137 0.50775,1.22376 -0.0216,1.4269 -0.8639,0.33151 -2.11794,0.15239 -2.64865,-0.37832 z m -1.04305,-1.9414 c 0.75703,-0.75703 1.07251,-2.51068 0.83133,-4.62116 -0.21229,-1.85766 -0.86393,-2.82039 -1.90905,-2.82039 -1.1436,0 -1.7927,1.48279 -1.91114,4.36575 -0.0816,1.98625 -0.0255,2.33411 0.47983,2.97657 0.7125,0.90579 1.66481,0.94346 2.50903,0.0992 z m 17.09909,2.23635 c -0.31682,-0.20057 -0.30693,-0.37422 0.0661,-1.16041 0.33681,-0.70979 0.43872,-1.7029 0.43872,-4.27539 0,-1.87288 -0.1248,-3.58404 -0.28294,-3.87953 -0.36707,-0.68588 0.0372,-1.1926 1.14584,-1.43609 0.66349,-0.14573 0.91846,-0.0677 1.2938,0.3958 l 0.46747,0.57729 0.8061,-0.59598 c 1.09773,-0.81158 3.04523,-0.81769 4.17518,-0.0131 1.04618,0.74495 1.39039,2.24503 1.39039,6.0595 0,2.14751 0.0952,2.9156 0.40355,3.25633 0.6347,0.70135 -0.12538,1.12873 -2.05994,1.15828 -1.38248,0.0211 -1.65027,-0.0496 -1.73242,-0.45773 -0.0534,-0.26549 0.10205,-0.70284 0.34553,-0.97188 0.6758,-0.74675 0.487,-6.58112 -0.23888,-7.38201 -1.22535,-1.35198 -2.90852,-0.2036 -3.20737,2.18829 -0.29159,2.33376 -0.0509,4.93319 0.48449,5.23282 0.56533,0.31638 0.58407,1.17466 0.0303,1.38717 -0.63314,0.24296 -3.1027,0.18457 -3.52594,-0.0834 z m 14.09893,-0.4007 c -0.45415,-0.19766 -1.16853,-0.80867 -1.5875,-1.3578 -0.67327,-0.88243 -0.7727,-1.25685 -0.85592,-3.22293 -0.11289,-2.66729 0.35795,-4.16021 1.67743,-5.31873 2.35337,-2.06629 6.21522,-0.87768 7.04262,2.16759 0.37152,1.36739 0.15494,4.61305 -0.37594,5.63374 -1.12132,2.1559 -3.67865,3.06522 -5.90069,2.09813 z m 3.17179,-1.69769 c 0.75508,-0.83435 1.10697,-3.19707 0.75668,-5.08066 -0.48191,-2.59132 -1.66408,-3.44905 -2.96318,-2.14994 -0.57758,0.57757 -0.74974,1.05446 -0.89599,2.48195 -0.23067,2.25147 0.0176,3.88744 0.70465,4.64362 0.65784,0.72402 1.79268,0.77373 2.39784,0.10503 z m -3.36029,-10.79861 c -0.39107,-0.39106 -0.10468,-0.99021 1.44363,-3.02017 1.38081,-1.81034 1.72195,-2.11208 2.31024,-2.0434 0.47245,0.0552 0.76851,0.30457 0.93838,0.79054 0.20618,0.58981 0.12583,0.87035 -0.47481,1.65783 -0.72161,0.94609 -3.20131,2.79159 -3.75089,2.79159 -0.15959,0 -0.36954,-0.0794 -0.46655,-0.17639 z m -43.7277,-3.9908 c 0.22267,-5.1446 0.45066,-8.0654 0.61662,-7.89944 0.13395,0.13395 0.0948,5.51332 -0.0493,6.77496 -0.0416,0.36381 -0.0908,1.64373 -0.10932,2.84427 -0.0219,1.41569 -0.13799,2.18282 -0.33033,2.18282 -0.21327,0 -0.24913,-1.09618 -0.12766,-3.90261 z m -3.64896,17.70394 c -0.10342,-16.66564 -0.24953,-30.40065 -0.32467,-30.52224 -0.0751,-0.12158 -0.24746,-0.15256 -0.38293,-0.0688 -0.14968,0.0925 -0.2463,12.00879 -0.2463,30.37849 0,30.39557 0.0232,31.20521 0.87792,30.67695 0.17495,-0.10813 0.20059,-10.38707 0.076,-30.46436 z m 49.79379,-31.12333 c 0.28617,-0.28617 -0.11544,-0.34362 -1.46904,-0.21015 -0.76399,0.0753 -1.38906,0.25747 -1.38906,0.40475 0,0.26773 2.5708,0.0927 2.8581,-0.1946 z m -0.0538,-3.40384 c 0.0757,-2.42108 0.12736,-2.82208 0.36328,-2.82208 0.14146,0 0.46427,0.68461 0.71736,1.52135 0.56537,1.86919 0.75718,1.16985 0.3944,-1.43798 -0.42156,-3.03032 -2.06868,-6.68748 -4.4023,-9.77453 -0.14037,-0.18569 -0.163,-0.42984 -0.0503,-0.54256 0.46626,-0.46626 3.34953,3.6657 4.29096,6.1493 0.27234,0.71846 0.86837,2.0802 1.32453,3.02609 0.45615,0.94588 0.97948,2.35129 1.16295,3.12313 0.54032,2.27305 0.60697,1.39192 0.14656,-1.93741 -0.23572,-1.70455 -0.37082,-3.15696 -0.30021,-3.22756 0.16892,-0.16893 1.72591,2.92624 2.1555,4.28498 0.31456,0.99491 0.33815,1.01372 0.36261,0.28918 0.0543,-1.60914 -1.58051,-5.82523 -3.19448,-8.23831 -2.246,-3.35806 -7.4059,-7.2586 -9.60217,-7.2586 -0.80106,0 -2.72537,0.8646 -3.58136,1.60912 -0.63325,0.55079 -0.6401,0.58797 -0.16058,0.87216 1.10782,0.65655 3.90218,3.84584 4.89649,5.58851 0.99252,1.73955 2.13161,5.20207 2.15269,6.54358 0.005,0.3301 0.29598,1.19549 0.64621,1.92309 l 0.63677,1.32292 0.0483,-1.12448 c 0.0266,-0.61846 0.0781,-1.24354 0.11447,-1.38906 0.0364,-0.14552 0.081,-0.56927 0.0992,-0.94166 0.0522,-1.06961 0.44012,-0.54397 0.83237,1.12802 0.19786,0.84338 0.38173,1.62273 0.40861,1.73187 0.0269,0.10914 0.0637,0.33734 0.0819,0.50711 0.0669,0.62412 0.43077,-0.11475 0.45615,-0.92618 z M 84.21108,131.17611 c 1.80498,-2.7113 4.32186,-5.48557 6.22037,-6.85651 0.64029,-0.46236 1.03794,-0.84066 0.88365,-0.84066 -0.99823,0 -5.96393,4.87087 -7.65697,7.51076 -0.66382,1.03507 -1.4295,2.20455 -1.70151,2.59884 -0.27201,0.39429 -0.49456,0.79969 -0.49456,0.9009 0,0.45943 1.20127,-0.98843 2.74902,-3.31333 z m 48.79022,-4.49142 c -0.39579,-0.56507 -3.60289,-3.20934 -3.88182,-3.20058 -0.0906,0.003 0.37107,0.44593 1.02592,0.98462 0.65484,0.53869 1.60734,1.40927 2.11666,1.93463 0.98784,1.01894 1.3533,1.15802 0.73924,0.28133 z m -35.84744,-0.36758 c 0.40856,-0.28306 0.69145,-0.56603 0.62866,-0.62883 -0.17651,-0.17651 -2.03296,0.98504 -2.03296,1.27199 0,0.27287 0.24224,0.16192 1.4043,-0.64316 z m 24.96522,-7.92722 c -1.18521,-1.44639 -1.48409,-2.74559 -1.49222,-6.48648 -0.004,-1.80367 -0.11072,-2.97656 -0.27105,-2.97656 -0.16164,0 -0.26458,1.23164 -0.26458,3.16575 0,3.7441 0.40069,5.23749 1.79368,6.68512 1.26395,1.31354 1.41853,1.05753 0.23417,-0.38783 z M 99.72705,116.8233 c 0.67339,-1.31315 0.78942,-1.88785 0.94814,-4.69635 0.17132,-3.03136 0.15434,-3.20002 -0.32187,-3.19863 -0.46491,0.001 -0.50484,0.24511 -0.53091,3.24115 -0.032,3.67296 -0.32013,4.6375 -1.82091,6.09504 -1.18986,1.15558 -1.18412,1.41212 0.0146,0.65279 0.59383,-0.37616 1.22808,-1.15241 1.71093,-2.094 z m 16.8639,0.81631 c 0.44661,-0.15569 0.85133,-0.42358 0.89938,-0.59531 0.0481,-0.17173 0.0511,-1.95559 0.007,-3.96413 -0.0868,-3.93193 -0.16099,-4.11788 -1.50745,-3.77994 l -0.66087,0.16587 v 4.22829 c 0,2.32556 0.10129,4.22829 0.2251,4.22829 0.12381,0 0.59051,-0.12738 1.03712,-0.28307 z m -11.60735,-4.67787 c -0.0201,-1.16106 -0.0765,-1.3647 -0.2382,-0.85989 -0.30768,0.96072 -0.30768,2.38125 0,2.38125 0.14877,0 0.25303,-0.66593 0.2382,-1.52136 z m 12.41637,-15.3588 c 0.0552,-4.995376 -0.005,-7.761989 -0.16571,-7.5938 -0.14048,0.147165 -0.32993,3.7854 -0.42688,8.198143 -0.14199,6.462377 -0.11126,7.870557 0.16571,7.593797 0.25759,-0.2574 0.36107,-2.24461 0.42688,-8.19814 z m -1.88173,6.09839 c -0.0606,-0.40018 -0.11023,-0.0728 -0.11023,0.7276 0,0.80037 0.0496,1.12779 0.11023,0.72761 0.0606,-0.40019 0.0606,-1.05503 0,-1.45521 z m 0.25371,-9.994071 c 0.1079,-3.812155 0.068,-5.173472 -0.1477,-5.040159 -0.20138,0.124464 -0.29552,1.835215 -0.29552,5.370502 0,2.853322 0.0665,5.121393 0.1477,5.040159 0.0812,-0.08123 0.21422,-2.49796 0.29552,-5.370502 z m 2.87116,-5.631306 c -0.35351,-0.353507 -0.39056,0.404207 -0.20561,4.204278 l 0.19852,4.078909 0.0732,-4.071902 c 0.0403,-2.239546 0.0105,-4.134625 -0.0661,-4.211285 z m -1.26386,-3.415697 c -0.40018,-0.06062 -1.05503,-0.06062 -1.45521,0 -0.40018,0.06062 -0.0728,0.110223 0.72761,0.110223 0.80036,0 1.12778,-0.0496 0.7276,-0.110223 z m 3.37344,-0.339658 c 1.10029,-0.279977 0.0173,-0.292403 -1.32292,-0.01518 -0.88983,0.184055 -0.93195,0.218769 -0.26458,0.218032 0.43656,-4.83e-4 1.15093,-0.09177 1.5875,-0.202853 z m -5.17273,-1.604622 c 3.12135,-0.15414 5.85979,-0.397931 6.08542,-0.541757 0.27837,-0.177452 -0.18506,-0.203447 -1.44186,-0.08088 -1.01865,0.09934 -6.13833,0.18387 -11.37708,0.187836 -9.88768,0.0075 -10.43271,0.0544 -4.89479,0.42135 4.83116,0.320117 5.40479,0.320781 11.62831,0.01345 z m 3.13881,-9.735589 c -0.0137,-1.57413 0.0824,-2.274914 0.33324,-2.429938 0.19387,-0.119818 0.43925,-0.164234 0.54528,-0.0987 0.10604,0.06553 0.26758,-0.0019 0.35898,-0.14975 0.10145,-0.164147 -0.22641,-0.269036 -0.84161,-0.269252 l -1.00781,-3.52e-4 0.1102,4.432123 c 0.0964,3.878121 0.13587,4.200619 0.31558,2.580041 0.11296,-1.018646 0.19672,-2.847523 0.18614,-4.06417 z"
       id="path2" /></g></svg>
