<?xml version="1.0" encoding="UTF-8" standalone="no"?>
<!-- Created with Inkscape (http://www.inkscape.org/) -->

<svg
   width="131.56168mm"
   height="13.092079mm"
   viewBox="0 0 131.56168 13.092079"
   version="1.1"
   id="svg1"
   xml:space="preserve"
   xmlns="http://www.w3.org/2000/svg"
   xmlns:svg="http://www.w3.org/2000/svg"><defs
     id="defs1"><style
       id="style1">.n{fill:#676e44;}</style></defs><g
     id="layer1"
     transform="translate(-34.986158,-128.44445)"><g
       id="g2"
       transform="matrix(0.09463098,0,0,0.09463098,34.668201,90.960064)"><g
         id="a" /><g
         id="b" /><g
         id="c" /><g
         id="d" /><g
         id="e" /><g
         id="f" /><g
         id="g" /><g
         id="h" /><g
         id="i" /><g
         id="j" /><g
         id="k"><g
           id="g13"
           style="fill:#22372b;fill-opacity:1"><g
             id="g10"
             style="fill:#22372b;fill-opacity:1"><path
               class="n"
               d="m 3.37,530.69 c 6.05,-2.12 7.84,-5.23 10.13,-10.95 l 32.84,-81.21 c 1.47,-3.59 3.76,-11.93 3.76,-11.93 h 8.5 c 0,0 2.12,8.33 3.43,11.93 l 30.39,81.21 c 2.29,6.05 4.58,9.31 10.62,10.95 v 2.12 c -2.45,0 -12.09,-0.33 -14.54,-0.33 -2.45,0 -11.76,0.33 -14.21,0.33 v -2.12 c 4.41,-1.47 5.39,-3.92 4.9,-6.86 -0.16,-1.31 -1.47,-5.07 -1.96,-6.21 L 71.02,501.77 H 29.35 l -5.56,13.56 c -0.65,1.47 -2.29,7.19 -2.45,8.01 -0.65,3.43 1.31,5.88 5.88,7.35 v 2.12 c -1.96,0 -8.82,-0.33 -10.95,-0.33 -2.13,0 -10.29,0.33 -12.91,0.33 v -2.12 z M 68.56,494.74 50.91,448.17 32.12,494.74 Z"
               id="path1"
               style="fill:#22372b;fill-opacity:1" /><path
               class="n"
               d="m 155.32,530.69 c 5.23,-1.47 8.66,-3.43 8.66,-8.82 v -80.88 c 0,-5.88 -2.12,-9.97 -6.37,-11.27 v -2.12 c 2.45,0 4.9,0.33 7.51,0.33 2.45,0 4.41,-0.33 7.03,-0.33 l 70.75,84.31 v -73.36 c 0,-5.23 -3.1,-7.68 -8.5,-8.82 v -2.12 c 1.14,0 9.31,0.33 12.09,0.33 2.45,0 10.78,-0.33 12.09,-0.33 v 2.12 c -5.23,1.47 -8.66,3.43 -8.66,8.82 v 95.91 h -2.94 c 0,0 -8.82,-7.03 -12.91,-11.93 L 171,447.37 v 74.51 c 0,5.23 3.11,7.68 8.5,8.82 v 2.12 c -1.14,0 -9.31,-0.33 -12.09,-0.33 -2.45,0 -10.79,0.33 -12.09,0.33 v -2.12 z"
               id="path2"
               style="fill:#22372b;fill-opacity:1" /><path
               class="n"
               d="m 317.4,530.69 c 5.23,-1.47 8.66,-3.43 8.66,-8.82 v -80.88 c 0,-5.88 -2.12,-9.97 -6.37,-11.27 v -2.12 c 2.45,0 4.9,0.33 7.52,0.33 2.45,0 4.41,-0.33 7.03,-0.33 l 70.75,84.31 v -73.36 c 0,-5.23 -3.11,-7.68 -8.5,-8.82 v -2.12 c 1.14,0 9.31,0.33 12.09,0.33 2.45,0 10.79,-0.33 12.09,-0.33 v 2.12 c -5.23,1.47 -8.66,3.43 -8.66,8.82 v 95.91 h -2.94 c 0,0 -8.82,-7.03 -12.91,-11.93 l -63.07,-75.16 v 74.51 c 0,5.23 3.1,7.68 8.5,8.82 v 2.12 c -1.14,0 -9.31,-0.33 -12.09,-0.33 -2.45,0 -10.78,0.33 -12.09,0.33 v -2.12 z"
               id="path3"
               style="fill:#22372b;fill-opacity:1" /><path
               class="n"
               d="m 471.31,530.69 c 6.05,-2.12 7.84,-5.23 10.13,-10.95 l 32.84,-81.21 c 1.47,-3.59 3.76,-11.93 3.76,-11.93 h 8.5 c 0,0 2.12,8.33 3.43,11.93 l 30.39,81.21 c 2.29,6.05 4.58,9.31 10.62,10.95 v 2.12 c -2.45,0 -12.09,-0.33 -14.54,-0.33 -2.45,0 -11.76,0.33 -14.21,0.33 v -2.12 c 4.41,-1.47 5.39,-3.92 4.9,-6.86 -0.16,-1.31 -1.47,-5.07 -1.96,-6.21 l -6.21,-15.85 h -41.67 l -5.56,13.56 c -0.65,1.47 -2.29,7.19 -2.45,8.01 -0.65,3.43 1.31,5.88 5.88,7.35 v 2.12 c -1.96,0 -8.82,-0.33 -10.95,-0.33 -2.13,0 -10.29,0.33 -12.91,0.33 v -2.12 z m 65.19,-35.95 -17.65,-46.57 -18.79,46.57 z"
               id="path4"
               style="fill:#22372b;fill-opacity:1" /><path
               class="n"
               d="m 639.6,426.93 c 0,0 -6.86,9.64 -7.03,18.14 2.61,1.47 4.41,4.9 4.41,8.66 0,5.23 -3.27,9.15 -7.52,9.15 -4.41,-0.16 -7.84,-3.76 -7.84,-9.15 0,-12.09 14.38,-28.92 14.38,-28.92 z"
               id="path5"
               style="fill:#22372b;fill-opacity:1" /><path
               class="n"
               d="m 700.05,511.41 h 2.12 c 1.14,4.58 4.25,9.48 7.68,11.76 4.9,3.27 12.75,4.74 18.46,4.74 12.58,0 22.71,-4.74 22.71,-17.97 0,-5.88 -1.47,-11.44 -6.54,-14.87 -8.5,-5.88 -20.42,-9.97 -31.04,-15.36 -8.82,-4.41 -15.85,-10.95 -15.85,-24.35 0,-20.42 16.83,-29.41 36.93,-29.41 8.17,0 17.48,2.29 25.65,1.96 l 0.82,19.44 h -2.12 c -1.31,-4.08 -4.58,-8.01 -8.01,-10.29 -4.9,-3.1 -11.76,-4.58 -17.65,-4.58 -12.58,0 -22.06,6.54 -22.06,17.48 0,8.82 4.25,14.05 10.13,17.48 9.48,5.56 22.22,9.97 31.7,15.85 6.86,4.25 11.44,10.29 11.44,20.42 0,19.44 -14.54,30.72 -35.29,30.72 -9.64,0 -18.63,-2.12 -28.43,-4.9 l -0.65,-18.14 z"
               id="path6"
               style="fill:#22372b;fill-opacity:1" /><path
               class="n"
               d="m 994.14,512.06 -0.98,16.99 c -0.33,-0.16 -2.78,0.16 -7.35,1.14 -4.25,0.98 -15.85,4.25 -26.96,4.25 -35.78,0 -54.74,-24.02 -54.74,-54.25 0,-30.23 21.08,-54.25 54.74,-54.25 9.97,0 21.08,3.27 25.33,4.25 4.58,0.98 6.86,1.14 7.35,1.14 l 0.98,16.99 h -2.12 c -2.29,-4.58 -5.88,-8.17 -9.97,-10.62 -5.72,-3.43 -13.73,-5.23 -21.57,-5.23 -25.16,0 -39.87,21.08 -39.87,47.71 0,21.73 14.05,47.71 39.87,47.71 9.8,0 17.48,-1.8 23.2,-5.23 4.08,-2.45 7.68,-6.05 9.97,-10.62 h 2.12 z"
               id="path7"
               style="fill:#22372b;fill-opacity:1" /><path
               class="n"
               d="m 1046.42,530.69 c 6.05,-2.12 7.84,-5.23 10.13,-10.95 l 32.84,-81.21 c 1.47,-3.59 3.76,-11.93 3.76,-11.93 h 8.5 c 0,0 2.12,8.33 3.43,11.93 l 30.39,81.21 c 2.29,6.05 4.58,9.31 10.62,10.95 v 2.12 c -2.45,0 -12.09,-0.33 -14.54,-0.33 -2.45,0 -11.76,0.33 -14.21,0.33 v -2.12 c 4.41,-1.47 5.39,-3.92 4.9,-6.86 -0.16,-1.31 -1.47,-5.07 -1.96,-6.21 l -6.21,-15.85 h -41.67 l -5.56,13.56 c -0.65,1.47 -2.29,7.19 -2.45,8.01 -0.65,3.43 1.31,5.88 5.88,7.35 v 2.12 c -1.96,0 -8.82,-0.33 -10.95,-0.33 -2.13,0 -10.29,0.33 -12.91,0.33 v -2.12 z m 65.19,-35.95 -17.65,-46.57 -18.79,46.57 z"
               id="path8"
               style="fill:#22372b;fill-opacity:1" /><path
               class="n"
               d="m 1198.37,530.69 c 5.06,-0.98 7.84,-5.07 7.84,-9.31 v -82.84 c 0,-4.08 -2.94,-7.68 -7.84,-8.82 v -2.12 h 45.1 c 9.48,0 16.34,-0.49 21.89,-0.82 l -0.33,18.3 h -2.12 c -2.12,-6.54 -7.03,-10.46 -15.52,-10.46 h -27.61 v 40.52 h 25 c 4.58,0 7.19,-1.8 9.31,-5.72 h 2.12 c -0.16,1.63 -0.16,7.03 -0.16,8.99 0,1.8 0.33,7.35 0.33,9.15 h -2.12 c -2.12,-3.76 -4.9,-5.72 -9.48,-5.72 h -25 v 40.03 c 0,4.08 2.12,7.52 10.78,8.82 v 2.12 c -1.96,0 -13.56,-0.33 -16.34,-0.33 -2.45,0 -13.73,0.33 -15.85,0.33 z"
               id="path9"
               style="fill:#22372b;fill-opacity:1" /><path
               class="n"
               d="m 1320.91,530.69 c 5.06,-0.98 7.84,-5.07 7.84,-9.31 v -82.84 c 0,-4.08 -2.94,-7.68 -7.84,-8.82 v -2.12 h 61.93 c 1.8,0 4.58,-0.33 6.37,-1.31 h 2.12 l -0.33,18.79 h -2.12 c -2.12,-6.54 -7.03,-10.46 -15.52,-10.46 h -31.04 v 39.7 h 27.61 c 4.58,0 7.19,-1.47 9.31,-5.39 h 2.12 c -0.16,1.63 -0.16,6.7 -0.16,8.66 0,1.8 0.16,7.03 0.16,8.82 h -2.12 c -2.12,-3.76 -4.74,-5.39 -9.31,-5.39 h -27.61 v 44.44 h 30.72 c 10.46,0 15.52,-3.27 18.46,-9.8 l 2.12,0.49 -2.45,17.16 c -8.33,-0.82 -13.89,-0.82 -24.34,-0.82 h -31.04 c -2.78,0 -12.74,0.33 -14.87,0.33 v -2.12 z m 26.8,-112.09 c 0,0 18.95,-18.46 23.36,-21.73 1.96,-1.47 4.9,-0.65 7.35,1.14 0.98,2.78 1.14,6.05 -0.82,7.52 -4.41,3.27 -25.16,15.36 -25.16,15.36 l -4.74,-2.29 z"
               id="path10"
               style="fill:#22372b;fill-opacity:1" /></g><g
             id="g12"
             style="fill:#22372b;fill-opacity:1" /></g></g><g
         id="l" /><g
         id="m" /></g></g></svg>
