<svg xmlns="http://www.w3.org/2000/svg" xmlns:xlink="http://www.w3.org/1999/xlink" width="1379" zoomAndPan="magnify" viewBox="0 0 1034.25 809.999993" height="1080" preserveAspectRatio="xMidYMid meet" version="1.0"><defs><clipPath id="2ae701ea6a"><path d="M 0 51 L 1033.5 51 L 1033.5 809.707031 L 0 809.707031 Z M 0 51 " clip-rule="nonzero"/></clipPath><clipPath id="7af263123d"><path d="M 8 804 L 258 804 L 258 809.707031 L 8 809.707031 Z M 8 804 " clip-rule="nonzero"/></clipPath><clipPath id="b329e67ebd"><path d="M 8 603 L 14 603 L 14 809.707031 L 8 809.707031 Z M 8 603 " clip-rule="nonzero"/></clipPath></defs><g clip-path="url(#2ae701ea6a)"><path stroke-linecap="butt" transform="matrix(-0.611175, 0.433762, -0.433762, -0.611175, 1035.014283, 83.375299)" fill="none" stroke-linejoin="miter" d="M -0.00137425 3.501986 L 1673.304385 3.502482 " stroke="#000000" stroke-width="7" stroke-opacity="1" stroke-miterlimit="4"/></g><g clip-path="url(#7af263123d)"><path stroke-linecap="butt" transform="matrix(-0.749456, -0.00000000130805, 0.00000000130805, -0.749456, 255.293689, 809.6736)" fill="none" stroke-linejoin="miter" d="M 0.000960471 3.499628 L 326.211317 3.499628 " stroke="#000000" stroke-width="7" stroke-opacity="1" stroke-miterlimit="4"/></g><g clip-path="url(#b329e67ebd)"><path stroke-linecap="butt" transform="matrix(0, -0.749456, 0.749456, 0, 8.194087, 809.675231)" fill="none" stroke-linejoin="miter" d="M -0.00073396 3.498961 L 271.25313 3.498961 " stroke="#000000" stroke-width="7" stroke-opacity="1" stroke-miterlimit="4"/></g></svg>