<?xml version="1.0" encoding="UTF-8" standalone="no"?>
<!-- Created with Inkscape (http://www.inkscape.org/) -->

<svg
   width="178.08174mm"
   height="174.74001mm"
   viewBox="0 0 178.08174 174.74001"
   version="1.1"
   id="svg1"
   xml:space="preserve"
   xmlns="http://www.w3.org/2000/svg"
   xmlns:svg="http://www.w3.org/2000/svg"><defs
     id="defs1" /><g
     id="layer1"
     transform="translate(-9.3205189,-36.832391)"><path
       style="fill:#22372b;fill-opacity:1"
       d="m 103.29514,211.52911 c -0.0521,-0.0521 -2.23257,-0.17031 -4.84553,-0.26273 -2.61296,-0.0924 -4.86991,-0.24593 -5.01543,-0.34112 -0.14552,-0.0952 -1.33614,-0.25501 -2.64583,-0.35513 -1.30969,-0.10012 -3.57188,-0.37345 -5.02708,-0.60739 -1.45521,-0.23394 -3.47928,-0.53671 -4.49792,-0.67282 -2.93586,-0.39228 -4.38445,-0.7014 -6.06034,-1.29326 -0.85934,-0.30348 -1.88659,-0.55178 -2.28279,-0.55178 -0.63583,0 -1.39457,-0.23923 -3.29854,-1.04003 -0.29104,-0.12241 -1.06495,-0.37063 -1.71979,-0.55159 -1.31269,-0.36275 -3.27925,-0.995 -4.10104,-1.31848 -2.58873,-1.01903 -11.25426,-5.31637 -12.56771,-6.23248 -0.65484,-0.45674 -1.54781,-1.01105 -1.98437,-1.2318 -1.60342,-0.81075 -2.33228,-1.23783 -2.4872,-1.45737 -0.2091,-0.29633 -3.64569,-2.72033 -3.8567,-2.72033 -0.09,0 -0.42587,-0.27869 -0.74634,-0.6193 -0.5757,-0.61188 -2.30858,-1.9344 -4.20406,-3.2085 -1.13113,-0.76033 -4.57271,-4.15345 -6.3005,-6.21181 -0.65484,-0.78013 -1.54436,-1.78716 -1.9767,-2.23784 -0.43234,-0.45068 -1.3709,-1.59333 -2.08568,-2.53922 -0.71478,-0.94588 -1.38723,-1.77932 -1.49433,-1.85208 -0.1071,-0.0728 -0.53776,-0.77337 -0.95702,-1.55691 -0.41927,-0.78354 -0.91635,-1.67651 -1.10463,-1.98438 -0.18828,-0.30786 -0.63237,-1.036 -0.98686,-1.61809 -1.28927,-2.117 -4.88853,-9.65059 -4.88853,-10.23216 0,-0.13444 -0.23812,-0.7373 -0.52916,-1.33969 -0.29104,-0.60239 -0.5299,-1.28124 -0.5308,-1.50857 -9e-4,-0.22733 -0.17949,-0.75436 -0.39687,-1.17117 -0.21739,-0.41682 -0.39525,-1.09781 -0.39525,-1.51331 0,-0.4155 -0.2353,-1.17439 -0.52288,-1.68641 -0.48956,-0.87161 -0.95705,-2.84695 -1.255,-5.30286 -0.0706,-0.58208 -0.23527,-1.17144 -0.36589,-1.30968 -0.13061,-0.13825 -0.24266,-0.85262 -0.249,-1.5875 -0.006,-0.73488 -0.13128,-1.87193 -0.27764,-2.52678 -0.52196,-2.33528 -0.82135,-5.21535 -0.93516,-8.99583 -0.0799,-2.65229 -0.24091,-4.12229 -0.52181,-4.7625 -0.22348,-0.50932 -0.53113,-1.2237 -0.68368,-1.5875 -0.15254,-0.3638 -0.3829,-0.84005 -0.5119,-1.05833 -0.129,-0.21828 -0.36102,-0.69275 -0.51559,-1.05436 -0.15458,-0.36162 -0.46595,-1.04715 -0.6919502,-1.5234 -0.80583,-1.69816 -0.49857,-6.76845 0.5478902,-9.04109 0.41817,-0.90816 2.52493,-3.19782 2.94237,-3.19782 0.19267,0 0.39,-0.10733 0.4385,-0.2385 0.10876,-0.2941 5.6941,-2.9365 6.207,-2.9365 0.20387,0 0.57741,-0.10917 0.8301,-0.2426 0.41972,-0.22163 1.90217,-0.65736 4.69277,-1.37933 2.43261,-0.62936 2.97069,-0.74508 4.1773,-0.89839 0.69679,-0.0885 1.67353,-0.33087 2.17053,-0.53853 0.98769,-0.41269 0.90574,-0.16189 1.46458,-4.48177 0.16943,-1.309692 0.4054,-2.61938 0.52439,-2.910421 0.11898,-0.291042 0.41633,-1.422136 0.66078,-2.513542 0.78894,-3.522378 1.60708,-6.467745 2.00172,-7.206306 0.13502,-0.252687 0.24549,-0.692871 0.24549,-0.978187 0,-0.285316 0.29765,-1.078571 0.66146,-1.762789 0.3638,-0.684217 0.66145,-1.523955 0.66145,-1.866083 0,-0.342129 0.11907,-0.622052 0.26459,-0.622052 0.14552,0 0.26272,-0.208359 0.26044,-0.463021 -0.004,-0.470112 0.12722,-0.761581 2.77365,-6.151562 2.03547,-4.145645 2.58656,-5.161094 3.12212,-5.752878 0.2521,-0.278574 0.45837,-0.628565 0.45837,-0.777758 0,-0.149194 0.29766,-0.592437 0.66146,-0.984986 0.3638,-0.392549 0.66146,-0.775553 0.66146,-0.851119 0,-0.202715 2.32945,-3.468656 3.5619,-4.993866 1.22569,-1.516834 8.91455,-9.261466 9.98261,-10.055018 0.39172,-0.291042 1.82047,-1.424973 3.175,-2.519848 2.31129,-1.868229 4.51923,-3.433277 4.84361,-3.433277 0.0788,0 0.61474,-0.297657 1.19104,-0.661459 0.5763,-0.363802 1.21033,-0.661458 1.40895,-0.661458 0.19862,0 0.5507,-0.20836 0.7824,-0.463021 0.2317,-0.254661 0.8157,-0.656424 1.29778,-0.892805 0.48207,-0.236381 1.51256,-0.742397 2.28998,-1.124479 0.77741,-0.382082 1.52905,-0.694695 1.6703,-0.694695 0.22696,0 2.46612,-0.971705 3.72565,-1.616782 0.25269,-0.129416 0.66045,-0.235302 0.90615,-0.235302 0.2457,0 1.28911,-0.282144 2.31869,-0.626987 1.02959,-0.344844 2.46729,-0.76859 3.1949,-0.94166 0.7276,-0.17307 1.75396,-0.426861 2.2808,-0.56398 1.58739,-0.413153 3.6986,-0.811701 5.6567,-1.06786 1.01864,-0.133259 2.56645,-0.350587 3.43958,-0.48295 2.10586,-0.319243 8.71438,-0.322655 12.83229,-0.0066 5.7111,0.438299 10.7893,1.068645 11.32588,1.405857 0.19012,0.119481 0.96403,0.31828 1.71979,0.441776 0.75577,0.123495 1.85037,0.342595 2.43246,0.486888 0.58208,0.144293 1.59411,0.396084 2.24895,0.559536 0.65485,0.163452 1.30374,0.40942 1.44198,0.546596 0.13825,0.137175 0.42442,0.249409 0.63593,0.249409 0.35166,0 2.70026,0.986102 3.80548,1.597806 0.25269,0.139853 0.63733,0.254278 0.85476,0.254278 0.21743,0 1.02272,0.396525 1.78953,0.881167 0.76681,0.484642 2.1681,1.265669 3.11399,1.735615 2.0946,1.040663 3.39387,1.797625 3.8243,2.228057 0.17789,0.17789 1.0264,0.797684 1.88558,1.37732 0.85918,0.579635 2.03929,1.491787 2.62248,2.027003 0.58319,0.535216 1.59613,1.358603 2.25097,1.829748 1.24783,0.897781 2.5069,2.147272 4.49792,4.463686 0.65484,0.761865 1.48956,1.70548 1.85493,2.096921 2.05427,2.200882 5.08551,6.716931 6.74811,10.053573 1.78148,3.575229 2.77404,5.785296 2.77404,6.176755 0,0.221574 0.1786,0.551081 0.39688,0.732238 0.21828,0.181158 0.39687,0.554539 0.39687,0.829737 0,0.275198 0.10684,0.707104 0.23743,0.959791 0.48556,0.939607 1.06112,2.619412 1.38127,4.031306 0.18148,0.800364 0.4273,1.568317 0.54626,1.706562 0.11896,0.138245 0.21629,0.511589 0.21629,0.829652 0,0.318064 0.17786,0.91933 0.39525,1.336146 0.21738,0.416817 0.39598,1.197306 0.39687,1.734421 9e-4,0.537115 0.1207,1.050157 0.26622,1.140094 0.14552,0.08994 0.26458,0.452442 0.26458,0.805568 0,0.353125 0.1177,1.14977 0.26157,1.770322 0.14386,0.620552 0.32546,1.544995 0.40355,2.054318 0.12018,0.783843 0.31362,1.000117 1.25978,1.408443 1.01931,0.439895 1.7848,0.823654 3.221,1.614781 0.28363,0.156238 0.75257,0.492427 1.04208,0.747089 0.28951,0.254661 0.64599,0.463021 0.79218,0.463021 0.47276,0 3.2123,3.089421 3.78987,4.273891 0.61379,1.25873 1.1194,2.98382 1.3237,4.51628 0.17934,1.34529 -0.73638,3.17372 -2.05737,4.10797 -0.56608,0.40035 -1.02995,0.78743 -1.03083,0.86019 -0.005,0.40363 0.60661,0.83701 2.57102,1.82216 2.64381,1.32587 3.13617,1.7204 3.77345,3.02366 0.55765,1.14041 1.20313,5.81986 0.87315,6.32991 -0.11872,0.18351 -0.29776,2.11959 -0.39786,4.3024 -0.21123,4.6063 -0.59146,8.66718 -0.85081,9.08683 -0.0995,0.16097 -0.29107,1.27792 -0.42574,2.48209 -0.33097,2.95953 -0.65383,4.79488 -1.17637,6.68733 -0.24109,0.87312 -0.49996,1.88515 -0.57528,2.24896 -0.0753,0.3638 -0.22825,0.89958 -0.33983,1.19062 -0.11159,0.29104 -0.6587,1.95792 -1.21581,3.70417 -0.55711,1.74625 -1.18336,3.59172 -1.39166,4.10104 -0.20831,0.50932 -0.4982,1.2237 -0.64421,1.5875 -0.146,0.3638 -0.41482,1.01864 -0.59738,1.45521 -0.18256,0.43656 -0.45554,1.0914 -0.60663,1.45521 -0.38052,0.91625 -1.09173,2.43419 -1.36364,2.91041 -0.12463,0.21828 -0.3762,0.75406 -0.55904,1.19063 -0.4379,1.04554 -1.55429,3.23828 -2.15532,4.23333 -0.26369,0.43656 -0.56091,0.97234 -0.66048,1.19063 -0.0996,0.21828 -0.66614,1.16787 -1.25905,2.1102 -1.42147,2.25921 -1.66791,2.67747 -1.97636,3.3542 -0.14279,0.31328 -0.37847,0.64306 -0.52373,0.73284 -0.28526,0.17629 -2.67895,3.52974 -2.67895,3.75307 0,0.42148 -4.40101,5.2819 -8.44542,9.32702 -5.59008,5.59106 -9.19975,8.46374 -15.24048,12.12882 -1.15902,0.70321 -8.5322,4.3126 -8.80969,4.3126 -0.16371,0 -0.97071,0.29765 -1.79333,0.66145 -0.82262,0.36381 -1.71898,0.66146 -1.99192,0.66146 -0.27293,0 -0.49624,0.11907 -0.49624,0.26459 0,0.14552 -0.42455,0.26458 -0.94344,0.26458 -0.51889,0 -1.2035,0.141 -1.52135,0.31334 -0.31786,0.17234 -1.05417,0.3933 -1.63625,0.49102 -1.26923,0.21306 -4.40108,0.9786 -5.68855,1.39047 -0.50932,0.16294 -2.17619,0.3869 -3.70416,0.49769 -1.52797,0.11079 -4.14735,0.3229 -5.82084,0.47136 -3.45876,0.30683 -8.3859,0.53285 -8.52758,0.39118 z m 6.173,-4.91196 c 0.86436,-0.28695 3.94208,-3.01075 3.94208,-3.48877 0,-0.12761 0.26789,-0.60591 0.59532,-1.06289 0.62028,-0.86572 0.73649,-1.06106 1.90064,-3.19492 0.54705,-1.00273 0.6309,-1.34608 0.36836,-1.50835 -0.43167,-0.26678 -8.19183,0.0248 -8.57168,0.3221 -0.25304,0.19804 -0.26837,1.18908 -0.12301,7.95573 0.008,0.36898 0.65826,1.27567 0.915,1.27567 0.0406,0 0.47863,-0.13436 0.97329,-0.29857 z m -7.67428,-1.04237 c 0.85812,-0.61103 0.98035,-1.45706 0.47399,-3.28092 -0.22029,-0.79351 -0.20911,-1.39341 0.0458,-2.45599 0.23927,-0.99739 0.25514,-1.48817 0.0546,-1.68871 -0.29028,-0.29028 -11.54332,-0.4974 -11.99078,-0.2207 -0.22269,0.13771 0.26717,1.92028 0.62642,2.27954 0.0997,0.0997 0.18133,0.40253 0.18133,0.67288 0,0.5579 2.04633,3.91817 2.38607,3.91817 0.12208,0 0.39614,0.17417 0.60901,0.38704 0.24939,0.24939 1.16387,0.43572 2.57129,0.52392 1.20134,0.0753 2.24614,0.19877 2.32179,0.27442 0.34012,0.34012 2.02351,0.0866 2.72048,-0.40965 z m 18.09866,-0.52418 c 0.58208,-0.11688 1.3935,-0.34036 1.80316,-0.49662 0.40965,-0.15625 1.08724,-0.2841 1.50574,-0.2841 0.4185,0 0.82811,-0.10873 0.91024,-0.24163 0.18649,-0.30174 2.78762,-1.61045 3.20086,-1.61045 0.16755,0 0.94785,-0.72656 1.73399,-1.61458 0.78613,-0.88802 1.57137,-1.7657 1.74497,-1.95038 0.81885,-0.87116 1.66874,-2.39438 1.66874,-2.99079 0,-0.65723 -0.0104,-0.66005 -1.78593,-0.48415 -3.21298,0.3183 -6.26593,0.72863 -7.22277,0.97077 -0.7461,0.18882 -1.03529,0.45605 -1.40821,1.30129 -0.25811,0.58502 -0.57974,1.06367 -0.71473,1.06367 -0.13499,0 -0.24544,0.2311 -0.24544,0.51355 0,0.28246 -0.12295,0.58955 -0.27323,0.68242 -0.15027,0.0929 -0.81627,1.10348 -1.48,2.24578 -0.66372,1.1423 -1.37934,2.14314 -1.59026,2.22407 -0.30304,0.11629 -0.32134,0.26331 -0.0872,0.70078 0.20217,0.37776 0.43691,0.49473 0.73901,0.36824 0.2435,-0.10195 0.91898,-0.28099 1.50107,-0.39787 z m -32.50336,-1.18745 c 0.0858,-0.2237 -0.017,-0.61065 -0.22853,-0.85989 -0.21153,-0.24924 -0.58635,-0.8946 -0.83292,-1.43412 -0.24657,-0.53952 -0.54316,-1.03957 -0.65909,-1.11121 -0.11593,-0.0717 -0.36936,-0.61077 -0.56317,-1.19804 -0.51951,-1.57411 -1.11104,-2.02347 -2.1158,-1.60729 -0.53436,0.22134 -0.91068,0.24494 -1.13123,0.071 -0.31655,-0.24974 -3.28641,-0.65042 -5.21913,-0.70414 -1.34564,-0.0374 -1.27441,0.59273 0.19845,1.75546 0.68783,0.543 1.72686,1.41768 2.30894,1.94373 0.58209,0.52604 2.24896,1.53647 3.70417,2.24539 2.73162,1.33073 4.25675,1.6329 4.53831,0.89916 z m -15.25394,-3.2796 c 0,-0.28124 -0.23278,-0.58522 -0.51729,-0.67552 -0.2845,-0.0903 -1.07219,-0.78293 -1.75041,-1.53919 -0.99562,-1.11016 -1.44381,-1.40723 -2.32698,-1.54235 -2.00638,-0.30696 -4.26334,-0.8149 -4.75663,-1.07051 -0.26827,-0.13901 -0.98265,-0.30698 -1.5875,-0.37328 -0.60485,-0.0663 -1.33785,-0.22445 -1.62889,-0.35147 -0.61151,-0.26688 -3.10824,-0.82073 -4.15154,-0.92094 -0.39157,-0.0376 -0.89607,-0.22119 -1.12111,-0.40795 -0.22504,-0.18677 -0.60547,-0.26424 -0.84542,-0.17217 -0.39949,0.1533 -0.39632,0.21155 0.0376,0.69106 0.26064,0.28801 0.74607,0.52365 1.07873,0.52365 0.33266,0 0.68409,0.12823 0.78094,0.28494 0.21239,0.34365 4.49703,2.3609 5.01455,2.3609 0.20108,0 0.43919,0.11906 0.52912,0.26458 0.0899,0.14552 0.42439,0.26837 0.74322,0.273 0.31884,0.005 0.81081,0.18322 1.09329,0.39687 0.28247,0.21366 0.78146,0.38846 1.10886,0.38846 0.3274,0 0.66886,0.11907 0.7588,0.26459 0.0899,0.14552 0.37689,0.26458 0.63767,0.26458 0.26077,0 1.03395,0.29766 1.71817,0.66146 0.68422,0.3638 1.56516,0.66328 1.95764,0.66551 0.39248,0.002 0.8922,0.11947 1.11048,0.26053 0.21828,0.14106 0.78383,0.2583 1.25677,0.26053 0.67491,0.003 0.85989,-0.10595 0.85989,-0.50728 z m 67.24944,-1.68895 c 3.42166,-1.7529 5.26549,-2.86801 6.20534,-3.75284 1.03892,-0.97812 1.63721,-1.40961 3.04364,-2.19509 0.76964,-0.42984 1.44399,-0.91546 1.49855,-1.07915 0.12578,-0.37735 -1.69969,-0.4045 -1.93193,-0.0287 -0.0914,0.1479 -0.25038,0.21687 -0.35328,0.15327 -0.10291,-0.0636 -0.89835,0.0656 -1.76766,0.28712 -0.86931,0.22152 -1.96861,0.46336 -2.4429,0.53743 -0.47429,0.0741 -0.92781,0.24057 -1.00781,0.37002 -0.08,0.12944 -0.49574,0.23535 -0.92388,0.23535 -0.85527,0 -2.17513,1.19017 -3.9611,3.57187 -0.54561,0.72761 -1.2432,1.58583 -1.55021,1.90717 -0.56282,0.58909 -0.76602,1.66471 -0.31449,1.66471 0.13405,0 1.71162,-0.75201 3.50573,-1.67112 z m -37.29945,-5.80336 c 0.35033,-0.27732 0.43993,-1.28141 0.55487,-6.21771 0.0754,-3.23784 0.1185,-5.90344 0.0958,-5.92356 -0.075,-0.0665 -10.83612,-0.51608 -13.66731,-0.571 l -2.77813,-0.0539 -0.0786,1.80029 c -0.0627,1.43746 0.0572,2.13977 0.59531,3.48471 0.37063,0.92643 0.67388,2.08678 0.67388,2.57856 0,0.49178 0.0973,1.00726 0.21629,1.1455 0.11896,0.13825 0.3726,0.9062 0.56363,1.70657 0.61817,2.58988 -0.005,2.38125 7.11632,2.38125 4.63288,0 6.40019,-0.0871 6.70791,-0.33073 z m -18.80929,-0.93392 c -0.55722,-1.09772 -0.79641,-1.85916 -0.95138,-3.02867 -0.0911,-0.68783 -0.27791,-1.31993 -0.41502,-1.40467 -0.13711,-0.0847 -0.2493,-0.91393 -0.2493,-1.84264 0,-0.92871 -0.11906,-1.76215 -0.26458,-1.85208 -0.14552,-0.0899 -0.26458,-0.74621 -0.26458,-1.45838 0,-1.03997 -0.27348,-2.17928 -0.68544,-2.85561 -0.027,-0.0444 -1.46143,-0.14189 -3.18758,-0.21673 -1.72614,-0.0748 -3.4361,-0.23478 -3.7999,-0.35542 -0.3638,-0.12064 -1.55443,-0.35488 -2.64583,-0.52053 -1.09141,-0.16565 -2.48655,-0.41441 -3.10031,-0.55281 -0.72636,-0.16378 -1.36029,-0.15873 -1.81586,0.0145 -0.59619,0.22667 -0.67351,0.37323 -0.52168,0.98889 0.098,0.39752 0.24408,1.0502 0.32454,1.45038 0.0805,0.40018 0.23795,0.7276 0.34999,0.7276 0.11204,0 0.26743,0.26789 0.3453,0.59531 0.26818,1.12751 0.90004,2.62548 1.30885,3.10294 0.22535,0.26319 0.49772,0.75914 0.60527,1.10212 0.39059,1.24556 1.50781,3.49066 1.99991,4.01886 0.27719,0.29753 0.50399,0.6874 0.50399,0.86638 0,0.76302 1.69014,1.37995 4.23333,1.54523 1.38245,0.0898 3.64464,0.25175 5.02708,0.35979 2.76608,0.21617 3.57285,0.0438 3.2032,-0.68444 z m 31.96883,0.44909 c 0.79072,-0.13353 1.87383,-0.24278 2.40692,-0.24278 1.04473,0 2.10855,-0.70941 2.10855,-1.40609 0,-0.2299 0.29766,-0.9778 0.66146,-1.66202 0.3638,-0.68422 0.66146,-1.46604 0.66146,-1.73738 0,-0.27135 0.10905,-0.7001 0.24234,-0.95279 0.70719,-1.34069 1.08058,-2.49068 1.08058,-3.32807 0,-0.51512 0.11906,-1.01017 0.26458,-1.10011 0.43405,-0.26825 0.29993,-1.14419 -0.19844,-1.29601 -0.78418,-0.23889 -13.9023,0.0774 -14.16646,0.34154 -0.43619,0.43619 -0.9603,8.46465 -0.74896,11.47283 0.0298,0.42383 0.30287,0.45069 3.14146,0.30892 1.70987,-0.0854 3.7558,-0.26451 4.54651,-0.39804 z m -50.17921,-1.19879 c 0.0892,-0.0892 -0.31987,-1.13104 -0.90915,-2.3151 -0.58927,-1.18407 -1.29729,-2.61058 -1.57337,-3.17004 -0.27608,-0.55945 -0.50196,-1.23045 -0.50196,-1.49111 0,-0.26065 -0.17786,-0.81495 -0.39525,-1.23176 -0.21738,-0.41682 -0.39598,-0.95919 -0.39687,-1.20526 -9e-4,-0.24607 -0.1207,-0.52099 -0.26622,-0.61093 -0.14552,-0.0899 -0.26458,-0.50665 -0.26458,-0.92604 0,-0.41938 -0.103,-0.82617 -0.22888,-0.90397 -0.12588,-0.0778 -0.29271,-0.61735 -0.37073,-1.19899 -0.22119,-1.6491 -0.7385,-1.96016 -3.76601,-2.26453 -2.11358,-0.21248 -7.5409,-1.41887 -8.99584,-1.99959 -0.29104,-0.11617 -1.09471,-0.28621 -1.78594,-0.37786 l -1.25677,-0.16665 v 0.79435 c 0,0.43689 0.10591,0.8598 0.23535,0.9398 0.12945,0.08 0.29339,0.53351 0.36432,1.0078 0.19206,1.2842 0.96228,3.93096 1.39846,4.8056 0.21072,0.42254 0.38312,0.98106 0.38312,1.24116 0,0.2601 0.11907,0.54649 0.26459,0.63642 0.14552,0.0899 0.26458,0.38101 0.26458,0.64683 0,0.26582 0.17786,0.82434 0.39525,1.24116 0.21738,0.41682 0.39597,1.07824 0.39687,1.46984 9e-4,0.39159 0.12069,0.78557 0.26621,0.87551 0.14552,0.0899 0.26459,0.36548 0.26459,0.61233 0,0.58247 1.51221,1.11855 3.55828,1.26141 0.86565,0.0605 1.69313,0.22913 1.83885,0.37485 0.14572,0.14572 0.81661,0.26495 1.49085,0.26495 0.67425,0 1.31483,0.0893 1.42352,0.19844 0.28414,0.28532 3.17268,0.86105 5.18225,1.0329 0.94588,0.0809 1.8329,0.25365 1.97114,0.38391 0.29044,0.27365 0.77835,0.30956 1.01334,0.0746 z m 66.99781,-0.67292 c 0.7276,-0.16011 1.8587,-0.38753 2.51354,-0.50538 2.97212,-0.5349 3.5665,-0.87966 4.53112,-2.62819 0.28098,-0.50932 0.73695,-1.28323 1.01325,-1.71979 0.2763,-0.43656 0.51107,-1.00211 0.52171,-1.25677 0.0106,-0.25466 0.11549,-0.46302 0.233,-0.46302 0.23427,0 1.10925,-1.84413 1.10925,-2.33786 0,-0.16939 0.11907,-0.30797 0.26459,-0.30797 0.14552,0 0.26458,-0.16895 0.26458,-0.37544 0,-0.20649 0.19903,-0.72222 0.44228,-1.14606 0.53242,-0.92768 0.31181,-1.80759 -0.37836,-1.50916 -0.25344,0.10959 -1.18871,0.28348 -2.07839,0.38643 -0.88967,0.10295 -1.75883,0.27447 -1.93145,0.38116 -0.34619,0.21395 -3.6587,0.62613 -7.21155,0.89733 -1.26167,0.0963 -2.34294,0.23464 -2.40284,0.3074 -0.6206,0.75387 -0.99177,1.5694 -0.99177,2.17913 0,0.40616 -0.10906,0.94521 -0.24234,1.1979 -0.36455,0.69111 -0.97551,2.18211 -1.38086,3.36985 -0.19865,0.58208 -0.6167,1.59411 -0.92901,2.24896 -0.35034,0.73457 -0.47734,1.30197 -0.33157,1.48131 0.2911,0.35813 5.07053,0.2214 6.98482,-0.19983 z m 16.00729,-3.33498 c 1.38245,-0.36633 3.22792,-0.71902 4.10104,-0.78378 0.87313,-0.0648 1.70061,-0.22676 1.83886,-0.36002 0.13824,-0.13326 0.44446,-0.24229 0.68049,-0.24229 0.23602,0 1.25401,-0.57088 2.26218,-1.26863 2.1649,-1.49831 4.47792,-3.85018 7.33944,-7.46272 0.68654,-0.86673 1.24049,-1.85235 1.24049,-2.20715 0,-0.20558 0.17859,-0.52201 0.39687,-0.70316 0.57579,-0.47787 0.52394,-1.12718 -0.0662,-0.8283 -1.45626,0.73761 -2.62646,1.10835 -3.97423,1.25909 -0.83373,0.0932 -1.81353,0.31992 -2.17733,0.50372 -0.3638,0.18379 -1.13771,0.45977 -1.71979,0.61327 -0.58208,0.1535 -1.71318,0.45287 -2.51354,0.66527 -0.80037,0.21239 -1.94527,0.51572 -2.54424,0.67406 -0.59897,0.15834 -1.44611,0.28789 -1.88255,0.28789 -0.83346,0 -2.18779,0.87397 -2.18779,1.41181 0,0.50634 -3.47223,7.26137 -4.19928,8.16948 -0.48303,0.60331 -0.18425,1.38597 0.43119,1.12952 0.25344,-0.10561 1.59189,-0.49173 2.97434,-0.85806 z M 42.82376,185.40447 c -0.137,-0.17429 -0.45627,-1.03125 -0.7095,-1.90438 -0.25323,-0.87312 -0.56,-1.88516 -0.68171,-2.24896 -0.12172,-0.3638 -0.29845,-1.16685 -0.39275,-1.78455 -0.0943,-0.6177 -0.28016,-1.19027 -0.41301,-1.27238 -0.13286,-0.0821 -0.24157,-0.38201 -0.24157,-0.66644 0,-0.28443 -0.10917,-0.72389 -0.24259,-0.97657 -0.13343,-0.25269 -0.45027,-1.17381 -0.70408,-2.04693 -0.60094,-2.06723 -0.89751,-2.51354 -1.67022,-2.51354 -0.35064,0 -1.24474,-0.28305 -1.98688,-0.62899 -1.72518,-0.80417 -3.67395,-1.47963 -5.18581,-1.79743 -0.65484,-0.13765 -1.44716,-0.37644 -1.76071,-0.53064 -0.88948,-0.43743 -1.21685,-0.0569 -0.74163,0.86204 2.09535,4.05197 6.98805,10.16233 9.90895,12.37502 1.36454,1.03369 2.66158,2.16651 3.70589,3.23667 0.72044,0.73828 0.97474,0.86737 1.14538,0.58146 0.12089,-0.20255 0.10753,-0.50973 -0.0298,-0.68438 z m 70.58646,-9.33118 c 2.4011,-0.11372 4.96094,-0.17707 5.68855,-0.14078 2.07737,0.10364 5.45454,-0.26096 5.53567,-0.59762 0.04,-0.16581 0.22349,-0.71818 0.40786,-1.22751 0.32645,-0.9018 0.60028,-2.19222 1.03869,-4.89479 0.11803,-0.7276 0.28283,-1.50151 0.36622,-1.71979 0.0834,-0.21828 0.22925,-1.27795 0.32412,-2.35481 l 0.17251,-1.95793 -2.20275,0.20159 c -6.35951,0.58202 -8.57167,0.7105 -11.49955,0.66786 -1.88855,-0.0275 -3.43144,0.071 -3.7456,0.23914 -0.62446,0.3342 -0.74661,1.22791 -1.00625,7.36193 -0.16356,3.86417 -0.0779,5.01191 0.3546,4.75054 0.11017,-0.0666 2.16484,-0.2141 4.56593,-0.32783 z m -10.20892,-0.44455 c 0.39398,-1.95614 0.49374,-2.7899 0.72016,-6.01927 0.13774,-1.96454 0.27523,-4.04813 0.30554,-4.63021 l 0.0551,-1.05834 -4.7625,-0.32371 c -6.49333,-0.44136 -11.653,-0.84533 -13.16935,-1.03107 -1.75354,-0.21479 -2.12016,0.13826 -1.93645,1.86475 0.0785,0.73817 0.22406,3.24712 0.32336,5.57545 0.21004,4.92468 0.43357,5.56882 1.84085,5.30481 0.47327,-0.0888 1.91186,-0.0446 3.19687,0.0981 1.28501,0.14274 4.46805,0.32339 7.07342,0.40146 2.60537,0.0781 4.7981,0.203 4.87274,0.27764 0.0746,0.0746 0.41126,0.13571 0.74803,0.13571 0.42308,0 0.64938,-0.18398 0.73223,-0.59531 z m 30.71413,-0.45714 c 2.32168,-0.23277 5.71589,-0.67516 8.23259,-1.07302 0.8899,-0.14068 1.98259,-0.25578 2.42819,-0.25578 0.88109,0 1.90693,-1.00713 1.90693,-1.87215 0,-0.26283 0.11906,-0.55146 0.26458,-0.64139 0.14552,-0.0899 0.26459,-0.4509 0.26459,-0.80214 0,-0.35123 0.27966,-1.26694 0.62147,-2.0349 1.26929,-2.85176 2.29239,-6.18476 2.37781,-7.7463 0.0354,-0.64755 -0.05,-0.77757 -0.46355,-0.70591 -0.27884,0.0483 -1.46946,0.26235 -2.64583,0.47565 -1.17638,0.2133 -2.79371,0.50599 -3.59407,0.65043 -0.80036,0.14445 -2.52677,0.38614 -3.83646,0.53711 -1.30969,0.15097 -3.38589,0.41752 -4.61379,0.59233 l -2.23254,0.31785 -0.36618,1.97669 c -0.2014,1.08718 -0.48215,2.51247 -0.62388,3.16731 -0.14173,0.65485 -0.36383,1.72641 -0.49356,2.38125 -0.12972,0.65485 -0.35705,1.66688 -0.50517,2.24896 -0.56988,2.23944 -0.61268,2.5175 -0.452,2.93622 0.12416,0.32356 0.34678,0.38503 0.88989,0.24575 0.39837,-0.10216 1.67682,-0.28125 2.84098,-0.39796 z m -53.70011,-1.79182 c -0.094,-0.83675 -0.23145,-3.61852 -0.30537,-6.18173 -0.12892,-4.47015 -0.15804,-4.67148 -0.71342,-4.93269 -0.70454,-0.33137 -3.71661,-0.81347 -6.92901,-1.10904 -2.3434,-0.21561 -3.19857,-0.37951 -6.35,-1.21705 -2.01859,-0.53647 -4.09949,-0.86646 -4.21798,-0.66889 -0.13258,0.22104 0.34481,5.10629 0.54494,5.57659 0.0929,0.21828 0.26455,1.23031 0.38147,2.24895 0.30831,2.6862 0.68881,4.49454 1.07625,5.11493 0.39182,0.6274 0.90812,0.78785 3.20078,0.99473 0.9132,0.0824 1.89849,0.25516 2.18954,0.38393 0.29104,0.12876 1.3626,0.29249 2.38125,0.36384 1.01864,0.0713 3.16177,0.29901 4.7625,0.50591 4.57239,0.59098 4.17877,0.69777 3.97905,-1.07948 z m 73.92383,-1.00443 c 0.95519,-0.22501 1.94344,-0.52266 2.19613,-0.66145 0.25269,-0.13879 0.73594,-0.25235 1.07391,-0.25235 0.33796,0 0.84559,-0.17481 1.12807,-0.38846 0.28247,-0.21365 0.89351,-0.39225 1.35787,-0.39688 0.46435,-0.005 0.91786,-0.12747 1.0078,-0.27299 0.0899,-0.14553 0.43667,-0.26459 0.77053,-0.26459 0.33385,0 1.42763,-0.29765 2.43063,-0.66146 1.003,-0.3638 2.01589,-0.66145 2.25088,-0.66145 0.23498,0 0.86586,-0.29766 1.40196,-0.66146 0.53609,-0.3638 1.19827,-0.66146 1.47151,-0.66146 0.67285,0 2.25666,-1.89975 3.19843,-3.83646 0.42458,-0.87312 0.87885,-1.76609 1.00949,-1.98437 0.13065,-0.21829 0.35557,-0.69454 0.49984,-1.05834 0.14427,-0.3638 0.409,-1.01864 0.58831,-1.45521 0.1793,-0.43656 0.55467,-1.50438 0.83416,-2.37293 0.27948,-0.86856 0.68338,-1.84663 0.89756,-2.17351 0.21417,-0.32687 0.38941,-0.76456 0.38941,-0.97263 0,-0.47848 -1.20688,-0.23508 -2.89397,0.58364 -0.64579,0.31339 -1.44244,0.56981 -1.77032,0.56981 -0.32788,0 -0.66139,0.10556 -0.74113,0.23459 -0.0797,0.12902 -0.55103,0.31076 -1.04732,0.40387 -0.49628,0.0931 -1.28547,0.36041 -1.75375,0.59402 -0.46829,0.23361 -1.22441,0.51532 -1.68028,0.62603 -0.45587,0.1107 -1.54323,0.40841 -2.41636,0.66158 -0.87312,0.25317 -2.06375,0.51749 -2.64583,0.58737 -0.58208,0.0699 -1.18256,0.22689 -1.3344,0.34891 -0.15184,0.12202 -1.10434,0.30558 -2.11667,0.40792 -2.29592,0.23208 -3.03122,0.66915 -3.03122,1.80176 0,0.46349 -0.10687,0.95581 -0.23748,1.09405 -0.13062,0.13825 -0.29315,0.72761 -0.36119,1.30969 -0.11861,1.01479 -0.53813,2.39498 -1.0243,3.36985 -0.12601,0.25268 -0.22911,0.69214 -0.22911,0.97657 0,0.28443 -0.10302,0.58081 -0.22893,0.65862 -0.1259,0.0778 -0.29339,0.53876 -0.37218,1.02431 -0.0788,0.48555 -0.40298,1.43535 -0.72042,2.11066 -0.56243,1.19652 -0.54158,1.78187 0.0635,1.78187 0.16402,0 1.07973,-0.1841 2.03491,-0.40912 z m -95.62051,-1.37682 c -0.10564,-0.54571 -0.30902,-1.5875 -0.45197,-2.31511 -0.14295,-0.7276 -0.31517,-2.03729 -0.38272,-2.91041 -0.0675,-0.87313 -0.22764,-1.82563 -0.35575,-2.11667 -0.12811,-0.29104 -0.30495,-1.41787 -0.39298,-2.50406 -0.20087,-2.47849 -0.73855,-3.18448 -2.42529,-3.18448 -0.62089,0 -1.20248,-0.11906 -1.29241,-0.26458 -0.0899,-0.14553 -0.60377,-0.26459 -1.14185,-0.26459 -0.53807,0 -1.39425,-0.13013 -1.90261,-0.28919 -1.15367,-0.36095 -2.6848,-0.73393 -4.23159,-1.0308 -2.30447,-0.44229 -3.84009,-0.86071 -4.18735,-1.14094 -0.62069,-0.50089 -0.83519,0.35988 -0.67918,2.72552 0.0816,1.23692 0.21788,2.42755 0.3029,2.64583 0.14689,0.37713 0.43792,2.47247 0.75915,5.46566 0.16764,1.56201 0.70238,2.17653 2.34928,2.69975 0.58208,0.18493 1.29645,0.43748 1.5875,0.56123 0.69265,0.2945 4.19505,1.15206 6.48229,1.58717 0.65484,0.12458 2.02406,0.45921 3.04271,0.74364 1.01864,0.28443 2.13555,0.53223 2.48201,0.55068 0.58905,0.0314 0.61747,-0.0309 0.43786,-0.95865 z M 37.8415,166.55 c 0.0873,-0.2275 -0.019,-0.75737 -0.23627,-1.17749 -0.21725,-0.42012 -0.39501,-1.0095 -0.39501,-1.30975 0,-0.30024 -0.11019,-0.75264 -0.24487,-1.00532 -0.23183,-0.43495 -0.85438,-5.31907 -0.96913,-7.60318 -0.0292,-0.58209 -0.0657,-1.19099 -0.081,-1.35312 -0.0346,-0.3662 -2.06078,-1.16042 -2.96036,-1.16042 -0.36622,0 -0.77896,-0.10244 -0.9172,-0.22763 -0.26225,-0.23749 -2.0508,-0.83713 -4.08781,-1.3705 -0.65485,-0.17147 -1.80821,-0.59641 -2.56303,-0.94432 -0.75483,-0.3479 -1.5522,-0.63255 -1.77194,-0.63255 -0.21974,0 -0.96583,-0.30111 -1.65797,-0.66912 -0.69214,-0.36802 -1.41281,-0.60988 -1.6015,-0.53747 -0.66442,0.25496 -0.21912,4.1556 0.72676,6.36596 0.12454,0.29104 0.39976,1.06495 0.61159,1.71979 0.21183,0.65485 0.53031,1.54781 0.70773,1.98438 0.17742,0.43656 0.43783,1.0914 0.57869,1.45521 0.14087,0.3638 0.4237,0.99852 0.62852,1.4105 0.20482,0.41197 0.37342,0.88822 0.37466,1.05833 10e-4,0.17011 0.74538,0.5263 1.65365,0.79154 0.90826,0.26523 1.85812,0.59265 2.11081,0.7276 0.25269,0.13495 0.84442,0.24536 1.31497,0.24536 0.90113,0 4.10809,0.97417 6.55997,1.9927 1.77951,0.73922 2.01718,0.76487 2.21878,0.2395 z m 81.78643,-7.73697 c 2.7649,-0.14581 5.36226,-0.39563 5.77191,-0.55517 0.40966,-0.15953 1.1538,-0.29006 1.65365,-0.29006 0.78651,0 0.90882,-0.0867 0.90882,-0.64416 0,-0.35429 0.16609,-1.45562 0.36909,-2.4474 0.203,-0.99178 0.45113,-3.36665 0.55141,-5.2775 l 0.18232,-3.47428 -1.06879,0.19544 c -0.58783,0.1075 -2.83026,0.21962 -4.98318,0.24916 -2.15292,0.0295 -4.74783,0.16188 -5.76648,0.2941 -1.01864,0.13221 -2.70753,0.24406 -3.75309,0.24855 -2.81782,0.0121 -3.17158,0.21278 -3.3666,1.90972 -0.46767,4.06949 -0.70086,9.09911 -0.44762,9.65491 0.30528,0.67003 -0.0678,0.6649 9.94856,0.13669 z m -15.09426,-0.64679 c 0.0711,-0.32743 0.19678,-1.84547 0.2792,-3.37344 0.0824,-1.52797 0.21324,-3.8093 0.29072,-5.06963 0.13186,-2.14466 0.10597,-2.3026 -0.40408,-2.46448 -0.29973,-0.0951 -0.67189,-0.0945 -0.82702,0.001 -0.33643,0.20792 -9.38892,0.18959 -14.84027,-0.0301 -2.30604,-0.0929 -3.9348,-0.0557 -4.02607,0.092 -0.0843,0.1364 -0.21205,2.00733 -0.28389,4.15761 -0.0719,2.15028 -0.19488,3.97386 -0.27341,4.05239 -0.0785,0.0785 -0.14279,0.53021 -0.14279,1.00371 0,1.03112 0.1733,1.0875 4.40877,1.43421 1.577,0.1291 3.40305,0.34513 4.05789,0.48008 0.65485,0.13495 3.53984,0.26027 6.41111,0.27848 5.21134,0.0331 5.22071,0.0321 5.34984,-0.56219 z m 33.09894,-1.00242 c 0.6,-0.22228 3.03465,-0.50896 5.67553,-0.66831 0.94589,-0.0571 2.4937,-0.21737 3.43958,-0.35622 3.79139,-0.55654 4.60451,-0.96039 4.84193,-2.40482 0.0837,-0.50933 0.34869,-1.87855 0.58883,-3.04271 0.24014,-1.16417 0.49531,-2.89058 0.56705,-3.83647 0.0717,-0.94588 0.23985,-1.8329 0.3736,-1.97114 0.13375,-0.13825 0.24318,-0.7553 0.24318,-1.37123 0,-0.89626 -0.10821,-1.15422 -0.54187,-1.29186 -0.29802,-0.0946 -0.69766,-0.0427 -0.88809,0.11536 -0.39542,0.32817 -2.20801,0.75998 -4.52317,1.07754 -3.59199,0.4927 -5.10692,0.77075 -6.61458,1.21404 -0.87313,0.25672 -2.48047,0.51544 -3.57188,0.57494 -2.50625,0.13664 -2.8259,0.40632 -3.00316,2.53369 -0.0748,0.89772 -0.25144,3.00143 -0.39253,4.67492 -0.14109,1.67349 -0.39431,3.39636 -0.5627,3.82859 -0.45349,1.16406 0.17022,1.52742 2.23181,1.30022 0.87686,-0.0966 1.83827,-0.26608 2.13647,-0.37654 z m -58.5912,-0.004 c 0.40437,-0.21641 0.51183,-0.5282 0.47878,-1.38907 -0.0234,-0.61051 0.05,-2.7427 0.16321,-4.73821 0.15882,-2.79951 0.12874,-3.7211 -0.13169,-4.0349 -0.26464,-0.31888 -0.94067,-0.4067 -3.13062,-0.4067 -1.5362,0 -3.15873,-0.11244 -3.60562,-0.24987 -0.7818,-0.24042 -3.48329,-0.6061 -7.95629,-1.07699 -1.16416,-0.12256 -2.41432,-0.26111 -2.77812,-0.30788 l -0.66146,-0.085 v 4.6302 4.63021 l 0.85989,0.0829 c 0.47295,0.0456 0.8599,0.1814 0.8599,0.30178 0,0.12038 0.38695,0.28472 0.8599,0.36519 1.02262,0.174 3.32718,0.63737 4.89859,0.98494 0.62055,0.13726 1.83391,0.24956 2.69636,0.24956 0.86245,0 1.64167,0.11906 1.73161,0.26458 0.0899,0.14552 0.72204,0.27373 1.40468,0.28492 0.68263,0.0112 1.7174,0.17729 2.29949,0.36913 1.3712,0.45191 1.39789,0.45357 2.01139,0.12524 z m 80.40631,-3.58467 c 0.80037,-0.22982 2.05052,-0.52166 2.77813,-0.64854 1.42556,-0.24859 2.70773,-0.5731 3.96875,-1.00447 0.43656,-0.14934 1.32953,-0.41936 1.98437,-0.60006 0.65485,-0.18069 1.30969,-0.40798 1.45521,-0.50509 0.44895,-0.29957 2.97984,-1.05104 3.53983,-1.05104 0.29149,0 0.60357,-0.11907 0.6935,-0.26459 0.0899,-0.14552 0.43958,-0.26458 0.77697,-0.26458 0.3374,0 0.76167,-0.1786 0.94283,-0.39688 0.18115,-0.21828 0.58718,-0.39687 0.90228,-0.39687 0.3151,0 0.94126,-0.32743 1.39145,-0.72761 0.81115,-0.72103 1.538,-2.82894 2.44049,-7.0776 0.90389,-4.25524 1.06796,-5.1599 1.16771,-6.43853 0.11876,-1.52236 -0.26457,-2.01083 -1.10925,-1.41346 -0.23488,0.16611 -0.96284,0.55248 -1.61768,0.85859 -0.65485,0.30612 -1.6747,0.78447 -2.26635,1.06301 -0.59165,0.27853 -1.26923,0.50643 -1.50574,0.50643 -0.23651,0 -0.5036,0.11906 -0.59354,0.26458 -0.0899,0.14552 -0.38497,0.26458 -0.65563,0.26458 -0.27066,0 -0.88871,0.19874 -1.37345,0.44165 -1.60696,0.80525 -1.7971,0.88127 -2.20425,0.88127 -0.22223,0 -0.6108,0.10586 -0.86349,0.23525 -0.54563,0.27939 -2.04661,0.92953 -2.97297,1.28772 -0.3638,0.14067 -1.11198,0.45086 -1.66262,0.68932 -0.55064,0.23845 -1.33195,0.43354 -1.73624,0.43354 -0.4043,0 -1.22794,0.23813 -1.83033,0.52917 -0.60239,0.29104 -1.33638,0.52917 -1.6311,0.52917 -0.87917,0 -1.43081,1.19683 -1.63161,3.53993 -0.22286,2.60045 -0.71076,5.82287 -1.04924,6.9299 -0.13664,0.44689 -0.24844,1.25056 -0.24844,1.78594 0,0.88626 0.0651,0.97312 0.7276,0.97026 0.40018,-0.002 1.38245,-0.19117 2.18281,-0.42099 z m -102.77742,-1.649 c -0.0928,-0.67879 -0.23336,-2.57493 -0.31227,-4.21364 -0.11619,-2.41273 -0.22722,-3.02345 -0.58367,-3.21066 -0.2421,-0.12715 -1.51174,-0.42694 -2.82143,-0.66621 -1.30969,-0.23928 -2.73844,-0.53936 -3.175,-0.66686 -0.43656,-0.12749 -1.27,-0.31329 -1.85208,-0.41288 -0.58208,-0.0996 -1.1774,-0.27608 -1.32292,-0.39221 -0.14552,-0.11613 -0.74083,-0.27802 -1.32291,-0.35975 -2.68587,-0.37713 -3.87069,-0.63306 -4.12965,-0.89202 -0.15433,-0.15433 -0.51991,-0.21802 -0.81239,-0.14154 -0.49954,0.13064 -0.52168,0.28518 -0.36513,2.54909 0.43606,6.30605 0.41281,6.16031 1.0274,6.44167 0.81754,0.37428 3.03067,0.94947 5.86727,1.52488 2.49518,0.50617 4.55498,1.01275 4.95734,1.2192 0.25269,0.12965 0.8641,0.23573 1.35869,0.23573 0.49459,0 1.29821,0.16774 1.78581,0.37277 1.39441,0.5863 1.91302,0.16324 1.70094,-1.38757 z m -21.25697,-8.19542 -0.10666,-3.78625 -1.09874,-0.48861 c -0.60431,-0.26873 -1.93219,-0.8068 -2.95083,-1.19572 -1.01865,-0.38892 -2.05883,-0.81672 -2.31152,-0.95067 -0.25268,-0.13394 -0.69214,-0.24354 -0.97657,-0.24354 -0.28443,0 -0.59072,-0.11906 -0.68066,-0.26458 -0.0899,-0.14552 -0.40602,-0.26459 -0.7024,-0.26459 -0.29638,0 -0.8549,-0.16793 -1.24115,-0.37318 -0.38626,-0.20525 -1.17853,-0.57811 -1.76062,-0.82857 -0.58208,-0.25046 -1.52718,-0.67785 -2.10021,-0.94973 -0.57304,-0.27189 -1.17331,-0.49435 -1.33394,-0.49435 -0.16064,0 -0.73386,-0.41672 -1.27384,-0.92604 -0.53998,-0.50932 -1.15783,-0.92604 -1.373,-0.92604 -0.54413,0 -0.77781,1.14856 -0.38356,1.88523 0.18003,0.33638 0.40266,2.10364 0.49474,3.92725 0.22452,4.44645 0.56944,5.16992 2.9271,6.13974 0.94589,0.38908 2.10675,0.71651 2.57969,0.7276 0.47294,0.0111 0.8599,0.13924 0.8599,0.28476 0,0.14552 0.28284,0.26458 0.62853,0.26458 0.3457,0 1.30159,0.29766 2.12421,0.66146 0.82263,0.36381 1.73202,0.66146 2.02089,0.66146 0.28887,0 0.73196,0.11425 0.98464,0.25389 0.44908,0.24817 2.04225,0.64675 4.1636,1.04165 0.66195,0.12323 1.16297,0.0909 1.3377,-0.0862 0.18033,-0.18285 0.24155,-1.62534 0.1727,-4.06951 z m 76.80627,-1.20837 c 0.58208,-0.063 2.84427,-0.19159 5.02708,-0.28567 2.18281,-0.0941 4.91813,-0.28394 6.07848,-0.42193 1.16035,-0.138 2.88675,-0.25157 3.83646,-0.25238 0.9497,-8.1e-4 2.14345,-0.11002 2.65277,-0.2427 0.50932,-0.13267 1.85092,-0.3049 2.98132,-0.38272 1.1304,-0.0778 2.20196,-0.23591 2.38125,-0.35131 0.17928,-0.11539 1.15941,-0.29151 2.17806,-0.39138 2.3528,-0.23068 4.7788,-0.64417 5.15937,-0.87937 0.29646,-0.18322 1.96108,-0.49704 4.89479,-0.92278 2.4275,-0.35228 4.32952,-0.74347 4.68596,-0.96376 0.17698,-0.10938 0.80238,-0.29002 1.38978,-0.40143 0.58741,-0.11141 1.68517,-0.31838 2.43948,-0.45993 0.75431,-0.14155 1.60968,-0.38485 1.90083,-0.54067 0.29116,-0.15582 0.77694,-0.28331 1.07952,-0.28331 0.30259,0 0.7569,-0.10916 1.00958,-0.24259 0.25269,-0.13343 1.17381,-0.44639 2.04693,-0.69547 0.87313,-0.24908 1.70061,-0.55663 1.83886,-0.68345 0.13824,-0.12681 0.63723,-0.23057 1.10886,-0.23057 0.47163,0 0.9311,-0.11906 1.02103,-0.26458 0.0899,-0.14552 0.4314,-0.26459 0.7588,-0.26459 0.3274,0 0.82639,-0.1748 1.10886,-0.38846 0.28248,-0.21365 0.77446,-0.39224 1.09329,-0.39687 0.31884,-0.005 0.65328,-0.12748 0.74322,-0.273 0.0899,-0.14552 0.39624,-0.26458 0.68066,-0.26458 0.28443,0 0.72389,-0.1133 0.97658,-0.25177 0.25268,-0.13847 0.87615,-0.422 1.38547,-0.63007 8.03763,-3.28351 9.29058,-4.30497 10.06604,-8.20627 0.3133,-1.57621 0.30232,-1.8613 -0.10451,-2.71443 -0.40847,-0.85658 -0.54086,-0.94083 -1.30545,-0.83082 -0.94961,0.13663 -3.10165,0.85502 -4.24575,1.41731 -0.41198,0.20247 -0.97224,0.36813 -1.24502,0.36813 -0.27279,0 -0.9346,0.29766 -1.47069,0.66146 -0.53609,0.3638 -1.25737,0.66146 -1.60284,0.66146 -0.34547,0 -0.83487,0.10452 -1.08756,0.23228 -1.19244,0.60288 -2.5063,1.09063 -2.93785,1.09063 -0.26185,0 -0.55769,0.0816 -0.65742,0.18133 -0.24596,0.24597 -2.06049,0.86769 -2.5527,0.87465 -0.21828,0.003 -0.73791,0.18348 -1.15472,0.40086 -0.41682,0.21739 -0.97534,0.39525 -1.24116,0.39525 -0.26582,0 -0.55689,0.11906 -0.64683,0.26458 -0.0899,0.14552 -0.5494,0.26458 -1.02103,0.26458 -0.47163,0 -0.97062,0.11224 -1.10886,0.24941 -0.26257,0.26054 -2.01712,0.76001 -3.49496,0.99491 -0.47429,0.0754 -0.9278,0.24298 -1.0078,0.37242 -0.08,0.12944 -0.50344,0.23535 -0.94098,0.23535 -0.43754,0 -1.04105,0.1314 -1.34113,0.29199 -0.30008,0.1606 -1.15546,0.38911 -1.90084,0.50779 -0.74538,0.11869 -2.12914,0.41207 -3.07502,0.65196 -0.94589,0.2399 -2.16703,0.50022 -2.71364,0.5785 -0.54662,0.0783 -1.05966,0.24881 -1.1401,0.37896 -0.0804,0.13015 -0.61376,0.23663 -1.18516,0.23663 -1.06161,0 -2.53244,0.28375 -4.88298,0.94202 -0.7276,0.20377 -1.97776,0.42604 -2.77812,0.49395 -5.171,0.43876 -7.34102,0.66118 -7.80521,0.80002 -0.77082,0.23055 -6.53294,0.6956 -11.1125,0.89688 -2.18281,0.0959 -4.08781,0.24997 -4.23333,0.3423 -0.14553,0.0923 -3.41974,0.23753 -7.27605,0.32266 -6.55658,0.14473 -12.4371,-0.0197 -21.29895,-0.59571 -2.0373,-0.13242 -5.25198,-0.32561 -7.14375,-0.42932 -1.98187,-0.10864 -3.66734,-0.33021 -3.97699,-0.52279 -0.29558,-0.18383 -1.42667,-0.40109 -2.51354,-0.48279 -3.0434,-0.22877 -6.02401,-0.63979 -8.06156,-1.11167 -1.01864,-0.23591 -2.56646,-0.53167 -3.43958,-0.65725 -2.7213,-0.39141 -6.24809,-1.1976 -7.07402,-1.61705 -0.25268,-0.12833 -0.87001,-0.23333 -1.37183,-0.23333 -0.50183,0 -1.24758,-0.12929 -1.65724,-0.2873 -0.40965,-0.15801 -1.34014,-0.40132 -2.06774,-0.54067 -0.72761,-0.13935 -1.79917,-0.36037 -2.38125,-0.49115 -0.58209,-0.13077 -1.64875,-0.36477 -2.37035,-0.51999 -0.72161,-0.15522 -1.43004,-0.40023 -1.57428,-0.54447 -0.14424,-0.14424 -0.5886,-0.26226 -0.98747,-0.26226 -0.39887,0 -0.7988,-0.11906 -0.88874,-0.26458 -0.0899,-0.14552 -0.47993,-0.26458 -0.86666,-0.26458 -0.80009,0 -3.38985,-0.85807 -4.88444,-1.61837 -0.25268,-0.12854 -0.69513,-0.23372 -0.98321,-0.23372 -0.47221,0 -1.75585,-0.46892 -2.98554,-1.09063 -0.25268,-0.12776 -0.80341,-0.23228 -1.22384,-0.23228 -0.42043,0 -1.43748,-0.29766 -2.2601,-0.66146 -0.82262,-0.3638 -1.73202,-0.66146 -2.02088,-0.66146 -0.28887,0 -0.73196,-0.10424 -0.98465,-0.23166 -0.25268,-0.12741 -1.1738,-0.44611 -2.04693,-0.70821 -0.87312,-0.26211 -1.70061,-0.57458 -1.83885,-0.69439 -0.13825,-0.1198 -0.49543,-0.21723 -0.79375,-0.21651 -0.29832,7.2e-4 -1.10147,-0.19907 -1.78477,-0.44397 -1.23051,-0.44102 -1.2471,-0.43944 -1.7365,0.16495 -0.45899,0.56683 -0.46726,0.71597 -0.11626,2.09761 0.20783,0.81806 0.6023,1.80343 0.87661,2.18969 0.2743,0.38627 0.49873,0.78031 0.49873,0.87565 0,0.42872 2.09785,2.62866 3.175,3.32951 1.66561,1.08374 1.89757,1.21554 2.64583,1.50334 0.36381,0.13993 1.31631,0.57231 2.11667,0.96084 0.80037,0.38853 1.54509,0.70456 1.65494,0.70229 0.10986,-0.002 0.81675,0.29352 1.57088,0.65732 0.75412,0.3638 1.57995,0.66146 1.83517,0.66146 0.25522,0 0.53762,0.11906 0.62755,0.26458 0.0899,0.14552 0.43957,0.26458 0.77697,0.26458 0.3374,0 0.76167,0.1786 0.94282,0.39688 0.18116,0.21828 0.67199,0.39687 1.09073,0.39687 0.41875,0 0.76136,0.11907 0.76136,0.26459 0,0.14552 0.39687,0.26458 0.88194,0.26458 0.48507,0 0.96679,0.0848 1.0705,0.18855 0.32928,0.32929 2.65397,1.13393 3.27667,1.13415 0.32939,1.2e-4 0.80564,0.10835 1.05833,0.24051 0.68014,0.35572 4.28727,1.39695 5.35422,1.54554 0.50933,0.0709 1.04511,0.21714 1.19063,0.32492 0.14552,0.10778 1.21708,0.39552 2.38125,0.63941 1.16417,0.2439 2.62439,0.55832 3.24494,0.69873 0.62055,0.1404 1.67018,0.25527 2.3325,0.25527 0.66232,0 1.46429,0.14082 1.78214,0.31293 0.31786,0.17211 1.58995,0.40891 2.82688,0.52623 2.47421,0.23466 4.34362,0.49717 8.33437,1.17032 2.85192,0.48106 5.97381,0.76054 12.83229,1.14877 2.4011,0.13592 4.96094,0.36047 5.68855,0.499 1.26437,0.24073 24.9658,0.19471 27.25208,-0.0529 z M 35.06456,117.68521 c 0.15215,-0.47294 0.31021,-2.16958 0.35125,-3.77031 l 0.0746,-2.91042 -2.77812,0.0968 c -1.52797,0.0532 -2.97866,0.20206 -3.22375,0.33073 -0.2451,0.12868 -0.78683,0.23396 -1.20386,0.23396 -0.41702,0 -0.87134,0.11286 -1.00958,0.25081 -0.13824,0.13795 -0.9062,0.36993 -1.70656,0.51551 -4.14575,0.75409 -4.83195,1.05928 -4.71221,2.09574 0.0868,0.75101 0.93344,1.18138 3.257,1.65553 1.67142,0.34108 3.10849,0.6997 3.96875,0.99041 1.8983,0.64149 2.73969,0.84315 3.59066,0.86059 0.49899,0.0102 1.14538,0.12093 1.43642,0.24599 1.10725,0.4758 1.66548,0.30585 1.95538,-0.59531 z m 103.2165,-0.59593 c 3.67515,-1.41868 4.22849,-1.74137 7.05826,-4.1161 1.50011,-1.25889 2.53109,-2.57656 2.30377,-2.94438 -0.1891,-0.30596 -1.62584,-0.2668 -1.82141,0.0496 -0.0899,0.14552 -0.55046,0.26458 -1.02338,0.26458 -0.47292,0 -1.09097,0.17481 -1.37344,0.38846 -0.28248,0.21366 -0.83399,0.39225 -1.22558,0.39688 -0.3916,0.005 -0.78558,0.12748 -0.87551,0.273 -0.0899,0.14552 -0.39462,0.26458 -0.67708,0.26458 -0.28245,0 -0.51355,0.11679 -0.51355,0.25954 0,0.14275 -0.29277,0.33303 -0.65061,0.42284 -0.35783,0.0898 -0.78418,0.32424 -0.94745,0.52097 -0.16326,0.19672 -0.85276,0.61248 -1.5322,0.92391 -2.8307,1.29745 -2.77037,1.23708 -3.0464,3.04886 -0.15136,0.99347 -0.10892,1.09577 0.55904,1.3475 0.5624,0.21195 0.92836,0.17108 1.64887,-0.18413 0.50932,-0.2511 1.46182,-0.66337 2.11667,-0.91615 z m -69.32084,-0.40217 c 0,-1.18938 -0.11459,-1.45315 -1.09203,-2.51354 -0.60061,-0.65159 -1.25782,-1.18471 -1.46046,-1.18471 -0.20264,0 -0.83996,-0.29766 -1.41626,-0.66146 -0.5763,-0.3638 -1.27843,-0.66146 -1.5603,-0.66146 -0.28187,0 -1.02838,-0.21953 -1.65891,-0.48785 -1.58527,-0.67461 -3.17669,-0.88377 -4.148,-0.54517 -0.60059,0.20937 -1.07278,0.20179 -1.77025,-0.0284 -1.26099,-0.41617 -2.76879,-0.13743 -2.76879,0.51184 0,0.26663 0.18359,0.63714 0.40797,0.82336 0.67994,0.56431 2.82526,1.5783 3.33923,1.5783 0.61786,0 2.6028,0.8547 2.6028,1.12075 0,0.11119 0.2311,0.20217 0.51356,0.20217 0.28245,0 0.58825,0.12086 0.67955,0.26859 0.23828,0.38554 1.93551,1.05432 2.67566,1.05432 0.34603,0 0.62915,0.11907 0.62915,0.26459 0,0.14552 0.30943,0.26458 0.68762,0.26458 0.37819,0 1.0628,0.16241 1.52135,0.36091 2.90522,1.25762 2.81811,1.26896 2.81811,-0.36682 z m 20.90209,-0.78784 c 0,-0.14552 0.20836,-0.26531 0.46302,-0.26621 0.25466,-9e-4 0.80405,-0.17949 1.22087,-0.39687 0.41681,-0.21739 0.92283,-0.39525 1.12448,-0.39525 0.20164,0 0.36684,-0.0893 0.36709,-0.19844 2.6e-4,-0.10914 0.92299,-0.65508 2.05052,-1.2132 1.12753,-0.55811 2.38713,-1.18319 2.7991,-1.38906 0.41198,-0.20586 0.97914,-0.3743 1.26037,-0.3743 0.28122,0 0.71805,-0.10506 0.97074,-0.23346 0.42588,-0.21642 1.13769,-0.42156 3.89902,-1.1237 0.58208,-0.14801 1.59411,-0.34968 2.24895,-0.44816 1.16815,-0.17567 1.19212,-0.19929 1.26942,-1.25108 0.12855,-1.74883 -0.40402,-2.03162 -3.55923,-1.88993 -2.86012,0.12844 -5.31896,0.54302 -5.74452,0.96858 -0.15047,0.15047 -0.54904,0.27358 -0.88571,0.27358 -0.55289,0 -0.94401,0.14763 -2.19246,0.82756 -0.21828,0.11888 -0.78382,0.4116 -1.25677,0.65049 -0.47294,0.23888 -0.85989,0.53983 -0.85989,0.66877 0,0.12894 -0.12701,0.23443 -0.28224,0.23443 -0.15523,0 -0.66125,0.26819 -1.12448,0.59598 -1.15767,0.81918 -1.80595,1.21595 -2.44061,1.49376 -0.84074,0.36801 -1.10567,0.84266 -1.30725,2.34204 l -0.18675,1.38906 h 1.08317 c 0.59573,0 1.08316,-0.11906 1.08316,-0.26459 z m -51.85834,-4.61459 c 0,-0.42138 -0.48005,-0.81438 -0.71174,-0.58269 -0.21766,0.21766 0.12211,0.96395 0.43886,0.96395 0.15008,0 0.27288,-0.17157 0.27288,-0.38126 z m 88.39924,-2.60658 c -0.16114,-0.16115 -0.29299,-0.48885 -0.29299,-0.72824 0,-0.23938 -0.23564,-0.64849 -0.52365,-0.90914 -0.42029,-0.38036 -0.54821,-0.40151 -0.64807,-0.10715 -0.23325,0.68751 -0.009,2.11189 0.3691,2.34564 0.5285,0.32663 1.49376,-0.20297 1.09561,-0.60111 z m -87.66804,-3.58383 c 0.25269,-0.12192 0.8073,-0.38981 1.23247,-0.59531 0.90893,-0.43932 1.69388,-1.66382 1.72116,-2.68495 0.0106,-0.3981 0.13104,-1.23153 0.26755,-1.852085 0.13652,-0.620552 0.44362,-2.080776 0.68246,-3.244943 0.70485,-3.435686 1.29072,-5.423549 2.00691,-6.809431 0.13058,-0.252687 0.23742,-0.607349 0.23742,-0.788137 0,-0.4277 1.2491,-3.840813 1.73594,-4.743386 0.41734,-0.773721 0.99149,-1.939406 2.13165,-4.327796 0.4168,-0.873125 1.14586,-2.21489 1.62012,-2.9817 0.47426,-0.76681 0.86229,-1.449108 0.86229,-1.516217 0,-0.06711 0.41672,-0.773453 0.92604,-1.569653 0.50933,-0.7962 0.92604,-1.562496 0.92604,-1.70288 0,-0.140385 0.0968,-0.294932 0.21504,-0.343439 0.11826,-0.04851 0.73587,-0.80257 1.37246,-1.675695 0.63659,-0.873125 1.2542,-1.627187 1.37247,-1.675694 0.11827,-0.04851 0.21694,-0.227101 0.21926,-0.396875 0.0157,-1.147376 8.43109,-9.129646 11.70459,-11.102195 0.43334,-0.26112 0.96119,-0.648073 1.17302,-0.859895 0.21182,-0.211823 0.5453,-0.385132 0.74106,-0.385132 0.19576,0 0.39561,-0.100666 0.44412,-0.223701 0.13769,-0.349247 2.75826,-2.157549 3.12669,-2.157549 0.30628,0 2.88351,-1.285275 3.17921,-1.585482 0.0728,-0.07387 0.60854,-0.355869 1.19063,-0.626664 0.58208,-0.270795 1.26507,-0.598217 1.51776,-0.727605 0.25269,-0.129387 0.62603,-0.235249 0.82965,-0.235249 0.20362,0 0.71125,-0.177861 1.12807,-0.395245 0.41682,-0.217385 1.01871,-0.395979 1.33755,-0.396875 0.31883,-8.97e-4 0.65328,-0.120693 0.74322,-0.266214 0.0899,-0.145521 0.45834,-0.264583 0.81867,-0.264583 0.36033,0 0.91885,-0.16109 1.24116,-0.357977 0.3223,-0.196887 1.30037,-0.502929 2.1735,-0.680092 0.87312,-0.177163 2.01803,-0.432792 2.54424,-0.568064 0.5262,-0.135273 1.60372,-0.24595 2.39448,-0.24595 0.79075,0 1.55325,-0.115514 1.69443,-0.256696 0.14119,-0.141183 1.44492,-0.326292 2.89719,-0.411352 1.45227,-0.08506 3.29534,-0.213667 4.0957,-0.285792 5.46709,-0.492667 8.17434,-0.395319 13.36146,0.480456 0.87312,0.147415 2.24234,0.3648 3.04271,0.483076 0.80036,0.118277 1.81239,0.292645 2.24896,0.387485 0.43656,0.09484 1.68671,0.356161 2.77812,0.580711 1.09141,0.224551 2.09748,0.513106 2.23573,0.641235 0.13824,0.128128 0.52116,0.23296 0.85092,0.23296 0.32976,0 1.05009,0.195097 1.60073,0.433549 0.55064,0.238451 1.23929,0.520178 1.53033,0.626058 1.97888,0.719912 4.09454,1.694764 4.098,1.888273 0.002,0.09336 0.2733,0.237585 0.60362,0.320489 0.33032,0.0829 0.83633,0.363703 1.12448,0.623996 0.69811,0.630633 2.70488,1.928468 2.98188,1.928468 0.1212,0 0.45117,0.213581 0.73327,0.474625 0.28211,0.261043 1.17684,0.963896 1.98831,1.561896 0.81147,0.597999 1.83774,1.426215 2.2806,1.840479 3.175,2.969991 4.63231,4.493709 5.9013,6.170235 0.80036,1.057403 1.76062,2.295209 2.1339,2.750679 0.37328,0.45547 0.88529,1.244847 1.1378,1.75417 0.25251,0.509322 0.80826,1.461822 1.23498,2.116666 0.78503,1.204685 1.21178,2.023426 1.93069,3.704167 0.21785,0.509323 0.71455,1.640417 1.10377,2.513542 0.38922,0.873125 0.94381,2.123281 1.23243,2.778125 0.28861,0.654843 0.63529,1.397369 0.77038,1.650055 0.1351,0.252687 0.24985,0.728937 0.25501,1.058334 0.005,0.329396 0.17953,0.896559 0.38749,1.260361 0.20797,0.363802 0.38235,1.08413 0.3875,1.600729 0.005,0.516599 0.11625,1.05238 0.24686,1.190625 0.13062,0.138245 0.30921,0.75737 0.39688,1.375833 0.40225,2.837837 0.50292,3.241925 0.88729,3.561741 0.22531,0.187475 1.49316,0.479436 2.81744,0.648802 1.94032,0.248154 2.47701,0.241305 2.76434,-0.03528 0.27117,-0.261025 0.28701,-0.473166 0.0661,-0.885857 -0.15972,-0.298452 -0.29041,-0.900628 -0.29041,-1.338169 0,-0.437541 -0.11906,-0.869114 -0.26458,-0.959051 -0.14552,-0.08994 -0.26459,-0.685249 -0.26459,-1.322917 0,-0.637667 -0.10556,-1.224638 -0.23459,-1.304379 -0.12902,-0.07974 -0.31481,-0.592784 -0.41285,-1.140094 -0.0981,-0.547311 -0.29014,-1.382063 -0.42687,-1.855006 -0.62353,-2.156752 -0.86098,-2.898628 -1.16442,-3.638021 -0.17916,-0.436562 -0.47169,-1.27 -0.65006,-1.852083 -0.89253,-2.912657 -4.62431,-9.999992 -6.0362,-11.463861 -0.18639,-0.193248 -0.46519,-0.587366 -0.61957,-0.875818 -1.24465,-2.325646 -5.65961,-7.228406 -9.39593,-10.434052 -1.58966,-1.363883 -4.2582,-3.37747 -4.73972,-3.576436 -0.14552,-0.06013 -1.30529,-0.793674 -2.57727,-1.6301 -1.27198,-0.836426 -2.37567,-1.520775 -2.45265,-1.520775 -0.077,0 -0.61149,-0.297656 -1.18779,-0.661458 -0.5763,-0.363802 -1.22877,-0.661459 -1.44995,-0.661459 -0.22117,0 -0.40213,-0.119062 -0.40213,-0.264583 0,-0.145521 -0.20836,-0.26837 -0.46302,-0.272998 -0.25466,-0.0046 -0.69414,-0.183222 -0.97661,-0.396875 -0.28248,-0.213653 -0.77857,-0.38846 -1.10243,-0.38846 -0.32386,0 -0.62853,-0.09229 -0.67704,-0.205083 -0.0842,-0.195922 -2.98388,-1.197865 -5.51215,-1.904681 -0.65484,-0.183072 -1.48828,-0.433275 -1.85208,-0.556007 -0.36381,-0.122733 -1.10926,-0.301016 -1.65657,-0.396184 -0.54731,-0.09517 -1.06035,-0.278599 -1.1401,-0.407623 -0.0797,-0.129024 -0.73488,-0.234589 -1.45587,-0.234589 -0.72099,0 -1.51764,-0.115025 -1.77032,-0.25561 -0.69704,-0.387803 -5.54193,-0.85791 -9.98443,-0.968804 -4.00286,-0.09992 -10.560436,0.451972 -11.528906,0.970283 -0.26117,0.139772 -1.19002,0.254131 -2.06413,0.254131 -0.8741,0 -1.66286,0.119062 -1.7528,0.264583 -0.0899,0.145521 -0.63033,0.264583 -1.20088,0.264583 -0.57055,0 -1.48626,0.164326 -2.03491,0.365168 -0.54865,0.200842 -1.53332,0.512306 -2.18817,0.692143 -0.65484,0.179837 -1.48828,0.429116 -1.85208,0.553953 -0.3638,0.124837 -0.95911,0.281149 -1.32292,0.34736 -1.61515,0.293955 -7.05873,2.457174 -9.05839,3.599707 -0.25268,0.144377 -0.5853,0.262503 -0.73915,0.262503 -0.15384,0 -0.60073,0.297656 -0.99307,0.661458 -0.39235,0.363802 -0.84095,0.661459 -0.9969,0.661459 -0.15594,0 -0.51435,0.21069 -0.79645,0.4682 -0.2821,0.25751 -1.70354,1.227488 -3.15874,2.155507 -1.45521,0.928018 -3.30068,2.227745 -4.10105,2.888281 -2.35578,1.944216 -8.1613,7.729132 -9.33782,9.304678 -0.59766,0.800365 -1.26296,1.633802 -1.47843,1.852084 -0.21547,0.218281 -0.92797,1.230312 -1.58333,2.248958 -0.65536,1.018646 -1.28871,1.891771 -1.40745,1.940278 -0.11874,0.04851 -0.21588,0.217725 -0.21588,0.376041 0,0.158316 -0.16651,0.475816 -0.37003,0.705556 -0.36394,0.410846 -0.52487,0.684588 -2.26762,3.857292 -0.47961,0.873125 -0.95535,1.706562 -1.05721,1.852083 -0.10186,0.145521 -0.34576,0.681302 -0.542,1.190625 -0.19624,0.509323 -0.74261,1.730153 -1.21416,2.712956 -0.47155,0.982802 -0.93542,2.142296 -1.03082,2.576653 -0.0954,0.434357 -0.28336,0.857663 -0.41769,0.94068 -0.13432,0.08302 -0.24422,0.417758 -0.24422,0.743868 0,0.326109 -0.10039,0.706036 -0.22309,0.844281 -0.1227,0.138244 -0.42734,0.965729 -0.67697,1.838854 -0.24963,0.873125 -0.56596,1.794244 -0.70295,2.046931 -0.13699,0.252687 -0.24908,0.700786 -0.24908,0.995777 0,0.294991 -0.1031,0.743091 -0.22911,0.995778 -0.12602,0.252687 -0.37691,0.876149 -0.55753,1.385472 -0.3075,0.867077 -0.45203,1.469833 -1.03089,4.29948 -0.12652,0.618463 -0.50062,2.214922 -0.83134,3.547692 -0.75496,3.04244 -0.51489,3.774 0.99882,3.04366 z m 11.33272,-4.14395 c 0.82262,-0.36381 1.77149,-0.66146 2.1086,-0.66146 0.33711,0 0.68651,-0.11906 0.77644,-0.26459 0.0899,-0.145517 0.34686,-0.26458 0.57094,-0.26458 0.22408,0 0.7826,-0.170459 1.24116,-0.378799 0.45855,-0.20834 1.36952,-0.437819 2.02436,-0.509953 2.33396,-0.257097 5.64239,-1.098798 6.4824,-1.649187 0.57288,-0.375366 0.63672,-0.631993 0.73919,-2.971351 0.18522,-4.228226 0.63687,-5.45082 3.62574,-9.814696 1.69116,-2.469153 4.889,-5.676191 6.8052,-6.824768 2.19986,-1.318602 7.15295,-3.627351 8.44588,-3.936818 0.41624,-0.09963 0.87586,-0.268125 1.02138,-0.374436 0.3064,-0.223843 5.13819,-0.612116 7.27604,-0.584689 1.95476,0.02508 4.044,0.318858 4.3524,0.612016 0.13824,0.131412 0.67403,0.239664 1.19062,0.240561 0.5166,8.96e-4 1.28031,0.17949 1.69712,0.396875 0.41682,0.217385 0.8685,0.395245 1.00374,0.395245 0.13524,0 0.55455,0.286209 0.9318,0.63602 0.37726,0.349811 0.95944,0.7824 1.29373,0.961308 0.54054,0.289287 0.6822,0.240858 1.27997,-0.437582 0.36969,-0.419579 0.75082,-1.000996 0.84695,-1.292038 0.0961,-0.291041 0.49929,-1.005416 0.89591,-1.5875 0.39661,-0.582083 1.26745,-1.951302 1.93521,-3.042708 0.66775,-1.091406 1.63619,-2.460625 2.15209,-3.042708 0.5159,-0.582084 1.38523,-1.608556 1.93184,-2.28105 1.55906,-1.91812 3.61926,-3.189308 5.25254,-3.240941 1.47201,-0.04653 1.959,0.417739 1.959,1.867615 0,1.545748 -0.19326,1.863658 -3.02549,4.976975 -1.32399,1.455383 -2.81984,3.300994 -3.32412,4.101359 -0.50428,0.800365 -1.00832,1.494896 -1.12009,1.543403 -0.11177,0.04851 -0.20322,0.256866 -0.20322,0.463021 0,0.206154 -0.11906,0.374826 -0.26458,0.374826 -0.14552,0 -0.26458,0.120886 -0.26458,0.268635 0,0.147749 -0.59532,1.087116 -1.32292,2.087481 -0.7276,1.000365 -1.32292,1.98676 -1.32292,2.19199 0,0.205229 -0.13951,0.512655 -0.31002,0.683169 -0.23698,0.236978 -0.18406,0.576733 0.22459,1.441979 0.99899,2.115197 1.22326,2.981191 1.38944,5.365288 0.0913,1.309687 0.24492,2.507319 0.34139,2.661404 0.0965,0.154084 0.19971,0.987522 0.22943,1.852083 0.0297,0.864561 0.16497,1.789576 0.30058,2.055588 0.1694,0.332313 0.11599,0.758789 -0.17068,1.362903 -0.54604,1.150703 -0.5263,1.46073 0.093,1.46073 0.28065,0 0.69756,0.187288 0.92646,0.416195 0.54746,0.547454 1.3414,0.377274 1.3414,-0.287527 0,-0.343567 -0.20614,-0.554818 -0.59531,-0.610091 -0.51139,-0.07263 -0.59532,-0.244077 -0.59532,-1.21612 0,-0.622365 0.20139,-1.535271 0.44754,-2.028678 0.24614,-0.493408 0.43605,-1.302132 0.42202,-1.797166 -0.014,-0.495033 0.2013,-1.303875 0.47851,-1.797426 0.27721,-0.493551 0.50402,-1.050894 0.50402,-1.238539 0,-0.187646 0.36864,-0.749571 0.81921,-1.248723 0.45056,-0.499153 1.16451,-1.404633 1.58655,-2.012178 0.42204,-0.607545 1.09519,-1.274201 1.49589,-1.481456 0.40071,-0.207256 1.08574,-0.562363 1.52231,-0.789127 1.80551,-0.93784 4.53525,-1.787086 5.73907,-1.785473 0.53711,7.2e-4 1.04651,-0.111848 1.13198,-0.25015 0.17772,-0.287553 5.90348,-0.168671 9.53311,0.197931 2.17806,0.219989 3.46339,0.534239 4.69277,1.147327 0.25268,0.126015 0.64051,0.229118 0.86183,0.229118 0.22132,0 0.96708,0.283911 1.65724,0.630914 0.69015,0.347002 1.70474,0.852175 2.25464,1.122605 0.54989,0.270431 1.31255,0.760426 1.6948,1.088878 0.38224,0.328452 0.78466,0.597186 0.89426,0.597186 0.20605,0 2.89342,3.31712 2.89342,3.571453 0,0.07878 0.29766,0.614747 0.66146,1.191047 0.3638,0.5763 0.66146,1.340814 0.66146,1.698919 0,0.358106 0.1079,0.717792 0.23979,0.799304 0.13189,0.08151 0.32166,0.743381 0.42171,1.470823 0.18182,1.322018 0.18236,1.322621 1.18301,1.322621 0.5671,0 1.1439,-0.172058 1.33049,-0.396875 0.18115,-0.218281 0.64334,-0.396875 1.02708,-0.396875 0.83389,0 1.35838,-0.71405 1.06888,-1.455208 -0.11368,-0.291042 -0.21506,-0.909094 -0.22528,-1.373448 -0.0102,-0.464355 -0.13766,-0.917866 -0.28318,-1.007802 -0.14552,-0.08994 -0.26511,-0.722042 -0.26574,-1.404678 -6.3e-4,-0.682636 -0.29578,-2.074593 -0.65588,-3.093239 -0.3601,-1.018646 -0.65723,-2.119974 -0.6603,-2.447396 -0.003,-0.327422 -0.12465,-0.595313 -0.27017,-0.595313 -0.14552,0 -0.2683,-0.26789 -0.27285,-0.595312 -0.005,-0.327422 -0.30112,-1.190625 -0.65904,-1.918229 -0.35792,-0.727604 -0.65186,-1.45513 -0.65319,-1.616724 -0.001,-0.161594 -0.30007,-0.732429 -0.66388,-1.268521 -0.3638,-0.536092 -0.66145,-1.087271 -0.66145,-1.224841 0,-0.13757 -0.53578,-1.086 -1.19063,-2.107623 -0.65484,-1.021622 -1.19062,-1.946791 -1.19062,-2.05593 0,-0.10914 -0.29766,-0.519444 -0.66146,-0.911788 -0.3638,-0.392345 -0.66146,-0.809063 -0.66146,-0.926042 0,-0.116979 -0.29766,-0.533698 -0.66146,-0.926042 -0.3638,-0.392344 -0.66146,-0.812129 -0.66146,-0.932856 0,-0.317663 -4.72658,-5.149872 -5.82083,-5.950912 -0.50932,-0.372847 -1.16417,-0.899851 -1.45521,-1.17112 -0.65326,-0.608882 -3.25538,-2.471143 -3.4529,-2.471143 -0.0794,0 -0.79583,-0.416719 -1.59203,-0.926042 -0.7962,-0.509323 -1.54665,-0.926041 -1.66767,-0.926041 -0.12103,0 -0.77986,-0.297657 -1.46407,-0.661459 -0.68422,-0.363802 -1.38656,-0.662547 -1.56077,-0.663877 -0.1742,-0.0013 -0.91204,-0.295263 -1.63964,-0.653184 -0.72761,-0.357921 -1.53128,-0.654489 -1.78594,-0.65904 -0.25466,-0.0046 -0.46302,-0.127336 -0.46302,-0.272857 0,-0.145521 -0.38695,-0.26837 -0.8599,-0.272998 -0.47294,-0.0046 -1.09101,-0.183222 -1.37348,-0.396875 -0.28248,-0.213653 -0.82421,-0.38846 -1.20386,-0.38846 -0.37964,0 -0.80337,-0.108087 -0.94161,-0.240193 -0.13825,-0.132106 -0.84667,-0.304799 -1.57427,-0.383763 -0.72761,-0.07896 -2.75167,-0.346676 -4.49792,-0.594915 -2.10352,-0.299027 -5.00546,-0.45805 -8.59896,-0.471213 -6.80095,-0.02491 -10.84781,0.381085 -14.43858,1.448536 -0.44689,0.132851 -1.10501,0.241548 -1.46248,0.241548 -0.35747,0 -0.8848,0.161057 -1.17184,0.357905 -0.28704,0.196847 -1.09141,0.355597 -1.78748,0.352777 -0.69608,-0.0028 -1.4045,0.133779 -1.57427,0.303554 -0.16978,0.169774 -0.52461,0.30868 -0.78852,0.30868 -0.26391,0 -0.68659,0.105863 -0.93927,0.23525 -0.25269,0.129388 -0.87615,0.416222 -1.38548,0.637409 -2.95969,1.285331 -5.94603,2.850693 -7.77956,4.077849 -1.15006,0.769721 -2.17728,1.399492 -2.28271,1.399492 -0.10542,0 -0.35029,0.191114 -0.54415,0.424697 -0.19386,0.233583 -1.01211,0.874133 -1.81833,1.423444 -2.97536,2.027215 -7.06731,6.037138 -9.31889,9.132068 -0.52933,0.727604 -1.2709,1.611561 -1.64793,1.964349 -0.37703,0.352789 -0.68551,0.770724 -0.68551,0.928746 0,0.158021 -0.26789,0.584199 -0.59531,0.947061 -0.32742,0.362862 -0.88089,1.195083 -1.22994,1.84938 -0.34904,0.654296 -0.77475,1.368224 -0.94602,1.586505 -0.17128,0.218282 -0.65777,1.11125 -1.08109,1.984375 -0.42332,0.873125 -1.15847,2.206859 -1.63366,2.963853 -0.47519,0.756994 -0.86398,1.502577 -0.86398,1.65685 0,0.154273 -0.41051,1.142258 -0.91224,2.195522 -0.50173,1.053264 -0.99117,2.243572 -1.08764,2.64513 -0.0965,0.401557 -0.28128,0.795537 -0.41068,0.87551 -0.1294,0.07997 -0.23527,0.42901 -0.23527,0.775636 0,0.346625 -0.11907,0.703813 -0.26459,0.79375 -0.14552,0.08994 -0.26458,0.415932 -0.26458,0.724434 0,0.615741 -0.39088,1.970433 -0.95778,3.319438 -0.37013,0.880761 -0.51255,4.584059 -0.18875,4.907869 0.36235,0.36235 1.70759,0.15561 3.15628,-0.48507 z m 29.11387,-7.00785 c 0.35422,-0.0043 3.60804,-3.30009 3.80454,-3.853653 0.2017,-0.568202 4.00415,-4.352044 4.37344,-4.352044 0.53227,0 2.67552,-1.025994 3.02638,-1.448758 0.4396,-0.529679 0.15219,-1.197075 -0.51551,-1.197075 -0.29561,0 -0.53747,-0.119062 -0.53747,-0.264583 0,-0.153838 -0.80291,-0.256489 -1.91823,-0.245246 -1.41277,0.01424 -2.12738,0.152911 -2.71198,0.526253 -0.43656,0.278804 -0.97027,0.591125 -1.18603,0.694048 -1.17555,0.560779 -5.56084,5.593963 -5.56084,6.382407 0,0.137863 -0.1786,0.398881 -0.39688,0.580038 -0.21828,0.181157 -0.39687,0.648173 -0.39687,1.037813 0,0.38964 -0.14883,0.859763 -0.33073,1.044718 -0.45764,0.465318 0.73607,1.452752 1.50617,1.245905 0.29939,-0.08042 0.6792,-0.147836 0.84401,-0.149823 z m 53.75604,-2.976964 c 0.0842,-0.434113 -1.41234,-2.012201 -3.51586,-3.707378 l -1.2312,-0.992188 h -2.6625 c -2.61921,0 -2.69637,0.01804 -4.74443,1.109293 -2.91543,1.553406 -2.81907,2.055635 0.42656,2.223302 1.06521,0.05503 2.254,0.220673 2.64177,0.368102 0.38777,0.147429 1.2033,0.27658 1.81229,0.287002 0.60899,0.01042 2.35741,0.293411 3.88538,0.628864 3.07815,0.675784 3.27206,0.680535 3.38799,0.083 z"
       id="path1" /></g></svg>
