<?xml version="1.0" encoding="UTF-8" standalone="no"?>
<!-- Created with Inkscape (http://www.inkscape.org/) -->

<svg
   width="107.97968mm"
   height="173.12541mm"
   viewBox="0 0 107.97968 173.12541"
   version="1.1"
   id="svg1"
   xml:space="preserve"
   xmlns="http://www.w3.org/2000/svg"
   xmlns:svg="http://www.w3.org/2000/svg"><defs
     id="defs1"><linearGradient
       id="swatch2"><stop
         style="stop-color:#000000;stop-opacity:1;"
         offset="0"
         id="stop2" /></linearGradient></defs><g
     id="layer1"
     transform="translate(-44.219632,-49.644548)"><path
       style="fill:#22372b;fill-opacity:1;stroke:#22372b;stroke-opacity:1"
       d="m 52.761713,221.323 c -0.24441,-0.24441 -0.3175,-10.50209 -0.3175,-44.56065 0,-24.33374 0.0723,-44.43149 0.1606,-44.66167 0.22305,-0.58126 91.798227,-0.57376 92.018387,0 0.0883,0.23018 0.1606,20.32793 0.1606,44.66167 0,34.05856 -0.0731,44.31624 -0.3175,44.56065 -0.50239,0.5024 -39.45576,0.4549 -39.87364,-0.0486 -0.2078,-0.25039 -0.28076,-1.69312 -0.23084,-4.56406 l 0.073,-4.19794 15.41197,-0.0683 15.41198,-0.0683 v -9.11174 -9.11175 l -1.40181,0.4823 c -2.15493,0.74142 -8.4853,2.30309 -11.39508,2.81114 -3.58059,0.62518 -6.77086,0.41242 -10.75102,-0.71699 -2.87512,-0.81584 -3.28316,-0.8636 -7.40834,-0.86707 l -4.365627,-0.004 -3.04271,1.03604 c -3.027171,1.03075 -3.06432,1.03611 -7.27604,1.05112 -4.03472,0.0144 -4.41502,-0.0309 -8.1059,-0.96508 -6.30331,-1.59541 -11.07865,-1.92526 -16.50035,-1.13974 -1.45521,0.21084 -2.73513,0.38712 -2.84427,0.39173 -0.10914,0.005 -0.19844,3.63884 -0.19844,8.07605 v 8.06766 l 15.41198,0.0683 15.41198,0.0683 0.0729,4.34582 c 0.0554,3.29954 -0.008,4.39739 -0.26458,4.56001 -0.18563,0.11781 -9.15409,0.21601 -19.9299,0.21824 -14.89033,0.003 -19.6686,-0.0721 -19.9099,-0.31345 z m 38.25475,-4.37672 0.0754,-2.70984 -15.42121,-0.0683 -15.42121,-0.0683 -0.13229,-40.34896 -0.13229,-40.34896 h -2.77813 -2.77812 l -0.0679,42.8625 c -0.0374,23.57438 -0.011,43.01215 0.0585,43.19506 0.10021,0.26348 3.90617,0.31846 18.32419,0.26458 l 18.19771,-0.068 z m 51.782967,-40.41724 v -43.12708 h -2.77813 -2.77812 l -0.13229,40.34896 -0.13229,40.34895 -15.41198,0.0683 -15.41198,0.0683 v 2.59961 c 0,1.42978 0.0802,2.67979 0.1782,2.7778 0.098,0.098 8.34308,0.14764 18.32239,0.11024 l 18.1442,-0.068 z m -46.169797,18.54915 c 4.862717,-1.6943 9.085237,-1.70466 15.869167,-0.0389 4.62776,1.13632 6.53601,1.1876 11.12954,0.29906 3.52085,-0.68105 5.76282,-1.26477 9.37232,-2.44027 l 2.25814,-0.7354 v -2.5913 -2.5913 H 98.614003 61.969213 v 3.72519 3.72519 l 0.7276,-0.14822 c 5.663324,-1.15368 12.75245,-0.86382 18.73788,0.7662 3.70046,1.00776 4.9906,1.16503 8.84494,1.07819 3.32112,-0.0748 3.7669,-0.14842 6.35,-1.04844 z M 135.2588,182.34987 v -2.77812 H 98.614003 61.969213 v 2.77812 2.77813 h 36.64479 36.644797 z m -49.741667,-6.97764 v -2.34743 l -1.0342,-0.16538 c -1.1181,-0.17879 -2.27585,-1.27837 -2.56687,-2.43793 -0.43826,-1.74614 0.69471,-3.55649 2.57908,-4.12106 0.99406,-0.29783 1.02199,-0.3395 1.02199,-1.52513 v -1.21893 l -1.32426,-0.47033 c -1.488472,-0.52865 -2.0977,-1.26375 -2.3005,-2.77573 -0.22973,-1.71276 0.83553,-3.24201 2.56642,-3.68425 0.88945,-0.22725 0.929191,-0.28947 1.00478,-1.57421 l 0.0787,-1.33761 -1.04679,-0.16739 c -1.131071,-0.18086 -2.28686,-1.27413 -2.57945,-2.43994 -0.43555,-1.73535 0.93215,-3.79935 2.78766,-4.20689 0.77154,-0.16945 0.81341,-0.24458 0.81341,-1.45952 0,-1.22877 -0.0348,-1.28852 -0.85602,-1.46889 -0.47081,-0.1034 -1.11539,-0.35796 -1.43241,-0.56568 -0.71745,-0.47009 -1.41606,-1.90223 -1.41475,-2.90021 0.002,-1.53671 1.68237,-3.26731 3.17246,-3.26731 0.51836,0 0.54891,-0.12308 0.47616,-1.91822 l -0.0777,-1.91823 -11.70782,-0.0689 -11.70781,-0.0689 v 22.22775 22.22775 h 11.77396 11.77396 z m 24.341667,-0.0338 v -2.38125 H 98.614003 87.369213 v 2.38125 2.38125 h 11.24479 11.244797 z m 25.4,-19.84651 v -22.22775 l -11.70781,0.0689 -11.70781,0.0689 -0.0777,1.91823 c -0.0748,1.84609 -0.0549,1.91827 0.52917,1.91922 0.3338,5.4e-4 0.98807,0.2334 1.45395,0.51746 2.52172,1.53759 1.97637,5.39685 -0.8702,6.15821 l -1.16747,0.31226 v 1.24702 c 0,1.17714 0.0456,1.25702 0.8134,1.42567 1.85552,0.40754 3.22321,2.47154 2.78767,4.20688 -0.2926,1.16581 -1.44838,2.25909 -2.57946,2.43995 l -1.04678,0.16738 0.0787,1.34355 c 0.0753,1.28502 0.11666,1.35125 0.94946,1.52047 1.67249,0.33983 2.8516,2.0183 2.62174,3.73205 -0.2028,1.51199 -0.81203,2.24708 -2.3005,2.77573 l -1.32426,0.47033 v 1.21894 c 0,1.18563 0.0279,1.2273 1.02198,1.52513 1.88437,0.56457 3.01734,2.37491 2.57909,4.12106 -0.29103,1.15955 -1.44877,2.25914 -2.56688,2.43793 l -1.03419,0.16537 v 2.34744 2.34743 h 11.77396 11.77395 z m -22.17968,15.17529 c 0.68988,-0.62433 0.59975,-1.54921 -0.21329,-2.18875 -0.68467,-0.53856 -0.93955,-0.54837 -14.251827,-0.54837 -13.31227,0 -13.56714,0.01 -14.25182,0.54837 -0.79609,0.62621 -0.875757,1.19554 -0.28526,2.03859 l 0.41188,0.58804 h 14.05323 c 12.705377,0 14.099637,-0.042 14.537087,-0.43788 z m -3.22032,-5.91212 v -1.32291 H 98.614003 87.369213 v 1.32291 1.32292 h 11.24479 11.244797 z m 2.77202,-3.48494 c 0.87577,-0.39903 1.11717,-1.35264 0.55834,-2.20553 l -0.43214,-0.65953 H 98.740193 c -13.66404,0 -14.03013,0.0133 -14.54598,0.52917 -0.82642,0.82642 -0.67376,1.72255 0.39688,2.32967 0.76272,0.43251 27.091297,0.43835 28.039727,0.006 z m -2.77202,-6.17235 v -1.45521 H 98.614003 87.369213 v 1.45521 1.45521 h 11.24479 11.244797 z m 3.29229,-3.89533 c 0.55881,-0.79781 0.51769,-1.35086 -0.14506,-1.95064 -0.53274,-0.48212 -1.15826,-0.50403 -14.392027,-0.50403 -13.23376,0 -13.85927,0.0219 -14.39201,0.50403 -0.66275,0.59978 -0.703885,1.15282 -0.14507,1.95064 l 0.41188,0.58804 h 14.1252 14.125207 z m -3.29229,-5.76196 v -1.32292 H 98.614003 87.369213 v 1.32292 1.32291 h 11.24479 11.244797 z m 2.75351,-3.43023 c 0,-0.93729 1.14618,-1.39133 0.57685,-2.26024 l -0.43214,-0.65953 H 98.614003 84.470993 l -0.43214,0.65953 c -0.545285,0.83221 -0.3051,1.92402 0.49401,2.24557 0.80928,0.32564 28.079447,0.92857 28.079447,0.0147 z m -2.75351,-6.7591 v -1.98725 l -11.178647,0.069 -11.17865,0.069 -0.0777,1.91823 -0.0777,1.91823 h 11.25638 11.256387 z"
       id="path1" /><path
       d="m 44.380304,130.36877 c -0.0867,-0.14025 -0.15897,-2.73134 -0.16064,-5.75798 -0.002,-4.24478 0.0857,-5.71394 0.38492,-6.42568 0.39913,-0.94929 1.48248,-2.10755 2.41567,-2.58271 0.34958,-0.17799 7.566533,-0.24877 22.295213,-0.20855 17.41394,0.0476 22.3545,-0.0106 22.56603,-0.26544 0.33589,-0.40472 0.12832,-7.30105 -0.28217,-9.3754 -0.15839,-0.80036 -0.35813,-1.81239 -0.44386,-2.24895 -0.0857,-0.43657 -0.4804,-1.27 -0.87703,-1.85209 -0.39663,-0.58208 -0.95524,-1.53458 -1.24134,-2.116668 -0.28611,-0.582083 -0.79596,-1.534583 -1.13301,-2.116666 -0.33705,-0.582084 -0.97057,-1.713177 -1.40783,-2.513542 -0.43725,-0.800365 -1.4106,-2.526771 -2.16299,-3.836458 -0.7524,-1.309688 -1.53797,-2.678907 -1.74571,-3.042709 -0.20775,-0.363802 -0.43725,-0.720989 -0.51001,-0.79375 -0.0728,-0.07276 -0.41637,-0.668073 -0.76357,-1.322917 -3.02754,-5.710042 -5.10596,-9.751432 -6.80354,-13.229162 -1.10101,-2.25558 -2.11101,-4.30779 -2.24444,-4.56048 -0.13344,-0.25268 -0.24638,-0.60987 -0.25098,-0.79375 -0.005,-0.18387 -0.28155,-0.64431 -0.61546,-1.0232 -0.51075,-0.57956 -0.91884,-0.71919 -2.57133,-0.87984 -2.72234,-0.26467 -4.09156,-0.90964 -4.63879,-2.18513 -0.23801,-0.55476 -0.54622,-1.22972 -0.68492,-1.49993 -0.29799,-0.58055 -0.2167,-5.39933 0.12969,-7.68799 0.28161,-1.86058 1.35966,-3.44832 2.73016,-4.02095 0.70347,-0.29393 6.56529,-0.36252 32.69298,-0.38255 19.962843,-0.0153 32.082523,0.0712 32.497293,0.23184 0.87273,0.33809 1.70823,1.27687 2.2007,2.47272 0.30743,0.7465 0.38939,1.96449 0.35609,5.29166 -0.0401,4.00929 -0.0873,4.39279 -0.65189,5.30082 -0.77657,1.24891 -1.95284,1.95529 -3.62469,2.17674 -2.14014,0.28347 -2.57915,0.57196 -3.37347,2.21681 -0.4002,0.82872 -1.03734,2.04255 -1.41587,2.69739 -1.37825,2.38436 -3.2608,5.78002 -4.48432,8.08864 -0.68862,1.29932 -1.32989,2.42194 -1.42505,2.4947 -0.0952,0.0728 -0.61754,1.02526 -1.16085,2.11666 -0.54332,1.09141 -1.26142,2.460627 -1.59579,3.042711 -0.33436,0.582083 -1.06015,1.891771 -1.61287,2.910416 -0.55271,1.018646 -1.09672,1.971146 -1.20891,2.116667 -0.24497,0.317745 -1.09613,1.862532 -2.697,4.894792 -1.77384,3.359939 -3.11828,5.609496 -3.79503,6.349996 -0.55852,0.61113 -0.60815,0.92322 -0.65219,4.10105 -0.0262,1.89177 -0.0357,4.74927 -0.021,6.35 l 0.0267,2.91042 h 21.89429 19.77761 l 1.21923,0.71676 c 1.22321,0.7191 1.93239,1.53993 2.55013,2.95163 0.41451,0.94728 0.46534,10.27185 0.0601,11.02901 -0.26632,0.49764 0.78765,0.5075 -53.033373,0.51174 -34.93175,0.003 -54.406583,-0.0884 -54.506903,-0.25068 z m 47.537353,-1.77355 c 0.30821,-0.0771 0.32728,-1.19244 0.262,-4.51981 l -0.0844,-4.29948 -12.61564,-0.0164 c -6.93861,-0.009 -16.93386,-0.0267 -22.21167,-0.0392 -5.27781,-0.0126 -9.145423,0.0557 -9.241453,0.15174 -0.096,0.096 -0.20041,1.92939 -0.23195,4.07413 -0.0425,2.88837 0.0348,4.04594 0.29784,4.46424 l 0.35517,0.56474 21.297273,-0.0798 c 12.004536,-0.045 21.953763,-0.24539 22.17279,-0.30015 z m 10.548163,0.16833 c -0.56032,0 0.50775,-0.6744 0.44563,-13.29532 l -0.0641,-13.02251 0.72819,-1.45521 c 0.4005,-0.80036 1.08648,-2.05052 1.52441,-2.778124 0.43792,-0.727605 1.0427,-1.858698 1.34395,-2.513542 0.30126,-0.654844 0.67793,-1.42875 0.83705,-1.719792 0.15912,-0.291041 0.63395,-1.182113 1.05516,-1.980159 0.42121,-0.798046 0.85633,-1.512421 0.96693,-1.5875 0.1106,-0.07508 0.53823,-0.831822 0.95029,-1.681651 0.41205,-0.849829 0.87881,-1.683266 1.03723,-1.852083 0.15842,-0.168817 0.56638,-0.842721 0.90658,-1.497565 2.01496,-3.878666 3.57547,-6.742786 4.27353,-7.843506 0.43806,-0.69076 0.79913,-1.38145 0.80237,-1.53486 0.003,-0.15341 0.23871,-0.57658 0.52328,-0.94038 0.28457,-0.36381 0.52005,-0.8599 0.52328,-1.10243 0.003,-0.24254 0.0996,-0.48066 0.21405,-0.52917 0.11449,-0.0485 0.54021,-0.7733 0.94604,-1.61065 0.40583,-0.83735 0.88337,-1.67079 1.06119,-1.85208 0.61129,-0.62322 2.4699,-3.24052 2.63566,-3.71154 0.11859,-0.337 -0.0103,-0.5385 -0.45199,-0.70642 -0.34621,-0.13163 -10.80873,-0.21514 -23.794273,-0.18992 -18.03742,0.035 -23.2491,0.11775 -23.50439,0.37304 -0.26099,0.26099 -0.23752,0.51785 0.11483,1.25672 0.24357,0.51078 0.53479,0.9287 0.64714,0.9287 0.11235,0 0.3711,0.38695 0.575,0.85989 0.2039,0.47294 0.59016,1.17593 0.85834,1.5622 0.26819,0.38627 0.48761,0.89228 0.48761,1.12448 0,0.2322 0.11906,0.42218 0.26458,0.42218 0.14552,0 0.26459,0.12481 0.26459,0.27736 0,0.2929 0.48789,1.29916 1.78978,3.69139 1.10232,2.0255 2.8781,5.39425 4.79112,9.089013 0.89301,1.72474 1.84628,3.451147 2.11838,3.836458 0.27209,0.385312 0.92726,1.534004 1.45591,2.55265 1.05731,2.037277 1.54268,2.881917 2.61971,4.558805 0.39536,0.615571 0.71885,1.183484 0.71885,1.262028 0,0.07854 0.32322,0.646457 0.71827,1.262029 0.81442,1.269029 1.85003,3.320229 2.36844,4.691099 0.2709,0.71634 0.34629,3.38259 0.33294,11.77396 -0.01,5.96635 -0.11757,11.3837 -0.24017,12.03854 -0.34937,1.86609 -0.46015,1.82351 5.370723,2.0641 0.70079,0.0289 2.10187,-0.22023 1.7839,-0.22023 z M 95.062427,95.543022 c -0.44772,-0.376737 -0.81405,-0.843066 -0.81405,-1.036284 0,-0.193219 -0.0948,-0.390994 -0.21074,-0.439501 -0.11592,-0.04851 -0.6942,-0.921632 -1.28509,-1.940278 -0.59088,-1.018646 -1.57854,-2.671609 -2.19481,-3.673251 -3.88161,-6.30898 -4.65856,-8.39076 -3.44801,-9.23867 0.80105,-0.56107 1.86914,-0.24805 2.2069,0.64677 0.15689,0.41568 0.37823,0.75578 0.49184,0.75578 0.11362,0 0.20658,0.13044 0.20658,0.28988 0,0.15944 0.22419,0.60592 0.49819,0.99219 0.274,0.38626 0.73407,1.11902 1.02238,1.62834 0.2883,0.50933 1.33266,2.295263 2.32079,3.968752 3.42971,5.808519 3.64038,6.384933 2.88614,7.896851 -0.50431,1.010898 -0.64178,1.023124 -1.68012,0.149421 z m 53.209793,33.052258 c -0.39882,0.39882 0.48034,-0.88994 0.48034,-3.95312 0,-3.78649 -0.25286,-4.84722 -1.16695,-4.89534 -0.30407,-0.016 -3.91305,-0.0144 -10.60701,0.004 -6.69396,0.018 -16.31113,0.0311 -21.3715,0.0291 l -9.20068,-0.004 0.0726,4.43177 0.0725,4.43177 1.32292,0.13229 c 0.7276,0.0728 10.48294,0.16063 21.67852,0.19526 18.56469,0.0574 19.13705,-0.78952 18.71927,-0.37174 z M 129.91743,60.446818 c 0,0.762227 0.7137,-0.42212 0.78765,-2.81536 0.059,-1.91004 -0.0191,-2.62117 -0.34235,-3.11443 -0.23036,-0.35157 -0.52909,-0.57108 -0.66385,-0.48779 -0.13477,0.0833 -14.05185,0.14712 -30.926873,0.14185 -27.5127,-0.009 -30.72466,0.0332 -31.09648,0.40506 -0.32701,0.32702 -0.414654,1.03974 -0.41467,3.37231 l -2e-5,2.95767 30.9727,-0.0596 c 24.592213,-0.0473 31.683893,-1.025651 31.683893,-0.39972 z"
       style="fill:#22372b;fill-opacity:1;stroke:none;stroke-opacity:1"
       id="path1-4" /></g></svg>
