<?xml version="1.0" encoding="UTF-8" standalone="no"?>
<!-- Created with Inkscape (http://www.inkscape.org/) -->

<svg
   width="84.330711mm"
   height="133.5762mm"
   viewBox="0 0 84.330711 133.5762"
   version="1.1"
   id="svg1"
   xml:space="preserve"
   xmlns="http://www.w3.org/2000/svg"
   xmlns:svg="http://www.w3.org/2000/svg"><defs
     id="defs1" /><g
     id="layer1"
     transform="translate(-63.451982,-58.890425)"><path
       style="fill:#22372b;fill-opacity:1"
       d="m 114.84428,192.35714 c -0.29104,-0.0736 -0.76729,-0.23724 -1.05833,-0.36366 -0.29105,-0.12641 -1.00542,-0.31019 -1.5875,-0.40839 -2.35164,-0.39674 -3.48378,-0.62624 -4.36563,-0.885 -0.50932,-0.14945 -1.34276,-0.38378 -1.85208,-0.52073 -1.79515,-0.48271 -5.38583,-1.93062 -5.51215,-2.22273 -0.0485,-0.11216 -0.26083,-0.20394 -0.471821,-0.20394 -0.54122,0 -2.87232,-1.21185 -4.65099,-2.41787 -0.82876,-0.56194 -1.57812,-1.02171 -1.66524,-1.02171 -0.0871,0 -0.85974,-0.56555 -1.71694,-1.25677 -0.8572,-0.69122 -2.51799,-2.02674 -3.69063,-2.96782 -2.26874,-1.82073 -8.23867,-7.69361 -9.46861,-9.31471 -2.09425,-2.76025 -3.13801,-4.0642 -3.31685,-4.14369 -0.10914,-0.0485 -0.19844,-0.19739 -0.19844,-0.33085 0,-0.13346 -0.7739,-1.36041 -1.71979,-2.72656 -0.94589,-1.36614 -1.71979,-2.60166 -1.71979,-2.7456 0,-0.14394 -0.16895,-0.40192 -0.37545,-0.5733 -0.41245,-0.3423 -3.85788,-7.18832 -3.85788,-7.66555 0,-0.1633 -0.11577,-0.50366 -0.25727,-0.75635 -0.27484,-0.49081 -1.86565,-5.31508 -2.33268,-7.07401 -1.28673,-4.84616 -1.72758,-10.30226 -1.52854,-18.91771 0.10013,-4.33388 0.30389,-7.5512 0.56975,-8.99583 0.22763,-1.23693 0.47777,-2.72521 0.55586,-3.30729 0.0781,-0.58209 0.2355,-1.1774 0.34981,-1.32292 0.1143,-0.14552 0.39897,-0.91943 0.6326,-1.71979 0.91878,-3.14756 2.82912,-7.47472 4.16771,-9.44038 0.41424,-0.6083 0.75317,-1.168365 0.75317,-1.244581 0,-0.373118 3.94848,-5.290483 5.63087,-7.012581 2.74566,-2.81046 8.0162,-6.118219 11.88859,-7.461206 1.08922,-0.377751 1.49492,-1.006975 0.92022,-1.427208 -0.32503,-0.237664 -1.1184,-1.567392 -2.47249,-4.144018 -0.20227,-0.38487 -0.54387,-0.845933 -0.75914,-1.024585 -0.21526,-0.178651 -0.39138,-0.495689 -0.39138,-0.704527 0,-0.374616 -1.22426,-2.738228 -1.55133,-2.995083 -0.0927,-0.07276 -0.34706,-0.446774 -0.56534,-0.83114 -0.52979,-0.932893 -1.28061,-1.96103 -2.27383,-3.113647 -0.45025,-0.522503 -0.9265,-1.145104 -1.05833,-1.383558 -0.13184,-0.238454 -1.05918,-1.335836 -2.06074,-2.438626 -2.64004,-2.906855 -2.67552,-2.972457 -2.62392,-4.8522 0.0548,-1.997043 0.38001,-2.658198 1.54733,-3.145937 2.38556,-0.996752 4.41383,-0.08442 6.81427,3.065108 0.61,0.800364 1.18069,1.514739 1.26819,1.5875 0.40904,0.340118 4.47245,6.587941 4.47245,6.876749 0,0.14685 0.11906,0.267001 0.26458,0.267001 0.14552,0 0.26458,0.219671 0.26458,0.488159 0,0.268488 0.22561,0.692328 0.50135,0.941867 0.49335,0.446476 3.29956,5.755959 3.99875,7.565807 0.19676,0.509323 0.70859,1.445707 1.13741,2.080854 0.86096,1.275233 0.73896,1.25874 4.01979,0.543438 2.368291,-0.516347 3.911801,-0.544347 7.408331,-0.134388 4.36689,0.512006 5.10268,0.644644 6.1254,1.104206 0.45856,0.206052 1.02572,0.37464 1.26036,0.37464 0.23465,0 0.63337,0.105171 0.88606,0.233714 0.25269,0.128543 0.81662,0.396244 1.25318,0.594891 0.43656,0.198647 0.85328,0.429108 0.92604,0.512135 0.0728,0.08303 0.68821,0.416596 1.36765,0.741264 0.67945,0.324668 1.37864,0.762942 1.55375,0.973942 0.17512,0.211001 0.45323,0.383638 0.61802,0.383638 0.16479,0 1.1701,0.654843 2.23401,1.455208 1.06391,0.800365 2.04876,1.455208 2.18856,1.455208 0.42722,0 6.28003,6.069778 8.29157,8.598959 2.34692,2.950857 4.12565,5.453657 4.98302,7.011457 1.46632,2.66426 2.76274,5.2219 3.17945,6.2726 0.24283,0.61228 0.6945,1.68384 1.0037,2.38125 0.94577,2.13326 0.99631,2.26445 1.66055,4.31074 0.35427,1.0914 0.78889,2.69875 0.96581,3.57187 0.17692,0.87313 0.41227,1.70656 0.52298,1.85208 0.11072,0.14552 0.27615,0.80037 0.36762,1.45521 0.0915,0.65485 0.28424,1.84547 0.42837,2.64584 1.16272,6.45695 1.4125,18.03565 0.53082,24.60625 -0.69099,5.14949 -1.15113,7.91397 -1.54138,9.26041 -0.14762,0.50933 -0.40496,1.40229 -0.57187,1.98438 -0.55717,1.94312 -1.38329,4.2305 -1.61969,4.48469 -0.12858,0.13824 -0.23377,0.42422 -0.23377,0.63552 0,0.51932 -2.96642,6.49151 -3.96205,7.97666 -0.439,0.65485 -0.7987,1.28096 -0.79932,1.39136 -0.003,0.47519 -3.00876,4.22159 -5.02822,6.26653 -3.49444,3.53855 -5.14013,4.53351 -10.94532,6.6174 -1.53087,0.54954 -6.45872,0.96377 -7.7078,0.64791 z M 81.097949,116.45367 c 0.41553,-0.21488 2.29697,-2.26871 4.18096,-4.56407 3.12468,-3.80693 4.55917,-5.27966 7.20808,-7.40023 0.50932,-0.40773 1.16416,-0.95779 1.45521,-1.22234 0.29104,-0.26455 1.09471,-0.78962 1.78593,-1.16681 l 1.25677,-0.68579 v -2.850543 c 0,-3.215686 0.17214,-2.982762 -2.42197,-3.277261 -0.94851,-0.107679 -1.55937,-0.0672 -1.66926,0.110619 -0.0953,0.154245 -0.44015,0.280446 -0.76625,0.280446 -0.32611,0 -0.70604,0.09998 -0.84429,0.222177 -0.13824,0.122197 -0.66807,0.384257 -1.17739,0.582355 -0.50932,0.198098 -1.56561,0.782728 -2.34731,1.299177 -0.7817,0.51645 -1.71833,1.100982 -2.08139,1.298962 -1.0359,0.564871 -3.8404,3.552168 -4.53554,4.831148 -2.66085,4.89572 -3.21353,6.5855 -3.1216,9.54407 0.0424,1.364 0.21397,2.42406 0.45217,2.79347 0.45251,0.70176 1.5058,0.78383 2.62588,0.20462 z"
       id="path1" /></g></svg>
