<?xml version="1.0" encoding="UTF-8" standalone="no"?>
<!-- Created with Inkscape (http://www.inkscape.org/) -->

<svg
   width="210mm"
   height="297mm"
   viewBox="0 0 210 297"
   version="1.1"
   id="svg1"
   xml:space="preserve"
   xmlns="http://www.w3.org/2000/svg"
   xmlns:svg="http://www.w3.org/2000/svg"><defs
     id="defs1"><linearGradient
       id="swatch2"><stop
         style="stop-color:#000000;stop-opacity:1;"
         offset="0"
         id="stop2" /></linearGradient></defs><g
     id="layer1"><path
       style="fill:#22372b;fill-opacity:1"
       d="m 111.16625,180.09405 c -4.59452,-0.50356 -9.14348,-2.06023 -13.525507,-4.62847 -3.934624,-2.30601 -8.511694,-7.47781 -10.422534,-11.77677 -1.9907,-4.47863 -2.6064,-7.25182 -2.7725,-12.48779 -0.15675,-4.94137 0.24707,-8.50302 1.42835,-12.59786 0.36458,-1.26379 0.78759,-2.77405 0.94003,-3.35614 0.65808,-2.51284 6.86822,-15.33918 9.47966,-19.57916 3.005774,-4.88023 7.575661,-14.68527 9.556961,-20.50521 2.35309,-6.912012 4.42903,-15.390799 6.02457,-24.606248 0.40537,-2.341279 0.7812,-5.998808 0.93797,-9.128125 0.0802,-1.600729 0.19827,-3.327135 0.26239,-3.836458 0.0641,-0.509323 0.19258,-1.521354 0.28548,-2.248958 0.25146,-1.969402 0.91241,-4.711979 1.2269,-5.090921 0.4072,-0.490642 1.09751,-0.405312 1.46362,0.180917 0.54639,0.874908 1.17722,7.948976 1.14343,12.822348 -0.009,1.295852 0.0973,3.61757 0.23612,5.159375 0.13886,1.541804 0.33156,3.75578 0.42823,4.919946 0.0967,1.164167 0.21364,2.181612 0.25994,2.260989 0.0463,0.07938 0.15157,0.793752 0.23393,1.5875 0.32928,3.173521 0.47006,4.210407 0.96829,7.131719 0.8564,5.021386 1.91367,9.298777 3.33533,13.493749 0.58431,1.72415 3.99852,8.941177 5.31966,11.244797 0.25037,0.43656 0.86181,1.50812 1.35875,2.38124 0.49694,0.87313 1.33852,2.24235 1.87018,3.04271 4.22174,6.35547 8.848,14.98377 10.63967,19.84375 0.29506,0.80037 0.64083,1.56832 0.76838,1.70656 0.12755,0.13825 0.23191,0.46151 0.23191,0.71836 0,0.25685 0.17609,0.98568 0.39132,1.61962 0.21523,0.63394 0.44451,1.44177 0.50951,1.79519 0.065,0.35341 0.13884,0.64256 0.16409,0.64256 0.0252,0 0.0833,0.29766 0.12909,0.66146 0.0458,0.3638 0.20886,1.55443 0.36246,2.64583 0.9703,6.89442 -0.27387,14.31571 -3.39606,20.25698 -1.59526,3.03568 -2.50409,4.29858 -4.71886,6.55735 -4.52325,4.6131 -10.28563,7.73342 -16.43529,8.89968 -1.97857,0.37523 -6.45377,0.51408 -8.68547,0.26948 z m 14.41091,-9.77987 c 2.19931,-1.02918 5.65321,-4.34372 7.2724,-6.97898 1.86872,-3.04138 3.05571,-6.49747 2.44223,-7.11095 -0.35113,-0.35112 -1.46338,0.52476 -1.74634,1.37523 -0.69008,2.07411 -4.63488,7.7319 -6.37246,9.13964 -1.51968,1.2312 -3.64224,2.77169 -3.82045,2.77276 -0.52023,0.003 -1.74968,1.24928 -1.5505,1.57155 0.29853,0.48303 1.71652,0.19409 3.77512,-0.76925 z M 92.962209,147.56519 c 0.0848,-0.13725 0.45096,-1.77436 0.81363,-3.63802 0.91286,-4.69085 1.59874,-7.19494 2.792294,-10.19441 0.96363,-2.42164 4.583507,-9.71987 6.860377,-13.83157 3.96949,-7.16831 6.8884,-14.45633 7.2361,-18.06729 0.12887,-1.33842 0.0826,-1.69288 -0.23704,-1.81554 -0.83276,-0.319558 -1.34718,0.68949 -2.71766,5.33075 -0.55806,1.88991 -3.41633,8.61877 -4.27079,10.05416 -0.25988,0.43657 -1.87743,3.53219 -3.594567,6.87917 -1.71714,3.34698 -3.31982,6.4426 -3.561504,6.87917 -2.72154,4.91591 -5.24543,14.91294 -4.47209,17.71376 0.24607,0.89116 0.81582,1.23255 1.15125,0.68982 z"
       id="path2" /></g></svg>
