<?xml version="1.0" encoding="UTF-8" standalone="no"?>
<!-- Created with Inkscape (http://www.inkscape.org/) -->

<svg
   width="144.39371mm"
   height="66.131012mm"
   viewBox="0 0 144.39371 66.131012"
   version="1.1"
   id="svg1"
   xml:space="preserve"
   xmlns="http://www.w3.org/2000/svg"
   xmlns:svg="http://www.w3.org/2000/svg"><defs
     id="defs1" /><g
     id="layer1"
     transform="translate(-34.230975,-73.625031)"><path
       style="fill:#22372b;fill-opacity:1;stroke-width:1.04529"
       d="m 76.330441,119.22997 c -0.48069,-0.48068 -0.48069,-44.765652 0,-45.246331 0.46581,-0.465813 9.37996,-0.465813 9.84577,0 0.48068,0.480679 0.48068,44.765651 0,45.246331 -0.23147,0.23147 -1.72085,0.33188 -4.92289,0.33188 -3.20203,0 -4.69141,-0.10045 -4.92288,-0.33188 z m 20.46593,0 c -0.48067,-0.48068 -0.48067,-44.765652 0,-45.246331 0.519797,-0.519774 17.896879,-0.457141 20.922999,0.07542 7.15446,1.259084 13.19599,5.343718 16.5853,11.213184 8.03941,13.922337 -0.3307,31.021727 -16.5853,33.882317 -3.02612,0.53256 -20.403202,0.59519 -20.922999,0.0755 z m 18.943929,-9.9002 c 5.16847,-0.6715 9.20256,-4.15123 10.57527,-9.12204 2.11526,-7.659759 -2.47257,-14.95908 -10.23749,-16.28802 -1.00119,-0.17135 -3.45917,-0.311545 -5.4622,-0.311545 h -3.64185 v 12.99864 12.998635 l 3.38794,-0.008 c 1.86337,-0.005 4.28361,-0.1249 5.37833,-0.26713 z m 29.85766,9.72631 c -0.41798,-0.46186 -0.45695,-2.41261 -0.44892,-22.471051 0.007,-17.826219 0.078,-22.056487 0.3762,-22.449278 0.34244,-0.451102 1.45118,-0.483992 16.31549,-0.483992 h 15.9481 l 0.26971,0.709422 c 0.35967,0.945983 0.34639,7.480698 -0.0166,8.158899 -0.27562,0.515011 -0.69294,0.534951 -11.19568,0.534951 h -10.90939 l -0.1542,0.622276 c -0.0848,0.34225 -0.11829,2.240191 -0.0744,4.217643 l 0.0797,3.59537 8.27372,0.07333 c 5.54102,0.04911 8.39558,0.174476 8.64271,0.379573 0.51146,0.424478 0.53268,8.120377 0.0233,8.450057 -0.19014,0.12306 -4.07936,0.28597 -8.64271,0.36203 l -8.29701,0.13828 v 4.42507 4.42506 l 11.06267,0.1383 c 6.08447,0.0761 11.21824,0.23896 11.40838,0.36202 0.47885,0.30991 0.49147,8.5083 0.0138,8.98593 -0.25045,0.25045 -4.24346,0.33188 -16.27458,0.33188 -15.09379,0 -15.96706,-0.027 -16.40041,-0.50577 z m -98.307039,-0.10264 c -0.25119,-0.2512 -0.33188,-4.62174 -0.33188,-17.97685 V 83.331598 h -5.8079 c -7.38386,0 -6.91418,0.324598 -6.91418,-4.778381 0,-2.875936 0.0933,-3.805387 0.43053,-4.286786 l 0.43054,-0.614672 h 17.14964 c 11.2928,0 17.33234,0.09778 17.6846,0.286297 0.82138,0.439592 0.82138,8.667654 0,9.107244 -0.32132,0.171966 -2.91683,0.286298 -6.49932,0.286298 h -5.96438 v 17.644962 c 0,13.35511 -0.0807,17.72565 -0.33188,17.97684 -0.23147,0.23147 -1.72085,0.33189 -4.92288,0.33189 -3.20204,0 -4.69142,-0.10046 -4.92289,-0.33189 z"
       id="path1" /><path
       style="fill:#22372b;fill-opacity:1;stroke-width:0.327408"
       d="m 60.370324,139.62129 c -1.02736,-0.33679 -1.84908,-1.26248 -2.16262,-2.43626 -0.13718,-0.51354 -0.15388,-1.99348 -0.0299,-2.65196 0.30416,-1.61577 1.60927,-2.76159 3.14672,-2.76265 0.87925,-5.2e-4 1.38183,0.19865 1.96649,0.77965 0.57728,0.57367 0.77053,1.07691 0.83961,2.18656 l 0.0471,0.75677 -2.84898,0.0229 -2.84897,0.0229 -0.0258,0.59318 c -0.0572,1.31523 0.67005,2.56298 1.78247,3.05817 0.86684,0.38585 2.25637,0.20166 3.08703,-0.40922 0.26278,-0.19324 0.36705,-0.22788 0.45822,-0.15221 0.17242,0.1431 -0.1167,0.4195 -0.80339,0.76804 -0.49551,0.25151 -0.65246,0.28655 -1.40209,0.313 -0.55629,0.0196 -0.96749,-0.0108 -1.20587,-0.0888 z m 3.41629,-5.02546 c -0.0789,-0.98298 -0.59091,-1.85368 -1.32201,-2.24819 -0.55101,-0.29732 -1.84759,-0.27211 -2.38949,0.0465 -0.46911,0.27579 -0.95503,0.79152 -1.20214,1.27591 -0.19593,0.38406 -0.4466,1.3537 -0.36981,1.4305 0.0268,0.0268 1.23659,0.0489 2.68833,0.0489 h 2.63954 z m 7.20644,5.0267 c -0.4743,-0.12792 -0.90277,-0.38308 -1.24635,-0.74222 -0.34835,-0.36412 -0.39527,-0.33912 -0.39527,0.21051 0,0.41869 -0.021,0.47644 -0.17326,0.47644 -0.17144,0 -0.17325,-0.0577 -0.17325,-5.54412 0,-5.48636 0.002,-5.54411 0.17325,-5.54411 0.1689,0 0.17326,0.0577 0.17326,2.29561 0,1.26259 0.0117,2.29561 0.026,2.29561 0.0143,0 0.24214,-0.20933 0.50629,-0.46518 0.61494,-0.59561 1.21727,-0.83422 2.10588,-0.83422 1.85416,0 2.9025,1.47024 2.90315,4.07145 6.6e-4,2.5309 -1.04124,3.91184 -2.9366,3.89237 -0.31295,-0.004 -0.74635,-0.0536 -0.96311,-0.11208 z m 2.04356,-0.43355 c 0.99648,-0.46403 1.51364,-1.61363 1.51115,-3.35918 -0.002,-1.41766 -0.33008,-2.4692 -0.96584,-3.09596 -0.5024,-0.49528 -0.72413,-0.57317 -1.63169,-0.57317 -0.9736,0 -1.48403,0.20392 -1.95014,0.77908 -0.6276,0.77444 -0.64866,0.87084 -0.64866,2.96877 v 1.89228 l 0.25077,0.39543 c 0.67696,1.06746 2.2793,1.53064 3.43441,0.99275 z m 13.83941,0.39022 c -1.47228,-0.50871 -2.27827,-1.86138 -2.27827,-3.82352 0,-1.77977 0.71831,-3.12028 1.99221,-3.7179 0.68329,-0.32055 2.17924,-0.33034 2.77226,-0.0182 1.36226,0.71717 1.98986,1.89552 1.98986,3.73604 0,1.2946 -0.22456,2.02295 -0.8886,2.88219 -0.73947,0.95684 -2.33269,1.3749 -3.58746,0.94132 z m 1.9818,-0.27463 c 1.29189,-0.35883 2.15031,-1.77315 2.15031,-3.54285 0,-1.62064 -0.63698,-2.82703 -1.79334,-3.39639 -0.59805,-0.29448 -1.87472,-0.29668 -2.46837,-0.004 -2.44658,1.20509 -2.36584,5.80263 0.12002,6.834 0.51011,0.21165 1.43962,0.26276 1.99138,0.10957 z m 19.556146,0.31749 c -0.94974,-0.25607 -1.54401,-0.81839 -1.83121,-1.73271 -0.35108,-1.11774 -0.0269,-1.95831 1.22609,-3.17962 l 0.85093,-0.8294 -0.30464,-0.41978 c -0.58796,-0.8102 -0.75807,-1.29673 -0.75738,-2.16615 0.001,-1.46185 0.67543,-2.16354 2.07842,-2.16296 0.84192,3.3e-4 1.27131,0.1931 1.65123,0.74122 0.22702,0.32754 0.25456,0.43838 0.25456,1.02444 0,0.92397 -0.21338,1.25841 -1.42555,2.23427 -0.52047,0.419 -0.94866,0.78558 -0.95151,0.81459 -0.004,0.029 0.46943,0.59426 1.04949,1.25609 1.65642,1.88991 2.25654,2.54605 2.32872,2.54605 0.22371,0 0.71068,-1.27272 0.82035,-2.14401 0.0466,-0.36956 0.0881,-0.4548 0.22237,-0.4548 0.41214,0 -0.0167,1.84576 -0.62831,2.7048 l -0.17348,0.24362 0.65798,0.75643 c 0.58822,0.67625 0.63765,0.75961 0.46632,0.78636 -0.14595,0.0228 -0.33033,-0.12178 -0.7733,-0.60639 l -0.58166,-0.63631 -0.33246,0.31372 c -0.94754,0.89412 -2.52398,1.26726 -3.84696,0.91054 z m 2.29284,-0.417 c 0.57632,-0.20598 1.10322,-0.53156 1.43168,-0.88468 l 0.21001,-0.22577 -0.17494,-0.19491 c -0.18653,-0.20782 -2.57926,-2.92204 -3.02026,-3.42606 l -0.263,-0.3006 -0.53717,0.44702 c -1.65872,1.38042 -1.9772,2.97407 -0.82011,4.10392 0.6697,0.65396 2.08842,0.86901 3.17379,0.48108 z m -0.91605,-6.17447 c 1.23449,-0.98651 1.57686,-1.53567 1.45042,-2.32638 -0.13319,-0.83289 -0.58574,-1.19655 -1.50667,-1.21075 -1.85314,-0.0285 -2.41154,1.85799 -1.11637,3.77154 0.15313,0.22622 0.2979,0.41123 0.32172,0.41113 0.0238,-8e-5 0.40673,-0.29059 0.8509,-0.64554 z m 9.69169,6.65517 c -0.0334,-0.0334 -0.0607,-2.37369 -0.0607,-5.2006 v -5.13986 h 3.16823 c 2.97072,0 3.16642,0.01 3.13906,0.15159 -0.0269,0.14027 -0.24768,0.15331 -2.95165,0.17441 l -2.9225,0.0229 v 2.25114 2.25114 h 2.56151 2.56151 l -0.0277,0.19492 -0.0278,0.19491 -2.53252,0.0229 -2.53253,0.0229 -0.023,2.53136 c -0.02,2.20474 -0.0402,2.53471 -0.15713,2.55719 -0.0738,0.0141 -0.1615,-0.001 -0.1949,-0.035 z m 9.4577,-0.0896 c -0.84269,-0.28135 -1.58508,-1.05811 -1.99488,-2.08723 -0.29235,-0.73413 -0.2943,-2.57362 -0.004,-3.41481 0.31511,-0.91192 0.91931,-1.63581 1.70582,-2.04374 0.34723,-0.18009 0.58979,-0.23204 1.22309,-0.26192 0.74478,-0.0352 0.82246,-0.0218 1.3583,0.23395 0.93122,0.44443 1.4042,1.19462 1.54429,2.44946 0.048,0.43016 0.0665,0.83651 0.041,0.90302 -0.0384,0.1 -0.53336,0.1209 -2.8672,0.1209 -2.46522,0 -2.82729,0.0169 -2.87222,0.13399 -0.10118,0.26371 0.14452,1.69298 0.36629,2.13062 0.86341,1.70388 2.90267,2.16296 4.5323,1.02033 0.39229,-0.27506 0.62083,-0.22425 0.42217,0.0939 -0.42286,0.67712 -2.37028,1.08381 -3.45525,0.72157 z m 3.45746,-5.084 c -0.0468,-0.72927 -0.26759,-1.26353 -0.71075,-1.71984 -0.48337,-0.49771 -0.85235,-0.63166 -1.74,-0.63166 -0.70256,0 -0.82558,0.0255 -1.24433,0.25737 -0.76698,0.42481 -1.39506,1.3763 -1.5313,2.31979 l -0.0594,0.41147 h 2.66334 2.66334 z m 22.0473,5.06704 c -1.47227,-0.50872 -2.27827,-1.86139 -2.27827,-3.82353 0,-1.77977 0.7183,-3.12028 1.99221,-3.7179 0.68329,-0.32055 2.17924,-0.33034 2.77227,-0.0182 1.36225,0.71718 1.98985,1.89553 1.98985,3.73604 0,1.2946 -0.22455,2.02295 -0.88861,2.88219 -0.73947,0.95684 -2.33268,1.3749 -3.58745,0.94132 z m 1.9818,-0.27464 c 1.29189,-0.35882 2.15031,-1.77315 2.15031,-3.54284 0,-1.62065 -0.63698,-2.82704 -1.79335,-3.3964 -0.59803,-0.29447 -1.87472,-0.29668 -2.46836,-0.004 -2.44658,1.20509 -2.36584,5.80263 0.12002,6.83401 0.51011,0.21164 1.43962,0.26275 1.99138,0.10957 z m 5.63385,0.30591 c -0.83628,-0.23359 -1.51164,-0.86822 -1.62255,-1.52467 -0.10335,-0.61137 0.21378,-0.58196 0.38677,0.0359 0.22468,0.80249 1.12447,1.27232 2.43662,1.27232 1.96108,0 3.00627,-1.5651 1.83043,-2.74093 -0.36705,-0.36705 -0.87747,-0.58995 -2.05716,-0.89834 -1.65836,-0.43354 -2.17344,-0.78973 -2.3786,-1.64493 -0.19913,-0.83007 0.20664,-1.60963 1.06994,-2.05554 0.93411,-0.48248 2.66515,-0.34618 3.47806,0.27386 0.54994,0.41945 0.96609,1.60839 0.56298,1.60839 -0.11664,0 -0.17325,-0.0577 -0.17325,-0.1767 0,-0.55162 -0.7033,-1.30017 -1.42341,-1.51501 -1.04779,-0.31259 -2.14695,-0.11699 -2.75394,0.48995 -0.39788,0.39787 -0.41388,0.43309 -0.41388,0.91074 0,0.98084 0.67786,1.46969 2.68544,1.93662 1.06328,0.24731 1.95237,0.88184 2.14732,1.53253 0.30954,1.03314 -0.11592,1.91217 -1.15112,2.37858 -0.55544,0.25025 -1.92792,0.31159 -2.62365,0.11724 z m 7.37766,0.007 c -0.3993,-0.17648 -0.69712,-0.62575 -0.80495,-1.21434 -0.0552,-0.30155 -0.0941,-1.66971 -0.0941,-3.30998 v -2.79595 l -0.71372,-0.0251 c -0.59209,-0.0208 -0.71853,-0.0504 -0.74198,-0.17316 -0.0246,-0.12843 0.0671,-0.15135 0.69206,-0.17326 l 0.72032,-0.0253 0.0434,-1.03855 c 0.0372,-0.89239 0.0643,-1.04257 0.1922,-1.06701 0.13321,-0.0255 0.15145,0.0839 0.17325,1.03855 l 0.0244,1.06701 0.97455,0.0244 c 0.89736,0.0226 0.97455,0.0378 0.97455,0.19207 0,0.1543 -0.0772,0.16952 -0.97455,0.19207 l -0.97455,0.0244 0.001,3.03194 c 10e-4,2.6973 0.018,3.06761 0.15204,3.3551 0.21424,0.4594 0.51138,0.62222 1.22824,0.67305 0.46592,0.0331 0.61079,0.0741 0.61079,0.17326 0,0.17964 -1.10577,0.21739 -1.48313,0.0505 z m -120.638296,-4.9667 -0.0224,-5.0027 -1.97076,-0.0233 c -1.89895,-0.0224 -1.97076,-0.0296 -1.97076,-0.19492 0,-0.16859 0.0703,-0.17162 3.98483,-0.17162 3.92708,0 3.98484,0.002 3.98484,0.17326 0,0.16775 -0.0578,0.17324 -1.81917,0.17324 h -1.81916 v 5.02436 c 0,4.95977 -0.002,5.02435 -0.17255,5.02435 -0.17007,0 -0.17287,-0.072 -0.19491,-5.00269 z m 5.04531,1.14781 c 0,-3.79715 0.002,-3.85489 0.17325,-3.85489 0.15997,0 0.17326,0.0577 0.17326,0.75328 v 0.75329 l 0.24532,-0.38683 c 0.459,-0.72378 1.13224,-1.13873 2.02939,-1.25083 0.52774,-0.066 0.87026,0.048 0.78804,0.26234 -0.0368,0.0959 -0.19598,0.12863 -0.6261,0.12863 -0.94855,0 -1.62304,0.46854 -2.11688,1.47051 l -0.27646,0.56093 -0.0262,2.70923 c -0.0254,2.61808 -0.0319,2.70922 -0.19491,2.70922 -0.16465,0 -0.16869,-0.0924 -0.16869,-3.85488 z m 12.30101,0 v -3.85489 h 0.21656 0.21657 v 3.85489 3.85488 h -0.21657 -0.21656 z m 11.0016,-1.68923 c 0,-5.48636 0.002,-5.54412 0.17325,-5.54412 0.16906,0 0.17326,0.0577 0.17326,2.38224 0,2.18957 0.0522,2.72687 0.21506,2.21371 0.0294,-0.0927 0.25879,-0.35581 0.50971,-0.58472 0.58809,-0.53652 1.18579,-0.75706 2.04729,-0.75541 1.06487,0.002 1.7239,0.408 2.15513,1.32757 l 0.22711,0.48429 0.0277,3.01028 c 0.0275,2.99508 0.0267,3.01027 -0.1516,3.01027 -0.17752,0 -0.17926,-0.0269 -0.17926,-2.76292 0,-2.5046 -0.016,-2.81462 -0.17073,-3.3157 -0.30067,-0.97342 -0.8873,-1.37127 -2.02197,-1.37127 -0.91345,0 -1.48675,0.26518 -1.98621,0.91873 -0.62091,0.81248 -0.6722,1.1171 -0.6722,3.99251 0,2.48091 -0.004,2.53865 -0.17325,2.53865 -0.17145,0 -0.17325,-0.0577 -0.17325,-5.54411 z m 16.19922,0 c 0,-5.48636 0.002,-5.54412 0.17325,-5.54412 0.171452,0 0.173252,0.0577 0.173252,5.54412 0,5.48637 -0.002,5.54411 -0.173252,5.54411 -0.17145,0 -0.17325,-0.0577 -0.17325,-5.54411 z m 2.272183,5.39076 c 0.0221,-0.0843 0.617847,-0.95169 1.323981,-1.92745 0.706137,-0.97574 1.663711,-2.30034 2.127948,-2.94355 0.464247,-0.64321 1.019724,-1.40257 1.234404,-1.68749 0.21468,-0.28491 0.37177,-0.54805 0.3491,-0.58473 -0.0227,-0.0366 -1.110927,-0.0667 -2.418338,-0.0667 -2.319358,0 -2.377108,-0.004 -2.377108,-0.17325 0,-0.16953 0.0578,-0.17325 2.685415,-0.17325 2.499971,0 2.685391,0.0108 2.684961,0.15159 -6.6e-4,0.18678 -0.0904,0.32532 -1.14701,1.76964 -2.736262,3.74015 -3.874656,5.31954 -3.875696,5.37708 -6.7e-4,0.0357 1.226761,0.0649 2.727565,0.0649 2.670981,0 2.728731,0.004 2.728731,0.17325 0,0.16997 -0.0577,0.17325 -3.042031,0.17325 -2.867792,0 -3.039732,-0.008 -3.001922,-0.15335 z m 39.222033,-3.70153 c 0,-3.79715 0.002,-3.85489 0.17325,-3.85489 0.17065,0 0.17325,0.0577 0.17325,3.85489 0,3.79714 -0.002,3.85488 -0.17325,3.85488 -0.17065,0 -0.17325,-0.0577 -0.17325,-3.85488 z m 2.77205,0 v -3.85489 h 0.21657 c 0.21313,0 0.21664,0.0108 0.22111,0.71467 0.005,0.69401 0.008,0.70841 0.14711,0.49809 0.58559,-0.8896 1.45107,-1.34625 2.53377,-1.33689 1.16383,0.01 1.85869,0.46521 2.2616,1.48139 0.19268,0.48599 0.20151,0.6164 0.23246,3.42886 0.0316,2.87573 0.0293,2.92365 -0.14095,2.92365 -0.16877,0 -0.174,-0.0709 -0.20971,-2.83702 -0.0384,-2.97978 -0.0708,-3.25035 -0.45502,-3.8159 -0.4146,-0.61012 -0.75391,-0.75366 -1.78147,-0.75366 -0.85891,0 -0.93897,0.0152 -1.28343,0.24321 -0.53972,0.35732 -0.84238,0.72929 -1.08922,1.33863 -0.21849,0.53941 -0.21968,0.55658 -0.21968,3.18354 v 2.6412 h -0.21657 -0.21657 z m 8.14292,-1.68923 c 0,-5.48636 0.002,-5.54412 0.17326,-5.54412 0.17028,0 0.17325,0.0577 0.17325,3.36919 0,3.73076 -0.0424,3.47434 0.57468,3.47434 0.32981,0 0.47409,-0.12329 2.75957,-2.3582 0.75816,-0.74139 1.19083,-1.10289 1.32194,-1.10449 0.10718,-0.001 0.19492,0.0164 0.19492,0.0395 0,0.023 -0.78875,0.81935 -1.75277,1.76962 l -1.75276,1.72774 0.56164,0.59118 c 0.48922,0.51493 1.23686,1.32164 2.90282,3.13217 0.42409,0.46088 0.42466,0.46228 0.17345,0.43313 -0.2012,-0.0233 -0.61103,-0.41358 -2.03222,-1.93503 l -1.78018,-1.90579 h -0.56389 -0.56388 l -0.0233,1.92744 c -0.0225,1.85565 -0.0297,1.92745 -0.19492,1.92745 -0.16925,0 -0.1716,-0.0756 -0.1716,-5.54411 z m -79.610006,-5.06164 c 0,-0.45952 0.0105,-0.48248 0.22109,-0.48248 0.21229,0 0.22005,0.0181 0.19491,0.45479 -0.0228,0.39622 -0.0513,0.45837 -0.22109,0.48248 -0.18212,0.0259 -0.19491,-0.004 -0.19491,-0.45479 z m 68.695036,-0.006 c 0,-0.4187 0.0209,-0.47645 0.17325,-0.47645 0.15225,0 0.17325,0.0577 0.17325,0.47645 0,0.41869 -0.021,0.47645 -0.17325,0.47645 -0.15226,0 -0.17325,-0.0577 -0.17325,-0.47645 z"
       id="path2" /></g></svg>
