<?xml version="1.0" encoding="UTF-8" standalone="no"?>
<!-- Created with Inkscape (http://www.inkscape.org/) -->

<svg
   width="143.11481mm"
   height="29.536465mm"
   viewBox="0 0 143.11481 29.536465"
   version="1.1"
   id="svg1"
   xml:space="preserve"
   xmlns="http://www.w3.org/2000/svg"
   xmlns:svg="http://www.w3.org/2000/svg"><defs
     id="defs1"><style
       id="style1">.n{fill:#676e44;}</style></defs><g
     id="layer1"
     transform="translate(-44.894573,-114.64983)"><g
       id="g2"
       transform="matrix(0.09463098,0,0,0.09463098,34.668201,90.960064)"><g
         id="a" /><g
         id="b" /><g
         id="c" /><g
         id="d" /><g
         id="e" /><g
         id="f" /><g
         id="g" /><g
         id="h" /><g
         id="i" /><g
         id="j" /><g
         id="k"><g
           id="g3"
           transform="matrix(10.725859,0,0,10.725859,98.412544,89.450432)"
           style="fill:#22372b;fill-opacity:1"><g
             fill="#737373"
             id="g20"
             style="fill:#22372b;fill-opacity:1"><path
               d="m 5.1,39 0.1,1.5 H 5.1 C 5,40.2 4.8,39.9 4.6,39.7 4.3,39.4 3.9,39.3 3.5,39.3 c -0.6,0 -1.1,0.3 -1.4,0.7 -0.3,0.4 -0.4,0.9 -0.4,1.4 0,0.4 0.1,0.8 0.3,1.2 0.1,0.4 0.4,0.6 0.7,0.8 0.3,0.2 0.6,0.3 0.9,0.3 0.2,0 0.4,0 0.5,-0.1 0.2,0 0.3,-0.1 0.5,-0.2 V 42 c 0,-0.2 0,-0.3 0,-0.5 0,-0.1 -0.1,-0.1 -0.2,-0.2 -0.1,0 -0.3,0 -0.4,0 v -0.1 h 1.8 v 0.1 H 5.7 c -0.1,0 -0.3,0 -0.4,0.2 0,0.2 -0.1,0.4 -0.1,0.5 v 1.4 C 4.9,43.5 4.7,43.7 4.4,43.7 4.1,43.8 3.8,43.8 3.5,43.8 2.7,43.8 1.9,43.5 1.4,42.9 1,42.5 0.9,41.9 0.9,41.4 0.9,41 1,40.6 1.2,40.2 1.4,39.8 1.8,39.4 2.2,39.1 2.6,39.1 2.9,39 3.4,39 h 0.5 c 0.2,0 0.4,0.1 0.6,0.2 0.1,0 0.2,0 0.3,0.1 h 0.1 c 0,-0.1 0,-0.2 0,-0.2 z"
               id="path1-2"
               style="fill:#22372b;fill-opacity:1" /><path
               d="m 9.5,39.3 v 1.9 h 1.1 c 0.2,0 0.4,0 0.5,-0.1 0.1,-0.2 0.2,-0.4 0.2,-0.6 h 0.1 v 1.7 h -0.1 c 0,-0.1 0,-0.3 -0.1,-0.4 0,-0.1 -0.1,-0.1 -0.2,-0.2 -0.1,0 -0.3,-0.1 -0.4,-0.1 H 9.5 v 1.6 0.4 c 0,0 0,0.1 0.1,0.1 0.1,0 0.2,0 0.3,0 h 0.8 0.6 c 0.1,0 0.3,-0.1 0.4,-0.2 0.2,-0.2 0.3,-0.4 0.4,-0.7 h 0.1 l -0.4,1.2 H 8.1 v -0.1 h 0.2 c 0.1,0 0.2,0 0.3,-0.1 0.1,0 0.1,-0.1 0.2,-0.2 0,-0.1 0,-0.3 0,-0.4 V 40 c 0,-0.2 0,-0.4 -0.1,-0.6 C 8.6,39.3 8.4,39.2 8.3,39.3 H 8.2 v -0.1 h 3.6 v 1.1 h -0.1 c 0,-0.2 -0.1,-0.4 -0.2,-0.5 0,-0.1 -0.2,-0.2 -0.3,-0.2 -0.2,0 -0.3,0 -0.5,0 z"
               id="path2-7"
               style="fill:#22372b;fill-opacity:1" /><path
               d="m 21.2,39.1 c -0.1,0.1 -0.2,0.1 -0.3,0.1 -0.1,0 -0.2,0.1 -0.2,0.3 -0.1,0.2 -0.2,0.4 -0.2,0.6 l -1.3,3.8 H 19 l -1.1,-3 -1.1,3 h -0.1 l -1.4,-4 c 0,-0.2 -0.1,-0.4 -0.2,-0.5 0,-0.1 -0.1,-0.1 -0.2,-0.2 -0.1,0 -0.2,-0.1 -0.3,0 V 39 h 1.8 v 0.1 h -0.1 c -0.1,0 -0.2,0 -0.3,0.1 0,0 -0.1,0.1 -0.1,0.2 0,0.2 0.1,0.4 0.2,0.6 l 0.9,2.6 0.7,-2.2 V 40 l -0.1,-0.3 c 0,-0.1 -0.1,-0.2 -0.2,-0.3 l -0.1,-0.1 c 0,0 -0.1,-0.1 -0.2,-0.1 -0.1,0 -0.1,0 -0.2,0 v -0.1 h 1.8 v 0.1 h -0.1 c -0.1,0 -0.2,0 -0.3,0.1 0,0 -0.1,0.1 -0.1,0.2 0,0.2 0.1,0.4 0.2,0.6 l 0.9,2.6 0.9,-2.6 c 0.1,-0.2 0.1,-0.4 0.2,-0.6 v -0.1 l -0.1,-0.1 c -0.1,0 -0.2,0 -0.4,0 v -0.1 z"
               id="path3-6"
               style="fill:#22372b;fill-opacity:1" /><path
               d="m 26.8,37.8 c 0.1,0 0.2,0 0.3,0.1 0.1,0.1 0.1,0.4 0,0.5 -0.1,0.1 -0.2,0.1 -0.3,0.1 -0.1,0 -0.2,0 -0.3,-0.1 -0.1,-0.1 -0.1,-0.4 0,-0.5 0.1,0 0.2,-0.1 0.3,-0.1 m -1.2,0 c 0.1,0 0.2,0 0.3,0.1 0.1,0.1 0.1,0.4 0,0.5 -0.1,0.1 -0.2,0.1 -0.3,0.1 -0.1,0 -0.2,0 -0.3,-0.1 -0.1,-0.1 -0.1,-0.4 0,-0.5 0,0 0.2,-0.1 0.3,-0.1 m 1.2,1.4 1.7,-0.1 v 0.1 h -0.2 c -0.2,0 -0.4,0.1 -0.4,0.2 0,0.2 -0.1,0.4 -0.1,0.5 v 1.9 c 0,0.4 0,0.7 -0.1,1.1 -0.1,0.3 -0.3,0.5 -0.6,0.7 -0.4,0.2 -0.7,0.3 -1.1,0.3 -0.4,0 -0.8,-0.1 -1.2,-0.3 -0.3,-0.2 -0.5,-0.4 -0.6,-0.7 -0.1,-0.4 -0.1,-0.8 -0.1,-1.1 V 40 c 0,-0.2 0,-0.4 -0.1,-0.6 -0.1,-0.1 -0.3,-0.1 -0.4,-0.1 h -0.2 v -0.1 h 2.1 v 0.1 h -0.2 c -0.2,0 -0.3,0 -0.4,0.2 -0.1,0.2 -0.1,0.4 -0.1,0.5 v 2 0.6 c 0,0.2 0.1,0.4 0.2,0.6 0.1,0.1 0.2,0.3 0.4,0.4 0.2,0.1 0.4,0.1 0.6,0.1 0.3,0 0.6,0 0.8,-0.2 0.2,-0.1 0.4,-0.3 0.5,-0.5 0.1,-0.4 0.2,-0.7 0.1,-1.1 V 40 c 0,-0.2 0,-0.4 -0.1,-0.6 -0.1,-0.1 -0.3,-0.2 -0.5,-0.2 z"
               id="path4-1"
               style="fill:#22372b;fill-opacity:1" /><path
               d="m 32.2,41.4 h 0.2 c 0.4,0 0.7,-0.1 1,-0.3 0.2,-0.2 0.4,-0.4 0.4,-0.7 0,-0.3 -0.1,-0.5 -0.3,-0.7 -0.2,-0.2 -0.5,-0.3 -0.7,-0.3 -0.2,0 -0.4,0 -0.5,0 v 2 z m 3.4,2.4 H 34.3 L 32.7,41.6 H 32.4 32.3 32.2 V 43 c 0,0.2 0,0.4 0.1,0.6 0.1,0.1 0.3,0.2 0.4,0.2 h 0.2 v 0.1 h -2 V 43.8 H 31 c 0.2,0 0.4,0 0.4,-0.2 0,-0.2 0.1,-0.4 0.1,-0.5 V 40 c 0,-0.2 0,-0.4 -0.1,-0.6 C 31.3,39.3 31.1,39.2 31,39.2 H 30.8 V 39 h 1.7 c 0.4,0 0.7,0 1.1,0.1 0.2,0.1 0.4,0.2 0.6,0.4 0.2,0.2 0.3,0.4 0.3,0.7 0,0.3 -0.1,0.6 -0.3,0.7 -0.2,0.2 -0.5,0.4 -0.9,0.4 l 1,1.4 c 0.1,0.3 0.4,0.5 0.6,0.7 0.2,0.1 0.4,0.2 0.6,0.2 z"
               id="path5-4"
               style="fill:#22372b;fill-opacity:1" /><path
               d="m 41.8,39.1 -3.1,4.4 h 1.9 c 0.3,0 0.5,0 0.7,-0.2 0.2,-0.2 0.4,-0.5 0.4,-0.8 h 0.1 l -0.2,1.3 h -3.9 v -0.1 l 3,-4.3 h -1.5 c -0.2,0 -0.4,0 -0.5,0.1 -0.1,0 -0.2,0.1 -0.3,0.2 -0.1,0.2 -0.1,0.4 -0.2,0.6 h -0.1 l 0.1,-1.2 z"
               id="path6-2"
               style="fill:#22372b;fill-opacity:1" /><path
               d="m 45.7,39.3 v 1.9 h 1.1 c 0.2,0 0.4,0 0.5,-0.1 0.1,-0.2 0.2,-0.4 0.2,-0.6 h 0.1 v 1.7 h -0.1 c 0,-0.1 0,-0.3 -0.1,-0.4 0,-0.1 -0.1,-0.1 -0.2,-0.2 -0.1,0 -0.3,-0.1 -0.4,-0.1 h -1.1 v 1.6 0.4 c 0,0 0,0.1 0.1,0.1 0.1,0 0.2,0 0.3,0 h 0.8 0.6 c 0.1,0 0.3,-0.1 0.4,-0.2 0.2,-0.2 0.3,-0.4 0.4,-0.7 h 0.1 L 48,43.9 h -3.6 v -0.1 h 0.2 c 0.1,0 0.2,0 0.3,-0.1 0.1,0 0.1,-0.1 0.2,-0.2 0,-0.1 0,-0.3 0,-0.4 V 40 c 0,-0.2 0,-0.4 -0.1,-0.6 -0.1,-0.1 -0.3,-0.2 -0.4,-0.1 H 44.4 V 39.2 H 48 v 1.1 h -0.1 c 0,-0.2 -0.1,-0.4 -0.2,-0.5 0,-0.1 -0.2,-0.2 -0.3,-0.2 -0.2,0 -0.3,0 -0.5,0 z"
               id="path7-3"
               style="fill:#22372b;fill-opacity:1" /><path
               d="m 57,40.8 c 0.3,-0.1 0.5,-0.3 0.7,-0.5 0.1,-0.2 0.2,-0.4 0.2,-0.6 0,-0.1 0,-0.3 -0.2,-0.4 -0.1,-0.1 -0.2,-0.2 -0.4,-0.2 -0.2,0 -0.4,0.1 -0.4,0.2 -0.1,0.1 -0.2,0.3 -0.2,0.4 v 0.4 c 0.1,0.3 0.2,0.6 0.3,0.7 m 0.5,2.2 c -0.3,-0.4 -0.5,-0.7 -0.7,-0.9 -0.1,-0.2 -0.3,-0.4 -0.4,-0.7 -0.3,0.1 -0.4,0.3 -0.6,0.5 -0.1,0.2 -0.2,0.4 -0.2,0.6 0,0.3 0.1,0.5 0.3,0.7 0.2,0.2 0.4,0.3 0.7,0.3 0.1,0 0.3,0 0.4,-0.1 0.2,-0.1 0.3,-0.2 0.5,-0.4 m 0.8,-2.3 h 1.5 v 0.1 c -0.2,0 -0.3,0 -0.4,0.1 -0.2,0.2 -0.3,0.4 -0.4,0.7 -0.2,0.4 -0.4,0.7 -0.7,1.1 0.2,0.2 0.4,0.4 0.6,0.5 0.1,0.1 0.3,0.1 0.5,0.1 0.1,0 0.3,0 0.4,-0.1 C 59.9,43.1 60,43 60,42.8 l 0.1,0.1 c 0,0.3 -0.2,0.5 -0.4,0.7 -0.2,0.2 -0.4,0.2 -0.7,0.2 -0.3,0 -0.4,0 -0.6,-0.2 -0.3,-0.1 -0.5,-0.3 -0.7,-0.5 -0.2,0.2 -0.5,0.4 -0.8,0.5 -0.2,0.1 -0.5,0.1 -0.7,0.1 -0.4,0 -0.7,-0.1 -0.9,-0.3 -0.2,-0.2 -0.4,-0.4 -0.4,-0.7 0,-0.3 0.1,-0.6 0.3,-0.8 0.3,-0.4 0.7,-0.7 1.1,-0.9 -0.1,-0.2 -0.2,-0.4 -0.2,-0.6 0,-0.1 0,-0.3 0,-0.4 0,-0.4 0.1,-0.7 0.4,-0.9 0.2,-0.2 0.5,-0.3 0.8,-0.3 0.3,0 0.5,0.1 0.7,0.3 0.2,0.2 0.3,0.4 0.3,0.6 0,0.3 -0.1,0.5 -0.3,0.7 -0.3,0.3 -0.6,0.4 -0.9,0.6 0.3,0.5 0.6,1 0.9,1.4 0.4,-0.4 0.6,-0.7 0.6,-1.2 0,-0.1 0,-0.2 -0.1,-0.3 0,-0.1 -0.1,-0.1 -0.2,-0.2 z"
               id="path8-2"
               style="fill:#22372b;fill-opacity:1" /><path
               d="m 67.8,43.5 c 0.3,0 0.5,0.1 0.7,0.1 0.5,0 1,-0.2 1.4,-0.6 0.7,-0.9 0.7,-2.2 0,-3.1 -0.4,-0.4 -0.9,-0.6 -1.4,-0.6 -0.3,0 -0.5,0 -0.7,0.1 z m -1.4,0.3 0.2,-0.1 c 0.2,0 0.4,0 0.4,-0.2 0,-0.2 0.1,-0.4 0.1,-0.5 v -3.1 c 0,-0.2 0,-0.4 -0.1,-0.6 -0.1,-0.1 -0.3,-0.2 -0.4,-0.2 H 66.4 V 39 h 1.9 c 0.6,0 1.1,0 1.6,0.2 0.4,0.2 0.7,0.4 0.9,0.8 0.2,0.4 0.4,0.8 0.4,1.3 0,0.6 -0.2,1.2 -0.6,1.7 -0.5,0.5 -1.3,0.8 -2.1,0.7 z"
               id="path9-2"
               style="fill:#22372b;fill-opacity:1" /><path
               d="m 75.1,39.3 v 1.9 h 1.1 c 0.2,0 0.4,0 0.5,-0.1 0.1,-0.2 0.2,-0.4 0.2,-0.6 H 77 v 1.7 h -0.1 c 0,-0.1 0,-0.3 -0.1,-0.4 0,-0.1 -0.1,-0.1 -0.2,-0.2 -0.1,0 -0.3,-0.1 -0.4,-0.1 h -1.1 v 1.6 0.4 c 0,0 0,0.1 0.1,0.1 0.1,0 0.2,0 0.3,0 h 0.8 0.6 c 0.1,0 0.3,-0.1 0.4,-0.2 0.2,-0.2 0.3,-0.4 0.4,-0.7 h 0.1 l -0.4,1.2 H 73.8 V 43.8 H 74 c 0.1,0 0.2,0 0.3,-0.1 0.1,0 0.1,-0.1 0.2,-0.2 0,-0.1 0,-0.3 0,-0.4 V 40 c 0,-0.2 0,-0.4 -0.1,-0.6 -0.1,-0.1 -0.3,-0.2 -0.4,-0.1 h -0.2 v -0.1 h 3.6 v 1.1 h -0.1 c 0,-0.2 -0.1,-0.4 -0.2,-0.5 0,-0.1 -0.2,-0.2 -0.3,-0.2 -0.2,0 -0.3,0 -0.5,0 z"
               id="path10-1"
               style="fill:#22372b;fill-opacity:1" /><path
               d="M 84.2,42.5 84,43.8 h -3.7 v -0.1 h 0.2 c 0.2,0 0.4,0 0.4,-0.2 0,-0.2 0.1,-0.4 0.1,-0.5 v -3.1 c 0,-0.2 0,-0.4 -0.1,-0.6 -0.1,-0.1 -0.3,-0.2 -0.4,-0.2 H 80.3 V 39 h 2.2 v 0.1 c -0.2,0 -0.4,0 -0.5,0.1 -0.1,0 -0.2,0.1 -0.2,0.2 0,0.2 -0.1,0.4 -0.1,0.6 v 3 0.4 l 0.1,0.1 h 0.5 0.4 c 0.3,0 0.5,0 0.7,-0.1 0.2,0 0.3,-0.2 0.4,-0.3 0.2,-0.2 0.3,-0.4 0.4,-0.6"
               id="path11"
               style="fill:#22372b;fill-opacity:1" /><path
               d="m 88.9,43.7 -2,0.1 V 43.7 H 87 c 0.2,0 0.4,0 0.4,-0.2 0.1,-0.2 0.1,-0.4 0.1,-0.5 v -3.1 c 0,-0.2 0,-0.3 0,-0.5 l -0.1,-0.1 c -0.1,0 -0.2,-0.1 -0.3,-0.1 h -0.2 v -0.1 h 2 v 0.1 h -0.2 c -0.2,0 -0.4,0 -0.4,0.2 -0.1,0.2 -0.1,0.4 -0.1,0.5 v 3.1 0.5 c 0,0.1 0.1,0.1 0.1,0.1 0.1,0 0.2,0.1 0.3,0.1 z"
               id="path12"
               style="fill:#22372b;fill-opacity:1" /><path
               d="m 93.3,41.2 1.8,1.8 c 0.2,0.2 0.4,0.4 0.7,0.6 0.2,0.1 0.4,0.2 0.6,0.2 v 0.1 h -2.2 v -0.1 c 0.1,0 0.2,0 0.3,-0.1 0,0 0.1,-0.1 0.1,-0.2 v -0.1 c 0,-0.1 -0.1,-0.2 -0.2,-0.3 l -1.6,-1.6 v 1.5 0.5 c 0,0.1 0.1,0.1 0.1,0.1 0.1,0 0.2,0.1 0.3,0.1 h 0.2 v 0.1 h -2.1 v -0.1 h 0.2 c 0.2,0 0.4,0 0.4,-0.2 C 92,43.3 92,43.1 92,43 v -3.1 c 0,-0.2 0,-0.3 0,-0.5 l -0.1,-0.1 c -0.1,0 -0.2,-0.1 -0.3,-0.1 H 91.4 V 39 h 2 v 0.1 h -0.2 c -0.1,0 -0.2,0 -0.3,0.1 -0.1,0 -0.1,0.1 -0.1,0.2 v 0.4 1.4 l 0.5,-0.4 c 0.4,-0.4 0.9,-0.8 1.3,-1.3 0,-0.1 0.1,-0.2 0.1,-0.3 0,0 0,-0.1 -0.1,-0.1 -0.1,0 -0.2,-0.1 -0.3,0 H 94.2 V 39 H 96 v 0.1 c -0.1,0 -0.2,0 -0.3,0 -0.1,0 -0.2,0.1 -0.3,0.1 -0.2,0.1 -0.3,0.2 -0.4,0.4 l -0.7,0.7 z"
               id="path13"
               style="fill:#22372b;fill-opacity:1" /><path
               d="m 101.7,42 -0.8,-1.9 -0.8,1.9 z m 0.1,0.2 H 100 L 99.6,43 c 0,0.1 -0.1,0.3 -0.1,0.4 0,0.1 0,0.1 0.1,0.2 0.1,0.1 0.3,0.1 0.4,0.1 v 0.1 h -1.5 v -0.1 c 0.1,0 0.3,0 0.4,-0.1 0.2,-0.2 0.3,-0.4 0.4,-0.7 L 101,39 h 0.1 l 1.7,4 c 0.1,0.2 0.2,0.4 0.4,0.6 0.1,0.1 0.3,0.2 0.4,0.2 v 0.1 h -1.9 v -0.1 c 0.1,0 0.3,0 0.4,-0.1 0,0 0.1,-0.1 0.1,-0.2 0,-0.2 0,-0.4 -0.1,-0.5 z"
               id="path14"
               style="fill:#22372b;fill-opacity:1" /><path
               d="m 109.2,39.1 v 1.1 h -0.1 c 0,-0.1 0,-0.3 -0.1,-0.4 -0.1,-0.1 -0.2,-0.2 -0.3,-0.3 -0.1,-0.1 -0.3,-0.1 -0.5,-0.1 h -0.7 V 43 c 0,0.2 0,0.4 0.1,0.5 0.1,0.1 0.3,0.2 0.4,0.1 h 0.2 v 0.1 h -2 v -0.1 h 0.2 c 0.2,0 0.4,0 0.4,-0.2 0.1,-0.2 0.1,-0.4 0.1,-0.5 v -3.6 h -0.6 c -0.2,0 -0.3,0 -0.5,0 -0.1,0 -0.2,0.1 -0.3,0.3 -0.1,0.2 -0.1,0.3 -0.2,0.5 h -0.1 V 39 Z"
               id="path15"
               style="fill:#22372b;fill-opacity:1" /><path
               d="m 113,39.3 v 1.9 h 1.1 c 0.2,0 0.4,0 0.5,-0.1 0.1,-0.2 0.2,-0.4 0.2,-0.6 h 0.1 v 1.7 h -0.1 c 0,-0.1 0,-0.3 -0.1,-0.4 0,-0.1 -0.1,-0.1 -0.2,-0.2 -0.1,0 -0.3,-0.1 -0.4,-0.1 H 113 v 1.6 0.4 c 0,0 0,0.1 0.1,0.1 0.1,0 0.2,0 0.3,0 h 0.8 0.6 c 0.1,0 0.3,-0.1 0.4,-0.2 0.2,-0.2 0.3,-0.4 0.4,-0.7 h 0.1 l -0.4,1.2 h -3.6 v -0.1 h 0.2 c 0.1,0 0.2,0 0.3,-0.1 0.1,0 0.1,-0.1 0.1,-0.2 0,-0.1 0,-0.3 0,-0.4 V 40 c 0,-0.2 0,-0.4 -0.1,-0.6 -0.1,-0.1 -0.3,-0.2 -0.4,-0.1 h -0.2 v -0.1 h 3.6 v 1.1 h -0.1 c 0,-0.2 -0.1,-0.4 -0.2,-0.5 0,-0.1 -0.2,-0.2 -0.3,-0.2 -0.2,0 -0.3,0 -0.5,0 z"
               id="path16"
               style="fill:#22372b;fill-opacity:1" /><path
               d="m 121.4,39 v 1.6 h -0.1 c 0,-0.3 -0.1,-0.5 -0.2,-0.7 -0.1,-0.2 -0.3,-0.4 -0.4,-0.4 -0.2,-0.1 -0.4,-0.2 -0.6,-0.2 -0.2,0 -0.4,0.1 -0.6,0.2 -0.1,0.1 -0.2,0.3 -0.2,0.5 0,0.1 0,0.3 0.1,0.4 0.3,0.3 0.7,0.5 1.1,0.7 0.3,0.2 0.6,0.4 0.9,0.5 0.2,0.1 0.3,0.3 0.4,0.4 0.1,0.2 0.1,0.4 0.1,0.5 0,0.4 -0.2,0.7 -0.4,0.9 -0.3,0.3 -0.7,0.4 -1.1,0.4 -0.1,0 -0.3,0 -0.4,0 -0.1,0 -0.2,0 -0.4,-0.1 -0.1,0 -0.3,-0.1 -0.4,-0.1 h -0.1 c 0,0 -0.1,0.1 -0.1,0.2 h -0.3 v -1.6 h 0.1 c 0,0.3 0.1,0.5 0.3,0.8 0.1,0.2 0.3,0.4 0.5,0.4 0.2,0.1 0.4,0.2 0.7,0.2 0.3,0 0.5,-0.1 0.7,-0.2 0.2,-0.1 0.3,-0.4 0.3,-0.5 0,-0.1 0,-0.3 -0.1,-0.4 -0.1,-0.1 -0.2,-0.3 -0.3,-0.4 -0.2,-0.2 -0.5,-0.3 -0.7,-0.4 -0.3,-0.2 -0.6,-0.4 -0.9,-0.5 -0.2,-0.1 -0.3,-0.3 -0.4,-0.4 -0.1,-0.2 -0.1,-0.4 -0.1,-0.5 0,-0.4 0.1,-0.7 0.4,-0.9 0.3,-0.3 0.6,-0.4 1,-0.4 0.3,0 0.6,0.1 0.8,0.2 0.1,0 0.2,0.1 0.3,0.1 h 0.1 c 0,0 0.1,-0.1 0.1,-0.2 z"
               id="path17"
               style="fill:#22372b;fill-opacity:1" /><path
               d="m 127.5,39 v 1.6 h -0.1 c 0,-0.3 -0.1,-0.5 -0.2,-0.7 -0.1,-0.2 -0.3,-0.4 -0.5,-0.4 -0.2,-0.1 -0.4,-0.2 -0.6,-0.2 -0.2,0 -0.4,0.1 -0.6,0.2 -0.1,0.1 -0.2,0.3 -0.2,0.5 0,0.1 0,0.3 0.2,0.4 0.3,0.3 0.7,0.5 1,0.7 l 0.9,0.5 c 0.2,0.1 0.3,0.3 0.4,0.4 0.1,0.2 0.1,0.4 0.1,0.5 0,0.4 -0.1,0.7 -0.4,0.9 -0.3,0.3 -0.7,0.4 -1.1,0.4 -0.1,0 -0.3,0 -0.4,0 -0.1,0 -0.3,-0.1 -0.4,-0.1 -0.1,0 -0.3,-0.1 -0.4,-0.1 h -0.1 c 0,0 -0.1,0.1 -0.1,0.2 h -0.1 v -1.6 h 0.1 c 0,0.3 0.1,0.5 0.2,0.7 0.1,0.2 0.3,0.4 0.5,0.4 0.2,0.1 0.4,0.2 0.7,0.2 0.3,0 0.5,-0.1 0.7,-0.2 0.2,-0.1 0.3,-0.4 0.3,-0.5 0,-0.1 0,-0.3 -0.1,-0.4 -0.1,-0.1 -0.2,-0.3 -0.3,-0.4 -0.2,-0.2 -0.5,-0.3 -0.7,-0.4 -0.3,-0.2 -0.6,-0.4 -0.9,-0.5 -0.2,-0.1 -0.3,-0.3 -0.4,-0.4 -0.1,-0.2 -0.1,-0.4 -0.1,-0.5 0,-0.4 0.1,-0.7 0.4,-0.9 0.3,-0.3 0.6,-0.4 1,-0.4 0.3,0 0.5,0.1 0.8,0.2 0.1,0 0.2,0.1 0.3,0.1 h 0.1 c 0,0 0.1,-0.1 0.1,-0.2 z"
               id="path18"
               style="fill:#22372b;fill-opacity:1" /><path
               d="m 131.8,39.3 v 1.9 h 1.1 c 0.2,0 0.4,0 0.5,-0.1 0.1,-0.1 0.2,-0.4 0.2,-0.6 h 0.1 v 1.7 h -0.1 c 0,-0.1 0,-0.3 -0.1,-0.4 0,-0.1 -0.1,-0.1 -0.2,-0.2 -0.1,0 -0.3,-0.1 -0.4,-0.1 h -1.1 v 1.6 0.4 c 0,0 0,0.1 0.1,0.1 0.1,0 0.2,0 0.3,0 h 0.8 0.6 c 0.1,0 0.3,-0.1 0.4,-0.2 0.2,-0.2 0.3,-0.4 0.4,-0.7 h 0.1 l -0.4,1.2 h -3.6 v -0.1 h 0.2 c 0.1,0 0.2,0 0.3,-0.1 0.1,0 0.1,-0.1 0.1,-0.2 0,-0.1 0,-0.3 0,-0.4 V 40 c 0,-0.2 0,-0.4 -0.1,-0.6 -0.1,-0.1 -0.3,-0.2 -0.4,-0.1 h -0.2 v -0.1 h 3.6 v 1.1 c 0,-0.2 -0.1,-0.4 -0.2,-0.5 0,-0.1 -0.2,-0.2 -0.3,-0.2 -0.2,0 -0.3,0 -0.5,0 z"
               id="path19"
               style="fill:#22372b;fill-opacity:1" /><path
               d="m 136.7,39.1 h 1.3 l 2.9,3.6 V 40 c 0,-0.2 0,-0.4 -0.1,-0.5 -0.1,-0.1 -0.3,-0.2 -0.4,-0.1 h -0.2 v -0.1 h 1.7 v 0.1 h -0.2 c -0.2,0 -0.4,0 -0.4,0.2 0,0.2 -0.1,0.4 -0.1,0.5 v 4 h -0.1 L 138,40.3 V 43 c 0,0.2 0,0.4 0.1,0.5 0.1,0.1 0.3,0.2 0.4,0.1 h 0.2 v 0.1 H 137 v -0.1 h 0.2 c 0.2,0 0.4,0 0.4,-0.2 0.1,-0.2 0.1,-0.4 0.1,-0.5 v -3.3 c -0.1,-0.1 -0.2,-0.2 -0.3,-0.3 -0.1,0 -0.2,-0.1 -0.3,-0.1 -0.1,0 -0.2,0 -0.3,0 z"
               id="path20"
               style="fill:#22372b;fill-opacity:1" /></g><path
             d="m 126.1,19.6 c -0.5,0.5 -1.2,1 -1.9,1.2 v -0.5 c 0.6,-0.3 1.1,-0.7 1.6,-1.3 0.2,-0.3 0.3,-0.7 0.3,-1 0,-0.2 0,-0.4 -0.1,-0.5 0,-0.1 -0.2,-0.2 -0.3,-0.2 -0.1,0 -0.2,0 -0.3,0.1 -0.2,0 -0.3,0.1 -0.5,0.1 -0.7,0 -1.2,-0.6 -1.1,-1.3 0,-0.3 0.1,-0.6 0.4,-0.8 0.3,-0.3 0.7,-0.4 1.1,-0.4 0.5,0 1,0.2 1.4,0.6 0.4,0.4 0.6,1 0.6,1.6 -0.2,0.9 -0.6,1.8 -1.2,2.4 m -11.8,2.1 c 1,0.5 2,1.1 2.9,1.8 0.5,0.4 0.9,0.9 1.2,1.4 0.3,0.5 0.4,1.1 0.4,1.8 0,1.1 -0.5,2.2 -1.3,3 -0.9,0.8 -2.2,1.3 -3.4,1.2 -0.4,0 -0.8,0 -1.2,-0.1 -0.5,-0.1 -1,-0.3 -1.4,-0.4 -0.4,-0.2 -0.9,-0.3 -1.4,-0.4 -0.2,0 -0.3,0 -0.4,0.2 -0.1,0.2 -0.2,0.4 -0.2,0.7 H 109 v -5.2 h 0.4 c 0.1,0.9 0.4,1.7 0.8,2.5 0.4,0.6 0.9,1.1 1.5,1.4 0.7,0.4 1.4,0.5 2.2,0.5 0.8,0 1.6,-0.2 2.2,-0.7 0.5,-0.4 0.8,-1.1 0.8,-1.8 0,-0.4 -0.1,-0.8 -0.3,-1.1 -0.2,-0.4 -0.6,-0.8 -1,-1.1 -0.8,-0.5 -1.6,-1 -2.4,-1.4 -1,-0.5 -1.9,-1.1 -2.8,-1.8 -0.5,-0.4 -0.9,-0.9 -1.3,-1.4 -0.3,-0.5 -0.4,-1.1 -0.4,-1.7 0,-1.1 0.4,-2.1 1.3,-2.8 0.9,-0.8 2,-1.2 3.2,-1.2 0.9,0 1.8,0.2 2.5,0.6 0.3,0.1 0.6,0.2 0.9,0.3 0.2,0 0.4,0 0.5,-0.2 0.2,-0.2 0.3,-0.4 0.3,-0.7 h 0.4 v 5.3 h -0.4 c -0.1,-0.8 -0.3,-1.7 -0.7,-2.4 -0.4,-0.6 -0.9,-1.1 -1.5,-1.4 -0.6,-0.4 -1.3,-0.5 -2,-0.5 -0.7,0 -1.4,0.2 -1.9,0.7 -0.5,0.4 -0.7,1 -0.7,1.6 0,0.5 0.2,0.9 0.5,1.3 0.3,0.4 1.4,1.1 3.2,2 M 94.7,18.5 92,24.6 h 5.2 z m 2.7,12 v -0.4 c 0.4,0 0.8,-0.1 1.2,-0.3 0.2,-0.1 0.3,-0.4 0.3,-0.6 0,-0.5 -0.2,-1.1 -0.4,-1.5 l -0.9,-2.2 h -5.9 l -1.1,2.4 c -0.2,0.4 -0.4,0.9 -0.4,1.3 0,0.3 0.1,0.5 0.4,0.6 0.4,0.2 0.9,0.4 1.4,0.4 v 0.4 h -4.8 v -0.4 c 0.4,0 0.9,-0.2 1.2,-0.4 0.6,-0.7 1,-1.4 1.3,-2.2 L 95.1,15 h 0.4 l 5.3,12.6 c 0.3,0.7 0.7,1.4 1.1,2 0.4,0.3 0.9,0.5 1.4,0.5 v 0.4 z m -14.8,0 H 70.8 v -0.4 h 0.6 c 0.5,0 1.1,-0.2 1.4,-0.6 C 73,29 73.1,28.4 73,27.8 V 18 c 0,-1 -0.1,-1.5 -0.3,-1.8 -0.4,-0.4 -0.8,-0.5 -1.3,-0.5 h -0.6 v -0.4 h 6.9 v 0.4 c -0.6,0 -1.1,0 -1.7,0.2 -0.3,0.1 -0.5,0.3 -0.7,0.6 -0.2,0.6 -0.2,1.1 -0.2,1.7 v 9.5 c 0,0.4 0,0.9 0.2,1.3 0.1,0.2 0.3,0.3 0.4,0.4 0.6,0.1 1.2,0.1 1.8,0.1 h 1.1 c 0.8,0 1.7,0 2.5,-0.3 0.5,-0.2 0.9,-0.5 1.3,-0.9 0.5,-0.6 0.9,-1.3 1.1,-2.1 l 0.4,0.1 z M 62.2,17.3 c -0.8,-1 -2.1,-1.6 -3.4,-1.5 -1.3,0 -2.5,0.5 -3.2,1.5 -1,1.3 -1.5,3.1 -1.5,5.5 0,2.5 0.5,4.4 1.6,5.7 0.8,1 2,1.5 3.2,1.5 1.4,0 2.7,-0.6 3.5,-1.7 0.9,-1.1 1.4,-2.9 1.4,-5.3 0,-2.5 -0.6,-4.4 -1.6,-5.7 m 1.9,11.3 c -2.8,2.9 -7.4,3 -10.3,0.3 -0.1,-0.1 -0.1,-0.1 -0.2,-0.2 -1.4,-1.5 -2.2,-3.4 -2.2,-5.8 -0.1,-2.2 0.8,-4.4 2.5,-5.9 1.4,-1.3 3.2,-2 5.1,-2 1.9,0 3.8,0.8 5.1,2.2 1.4,1.5 2.2,3.5 2.2,5.6 0.1,2.2 -0.7,4.2 -2.2,5.8 m -19.7,0.8 c 0.1,0.2 0.3,0.4 0.5,0.5 0.3,0.2 0.7,0.3 1,0.3 h 0.5 v 0.4 H 40 v -0.4 h 0.5 c 0.5,0 1,-0.2 1.4,-0.5 0.2,-0.2 0.3,-0.8 0.3,-1.7 V 18 c 0,-0.5 0,-1 -0.1,-1.5 C 42,16.3 41.8,16.1 41.7,16 41.4,15.8 41,15.7 40.6,15.7 H 40 v -0.4 h 6.5 v 0.4 H 46 c -0.5,0 -1,0.2 -1.4,0.5 -0.2,0.2 -0.3,0.8 -0.3,1.7 v 9.8 c 0,0.7 0.1,1.2 0.1,1.7 M 34.3,16.3 c -0.5,0.5 -0.8,1.1 -1.1,1.7 L 27.9,30.9 H 27.5 L 21.8,17.8 C 21.6,17.4 21.4,17 21.2,16.6 21,16.4 20.8,16.2 20.5,16.1 20.1,16 19.8,15.9 19.4,15.8 v -0.4 h 6.2 v 0.4 c -0.5,0 -1,0.1 -1.4,0.4 -0.2,0.2 -0.3,0.4 -0.3,0.7 0,0.6 0.2,1.2 0.5,1.8 l 3.9,8.9 3.6,-8.8 c 0.3,-0.6 0.4,-1.2 0.5,-1.8 0,-0.3 -0.1,-0.5 -0.3,-0.6 C 31.8,16.2 31.4,16 31,16 h -0.2 v -0.4 h 4.6 V 16 c -0.3,-0.2 -0.8,0 -1.1,0.3"
             fill="#eb4f96"
             id="path21"
             style="fill:#22372b;fill-opacity:1" /></g></g><g
         id="l" /><g
         id="m" /></g></g></svg>
