<?xml version="1.0" encoding="UTF-8" standalone="no"?>
<!-- Created with Inkscape (http://www.inkscape.org/) -->

<svg
   width="109.38475mm"
   height="52.213547mm"
   viewBox="0 0 109.38475 52.213547"
   version="1.1"
   id="svg1"
   xml:space="preserve"
   xmlns="http://www.w3.org/2000/svg"
   xmlns:svg="http://www.w3.org/2000/svg"><defs
     id="defs1" /><g
     id="layer1"
     transform="translate(-45.190352,-101.85418)"><path
       style="fill:#22372b;fill-opacity:1"
       d="m 80.543735,153.85712 c -1.85494,-0.5584 -2.33989,-1.65885 -1.30872,-2.96976 0.29885,-0.37993 0.99353,-0.82565 1.54375,-0.9905 0.90087,-0.2699 1.1868,-0.2179 2.87442,0.5228 2.92721,1.28476 4.90415,1.02494 6.82625,-0.89716 1.022923,-1.02293 3.293468,-4.9512 3.293468,-5.69804 0,-0.39574 -8.245848,-18.64437 -9.708818,-21.48627 -1.36779,-2.65704 -2.35526,-3.63976 -3.65733,-3.63976 -0.48956,0 -0.96371,-0.11906 -1.05364,-0.26458 -0.10704,-0.17319 1.76114,-0.26458 5.40834,-0.26458 3.53819,0 5.57187,0.0966 5.57187,0.26458 0,0.14552 -0.4695,0.26458 -1.04334,0.26458 -1.40317,0 -1.89709,0.67442 -1.56767,2.14057 0.33921,1.50973 7.945854,18.29868 8.176236,18.04613 0.43953,-0.48182 6.387529,-14.26238 6.653729,-15.41564 0.56642,-2.45387 -0.33459,-4.37679 -2.18981,-4.67345 -2.428119,-0.38828 -1.009097,-0.62677 3.72918,-0.62677 3.30484,0 5.00163,0.0917 4.89479,0.26458 -0.0899,0.14552 -0.41033,0.26458 -0.71198,0.26458 -1.28338,0 -3.10409,1.81106 -4.78788,4.7625 -0.37359,0.65485 -2.83141,6.06139 -5.461837,12.01454 -2.630425,5.95314 -5.195317,11.56193 -5.699761,12.46396 -2.216807,3.96402 -5.113787,5.97286 -8.821797,6.11727 -1.11837,0.0436 -2.45013,-0.0463 -2.95945,-0.19958 z m 49.649035,-9.49229 c -5.27694,-0.94624 -9.22874,-6.57373 -8.82671,-12.56952 0.34734,-5.18024 2.92256,-9.39916 7.39344,-12.11254 2.16786,-1.31566 3.8191,-1.81165 6.55299,-1.96831 1.84843,-0.10592 2.55334,-0.026 3.95812,0.44906 0.94003,0.31787 2.02998,0.80638 2.42209,1.08559 0.39211,0.27921 0.78385,0.50766 0.87053,0.50766 0.0867,0 0.15759,-1.78594 0.15759,-3.96875 0,-2.18282 -0.0625,-3.96875 -0.1389,-3.96875 -0.0764,0 -0.99148,0.42935 -2.03353,0.95412 -1.80515,0.90906 -1.91143,0.93117 -2.25,0.46814 -0.62434,-0.85384 -0.26015,-1.22992 2.12715,-2.19659 l 2.33492,-0.94546 -0.086,-2.46901 c -0.10171,-2.92122 -0.40453,-3.34038 -2.26878,-3.14051 -1.64255,0.1761 -1.37367,-0.18767 0.52917,-0.71593 0.9095,-0.25249 2.40552,-0.81757 3.32447,-1.25572 0.91895,-0.43815 1.84169,-0.73107 2.05052,-0.65094 0.30079,0.11543 0.3797,0.80796 0.3797,3.33256 v 3.18685 l 0.93521,-0.39075 c 0.51437,-0.21492 2.13527,-0.95523 3.60201,-1.64515 2.58585,-1.21631 2.67817,-1.23884 3.04119,-0.74239 0.20591,0.2816 0.34083,0.68623 0.29981,0.89919 -0.0448,0.2328 -1.63343,0.96914 -3.98405,1.84667 l -3.90949,1.45948 0.0738,16.32094 c 0.0706,15.62185 0.0954,16.34478 0.57783,16.87771 0.32097,0.35457 0.82546,0.55679 1.38906,0.55679 0.48677,0 0.88504,0.10122 0.88504,0.22494 0,0.12372 -1.27993,0.30589 -2.84427,0.40482 -1.56435,0.0989 -3.14193,0.20607 -3.50573,0.23808 l -0.66146,0.0582 0.0861,-2.77813 0.0861,-2.77812 -1.07501,1.22889 c -2.78637,3.18521 -7.5117,4.91077 -11.49289,4.19688 z m 8.33278,-2.58151 c 1.03851,-0.51126 2.23162,-1.38375 2.96628,-2.16916 l 1.22899,-1.31389 V 135.156 c 0,-1.72934 0.0786,-4.95925 0.17458,-7.17758 l 0.17457,-4.03331 -1.80109,-1.68123 c -2.57378,-2.40249 -4.5005,-3.36647 -7.00802,-3.50624 -5.80345,-0.3235 -9.26712,3.85722 -9.26712,11.18559 0,6.25629 2.58979,10.8006 7.1126,12.48048 1.66904,0.61992 4.41575,0.3459 6.41921,-0.64039 z m -80.825855,2.38126 c -0.0666,-0.10914 -1.93331,-5.13953 -4.14823,-11.17865 -2.21492,-6.03911 -4.24583,-11.41171 -4.51312,-11.93911 -0.59372,-1.17147 -1.93483,-2.34184 -2.7123,-2.36698 -0.31626,-0.0102 -0.81314,-0.12092 -1.10418,-0.24599 -0.31574,-0.13567 1.76526,-0.22221 5.15937,-0.21456 4.86732,0.011 5.50405,0.0567 4.41054,0.31681 -0.70289,0.16719 -1.38494,0.49507 -1.51564,0.72863 -0.33725,0.60264 0.2149,2.52841 2.55307,8.90453 1.10488,3.01297 2.44445,6.69827 2.97681,8.18956 0.53236,1.49128 1.04163,2.71167 1.13172,2.71198 0.0901,3e-4 1.60813,-3.30716 3.37343,-7.34992 3.52437,-8.0712 3.71224,-8.84695 2.68869,-11.10182 -0.4967,-1.09421 -0.63787,-1.19775 -2.91862,-2.14055 -0.48619,-0.20098 0.70564,-0.27049 4.49792,-0.26235 3.68291,0.008 4.82278,0.0771 3.98316,0.24171 -1.73424,0.34005 -1.96517,0.6707 -1.57062,2.24884 0.17862,0.71446 1.91153,5.33706 3.8509,10.27244 1.93938,4.93539 3.52614,9.15958 3.52614,9.3871 0,0.86765 -1.37595,3.99677 -1.75748,3.99677 -0.47586,0 -0.73492,-0.59282 -5.0007,-11.44323 -1.87365,-4.76581 -3.47104,-8.66326 -3.54975,-8.66101 -0.0787,0.002 -2.03838,4.52662 -4.35483,10.05416 -3.80399,9.07714 -4.565,10.5747 -5.00628,9.85164 z m 51.683625,-0.33073 c 0,-0.14552 0.26789,-0.26641 0.59531,-0.26863 0.74378,-0.005 1.09434,-0.23473 1.48175,-0.97075 0.42065,-0.79918 0.43311,-35.88266 0.0132,-37.08732 -0.29836,-0.85587 -0.63345,-1.02106 -2.35481,-1.16088 -0.87762,-0.0713 -0.84304,-0.0995 0.66145,-0.53947 0.87313,-0.25533 2.45771,-0.83597 3.5213,-1.29031 1.17197,-0.50064 2.02935,-0.73054 2.17633,-0.58355 0.14146,0.14145 0.2728,8.65709 0.31516,20.43372 l 0.0726,20.1912 0.62463,0.5057 c 0.34354,0.27814 1.02815,0.50571 1.52135,0.50571 0.4932,0 0.89673,0.11906 0.89673,0.26458 0,0.16659 -1.76389,0.26458 -4.7625,0.26458 -2.99861,0 -4.7625,-0.098 -4.7625,-0.26458 z"
       id="path1" /></g></svg>
